<svg width="255" height="294" viewBox="0 0 255 294" fill="none" xmlns="http://www.w3.org/2000/svg">
<path d="M180.725 284.029C180.725 284.029 170.3 252.515 180.725 219.621C191.151 186.727 194.627 204.103 205.92 165.876C217.215 127.651 231.984 136.267 236.328 148.9C240.671 161.532 238.933 193.785 247.621 211.107C256.309 228.428 258.336 266.51 245.305 284.753L180.725 284.029Z" fill="#5C49A8"/>
<path d="M215.351 284.417C213.108 272.321 211.743 260.051 211.256 247.738C210.96 241.581 211.021 235.408 211.352 229.247C211.611 223.08 212.407 216.935 213.535 210.853C214.215 207.825 214.913 204.811 215.692 201.856C216.471 198.889 217.108 195.887 217.784 192.893C219.091 186.896 220.149 180.847 221.204 174.796C222.239 168.741 223.107 162.656 223.885 156.561C224.703 150.469 225.371 144.357 225.944 138.233C225.343 150.524 224.023 162.776 222.217 174.957C221.32 181.048 220.221 187.112 218.971 193.145C218.312 196.155 217.692 199.175 216.929 202.161C216.159 205.159 215.496 208.14 214.84 211.117C213.689 217.112 212.859 223.193 212.561 229.316C212.439 230.843 212.371 232.374 212.34 233.907L212.215 238.504C212.236 241.571 212.175 244.639 212.277 247.705C212.389 253.843 212.755 259.976 213.293 266.095C213.795 272.219 214.472 278.331 215.351 284.417Z" fill="#AD8DCD"/>
<path d="M194.633 192.597C194.927 193.976 195.233 195.341 195.629 196.684C195.985 198.032 196.389 199.365 196.86 200.673C197.805 203.28 198.872 205.84 200.28 208.197C201.651 210.577 203.363 212.737 205.405 214.555C207.467 216.357 209.928 217.683 212.612 218.545C211.215 218.372 209.829 218.015 208.495 217.492C207.183 216.921 205.923 216.209 204.761 215.355C202.443 213.624 200.585 211.34 199.131 208.872C197.688 206.391 196.617 203.719 195.885 200.975C195.155 198.232 194.667 195.423 194.633 192.597Z" fill="#AD8DCD"/>
<path d="M214.063 211.469C216.515 209.345 218.975 207.251 221.376 205.099C223.763 202.933 226.148 200.772 228.359 198.459L229.989 196.705C230.489 196.091 231.029 195.5 231.499 194.867C232.513 193.636 233.208 192.291 234.083 190.857C234.947 189.463 235.899 188.113 237.012 186.9C238.16 185.745 239.409 184.557 240.991 184.083C239.551 184.829 238.468 186.057 237.512 187.32C236.536 188.577 235.708 189.948 234.973 191.364C234.293 192.761 233.497 194.305 232.509 195.625C231.532 196.963 230.44 198.189 229.32 199.38C227.036 201.723 224.596 203.885 222.032 205.881C220.753 206.884 219.448 207.851 218.135 208.801C216.789 209.711 215.461 210.641 214.063 211.469Z" fill="#AD8DCD"/>
<path d="M177.657 232.279C178.525 234.097 179.436 235.886 180.495 237.591C181.495 239.324 182.595 240.996 183.759 242.616C186.104 245.843 188.712 248.865 191.64 251.54C194.515 254.284 197.843 256.496 201.34 258.356L204.016 259.676L206.827 260.691C207.295 260.862 207.756 261.065 208.235 261.21L209.689 261.575C210.663 261.81 211.636 262.065 212.612 262.332C208.629 261.876 204.561 261.1 200.892 259.279C197.189 257.588 193.716 255.32 190.741 252.524C187.751 249.75 185.099 246.616 182.915 243.191C180.736 239.768 178.871 236.132 177.657 232.279Z" fill="#AD8DCD"/>
<path d="M212.612 247.305C215.493 244.551 218.692 242.141 222 239.914C225.305 237.669 228.787 235.689 232.377 233.931C235.983 232.151 239.74 230.855 243.205 229.029C244.956 228.14 246.647 227.128 248.159 225.892C248.911 225.276 249.651 224.625 250.233 223.844C250.8 223.076 251.351 222.195 251.333 221.189C251.5 222.195 251.044 223.195 250.525 224.044C250 224.917 249.305 225.665 248.591 226.383C247.111 227.765 245.435 228.907 243.705 229.925C240.244 232.02 236.464 233.362 232.96 235.129C229.401 236.835 225.949 238.759 222.548 240.775C220.841 241.775 219.172 242.84 217.523 243.936C215.851 245.003 214.227 246.14 212.612 247.305Z" fill="#AD8DCD"/>
<path d="M138.509 284.356C138.509 284.356 128.084 257.56 133.297 228.191C138.509 198.82 147.197 188.105 153.279 175.653C159.36 163.2 178.473 156.309 188.899 170.615C199.324 184.92 196.717 201.62 205.405 214.555C214.093 227.491 224.519 269.98 210.617 284.356H138.509Z" fill="#7055B0"/>
<path d="M174.613 284.356C172.443 274.347 170.877 264.21 169.629 254.04C168.404 243.865 167.607 233.638 167.245 223.387C167.095 218.26 167.08 213.131 167.22 208.001C167.353 202.875 167.595 197.745 168.156 192.641C169.173 182.443 171.061 172.256 174.613 162.639C173.095 167.529 171.929 172.512 171.075 177.545C170.161 182.569 169.579 187.647 169.177 192.736C168.344 202.909 168.211 213.139 168.576 223.345C168.825 233.56 169.639 243.755 170.644 253.927C171.144 259.016 171.741 264.095 172.415 269.164C173.051 274.241 173.796 279.303 174.613 284.356Z" fill="#361E40"/>
<path d="M146.151 189.053C146.747 191.045 147.333 193.031 148.028 194.984C148.668 196.952 149.363 198.9 150.1 200.831C151.581 204.688 153.169 208.497 154.955 212.213C156.703 215.948 158.753 219.524 160.908 223.035C162.035 224.759 163.157 226.493 164.443 228.108C165.597 229.833 167.048 231.308 168.336 232.949C165.245 230.172 162.461 227.025 160.056 223.607C157.667 220.18 155.551 216.559 153.752 212.791C151.975 209.012 150.4 205.14 149.136 201.168C147.869 197.199 146.789 193.165 146.151 189.053Z" fill="#361E40"/>
<path d="M132.307 235.527C133.521 237.489 134.759 239.429 136.079 241.315C137.364 243.221 138.697 245.093 140.092 246.917C142.873 250.565 145.8 254.098 149.017 257.344C152.22 260.593 155.696 263.589 159.556 266.003C161.48 267.216 163.511 268.276 165.655 269.048C167.781 269.876 170.019 270.409 172.311 270.695C169.999 270.71 167.688 270.303 165.445 269.667C163.207 269.003 161.072 268.022 159.035 266.885C154.941 264.615 151.348 261.567 148.068 258.28C144.817 254.952 141.875 251.343 139.264 247.515C136.648 243.695 134.251 239.72 132.307 235.527Z" fill="#361E40"/>
<path d="M170.039 253.11C171.809 251.81 173.503 250.427 175.124 248.959C176.779 247.532 178.367 246.029 179.932 244.508C183.041 241.44 186.037 238.264 188.928 234.991L191.093 232.533L193.196 230.021C194.64 228.379 195.945 226.624 197.357 224.952C200.096 221.537 202.715 218.031 205.405 214.555C204.285 216.444 203.101 218.295 201.936 220.159C200.684 221.963 199.463 223.792 198.173 225.573C195.584 229.129 192.852 232.584 189.925 235.875C186.987 239.152 183.933 242.337 180.628 245.253C177.32 248.153 173.881 250.956 170.039 253.11Z" fill="#361E40"/>
<path d="M56.6147 272.508C56.6147 272.508 5.068 243.404 0.723999 200.835C0.723999 176.443 14.624 177.288 6.80533 140.409C-1.01334 103.531 -1.88267 64.7507 13.7547 59.3814C29.3933 54.0107 38.9493 102.072 48.5067 98.4574C58.0627 94.844 77.1613 98.7747 85.212 133.069C93.264 167.364 105.556 285.973 56.6147 272.508Z" fill="#3CC0E7"/>
<path d="M13.7547 59.3814C16.2693 68.2694 18.916 77.1201 21.676 85.9321C24.4 94.7547 27.224 103.547 30.2613 112.261C33.332 120.961 36.4587 129.655 40.2627 138.033L43.1453 144.339C44.1147 146.444 44.9693 148.596 45.8867 150.724L48.4267 157.188L50.796 163.715C53.812 172.467 56.4307 181.348 58.7587 190.301C61.0933 199.252 63.1227 208.287 64.732 217.395C66.4133 226.489 67.696 235.655 68.684 244.847C69.692 254.038 70.1333 263.279 70.444 272.508C69.916 263.286 69.2573 254.072 68.036 244.919C66.916 235.76 65.524 226.632 63.7227 217.584C62.8907 213.047 61.8467 208.552 60.8973 204.04C59.8293 199.553 58.796 195.059 57.584 190.608C55.2267 181.695 52.5733 172.856 49.5373 164.152L47.208 157.644L44.708 151.201C43.8053 149.084 42.9653 146.937 42.012 144.844L39.1613 138.535C35.38 130.065 32.2213 121.361 29.2947 112.592C23.444 95.0507 18.368 77.2721 13.7547 59.3814Z" fill="#36A1C1"/>
<path d="M46.7373 152.319C47.76 150.204 48.7373 148.076 49.6307 145.909C50.5507 143.756 51.4187 141.584 52.2267 139.391C53.8467 135.005 55.3053 130.564 56.52 126.057C57.1907 123.82 57.6707 121.535 58.2387 119.271C58.6907 116.983 59.224 114.705 59.5827 112.399C59.7733 111.247 59.9933 110.096 60.16 108.94L60.5827 105.459C60.9507 103.14 60.9893 100.797 61.2707 98.4574C61.3933 103.149 61.2613 107.88 60.5973 112.551C60.3853 114.904 59.8533 117.205 59.4733 119.535C58.9387 121.832 58.4613 124.144 57.804 126.412C56.5453 130.956 55.036 135.436 53.176 139.767C51.336 144.103 49.2667 148.352 46.7373 152.319Z" fill="#36A1C1"/>
<path d="M8.98933 164.567C10.8773 165.869 12.7653 167.157 14.704 168.371C16.6187 169.62 18.56 170.821 20.5213 171.991C24.4467 174.319 28.4293 176.543 32.4973 178.597C36.5427 180.7 40.7013 182.569 44.9093 184.324L48.0787 185.616L51.3 186.771C53.4213 187.639 55.6387 188.191 57.8 188.977C53.312 188.063 48.8453 186.899 44.54 185.281C40.208 183.736 35.9867 181.88 31.8933 179.785C27.804 177.683 23.8 175.408 19.9773 172.856C16.1493 170.319 12.424 167.611 8.98933 164.567Z" fill="#36A1C1"/>
<path d="M63.852 215.392C64.944 212.601 66.0493 209.821 67.0946 207.016C68.1733 204.225 69.2453 201.432 70.272 198.623C72.348 193.012 74.452 187.415 76.4 181.757C78.436 176.135 80.3786 170.476 82.2933 164.809L88.0373 147.792C87.3267 150.701 86.5613 153.599 85.7853 156.493C84.9573 159.372 84.1467 162.257 83.2693 165.124C81.5533 170.867 79.596 176.533 77.656 182.204C75.5973 187.835 73.5067 193.453 71.2227 198.995C68.932 204.532 66.5507 210.037 63.852 215.392Z" fill="#36A1C1"/>
<path d="M7.896 224.031C10.3147 225.399 12.72 226.779 15.1627 228.091C17.5853 229.44 20.02 230.764 22.4747 232.047C27.3787 234.623 32.2987 237.167 37.3413 239.439C42.3373 241.805 47.452 243.921 52.672 245.714C55.2813 246.607 57.9293 247.393 60.624 247.988C63.3093 248.625 66.056 249.007 68.8347 249.029C63.2587 249.532 57.6893 248.237 52.3587 246.691C47.012 245.081 41.8547 242.934 36.7813 240.647C31.752 238.257 26.7987 235.719 21.9827 232.94C17.1693 230.159 12.4333 227.241 7.896 224.031Z" fill="#36A1C1"/>
<path d="M131.823 266.208C131.823 266.208 140.363 264.772 163.173 249.085C185.984 233.4 186.824 224.605 183.633 220.271C180.444 215.936 167.048 223.319 160.92 225.195C154.793 227.071 157.079 215.916 165.921 211.372C174.764 206.831 188.773 198.092 189.349 190.436C189.925 182.78 174.857 187.112 174.917 182.897C174.977 178.683 185.432 168.556 193.223 164.669C201.016 160.781 207.899 145.3 205.589 134.577C203.281 123.856 204.485 99.2667 209.611 92.6654C209.611 92.6654 191.409 92.3414 180.632 107.82C169.853 123.3 170.984 131.352 160.521 136.417C150.06 141.483 137.764 142.828 133.603 147.856C129.441 152.884 132.971 168.683 131.084 174.237C129.197 179.792 123.42 181.449 119.752 174.008C116.084 166.567 109.527 159.953 106.197 163.975C102.868 167.997 113.256 195.573 112.68 203.229C112.104 210.885 98.8786 207.459 98.8373 213.323C98.796 219.187 111.919 253.324 131.823 266.208Z" fill="#CCB0DD"/>
<path d="M131.823 266.208C131.863 258.107 132.497 250.02 133.519 241.997C134.508 233.972 136.021 226.007 138.243 218.251C138.763 216.3 139.416 214.393 140.075 212.489C140.671 210.563 141.504 208.727 142.224 206.849C142.984 204.984 143.881 203.172 144.705 201.332C145.621 199.533 146.487 197.711 147.441 195.932C151.22 188.796 155.469 181.912 159.944 175.177C164.389 168.419 169.091 161.831 173.6 155.079C175.816 151.692 178.055 148.232 179.667 144.465C181.333 140.747 182.784 136.965 184.295 133.209C187.287 125.689 190.449 118.235 194.293 111.125C196.265 107.605 198.337 104.125 200.831 100.941C203.345 97.7947 206.176 94.8467 209.611 92.6654C206.123 94.7574 203.197 97.6454 200.589 100.748C198 103.885 195.827 107.331 193.752 110.823C189.773 117.909 186.499 125.357 183.393 132.84C181.82 136.573 180.321 140.34 178.668 144.013C177.071 147.7 174.868 151.067 172.639 154.44C168.121 161.139 163.376 167.719 158.889 174.479C154.429 181.256 150.192 188.196 146.421 195.397C142.633 202.571 139.376 210.109 137.308 217.988C133.084 233.708 131.616 250.024 131.823 266.208Z" fill="#52399C"/>
<path d="M205.528 144.456C201.665 145.627 197.905 147.116 194.201 148.724C190.492 150.325 186.88 152.147 183.333 154.088C179.799 156.049 176.367 158.204 173.072 160.551C169.783 162.908 166.659 165.496 163.795 168.34C165.437 167.159 166.965 165.855 168.651 164.751C170.26 163.552 171.944 162.457 173.62 161.357C177.015 159.22 180.427 157.116 183.949 155.195C187.452 153.241 191.02 151.405 194.611 149.603C196.408 148.704 198.219 147.832 200.044 146.989C201.852 146.101 203.693 145.295 205.528 144.456Z" fill="#52399C"/>
<path d="M170.324 158.885C169.817 154.035 169.233 149.241 168.805 144.429C168.584 142.027 168.431 139.62 168.292 137.209C168.203 134.799 168.135 132.387 168.163 129.944C167.107 134.727 167.139 139.689 167.543 144.541C168.016 149.4 168.84 154.231 170.324 158.885Z" fill="#52399C"/>
<path d="M189.349 190.436C186.923 191.224 184.561 192.192 182.195 193.143C179.852 194.149 177.524 195.195 175.22 196.292C170.613 198.489 166.124 200.927 161.709 203.491C157.343 206.135 153.015 208.849 148.88 211.845C146.796 213.316 144.775 214.875 142.757 216.435C140.756 218.016 138.823 219.683 136.893 221.344C141.057 218.403 145.167 215.412 149.432 212.647C153.66 209.833 157.959 207.125 162.352 204.581C166.689 201.94 171.163 199.532 175.655 197.159C180.152 194.796 184.708 192.539 189.349 190.436Z" fill="#52399C"/>
<path d="M138.941 214.159C137.111 212.409 135.335 210.615 133.639 208.745L131.099 205.944L128.651 203.063C125.428 199.193 122.392 195.167 119.656 190.945C118.212 188.884 116.948 186.708 115.631 184.567C114.439 182.355 113.16 180.181 112.083 177.909C111.528 176.779 110.951 175.657 110.416 174.519L108.937 171.04C108.688 170.463 108.416 169.891 108.183 169.305L107.531 167.528C107.1 166.343 106.655 165.159 106.197 163.975C107.472 168.867 109.021 173.733 111.201 178.328L111.971 180.075L112.848 181.765L114.629 185.137C115.928 187.321 117.169 189.544 118.601 191.645C121.455 195.852 124.507 199.929 127.917 203.696C131.312 207.469 134.94 211.048 138.941 214.159Z" fill="#52399C"/>
<path d="M183.633 220.271C179.1 222.244 174.659 224.408 170.245 226.627C165.829 228.844 161.492 231.21 157.16 233.588C152.876 236.051 148.595 238.527 144.444 241.217C140.3 243.912 136.191 246.693 132.431 249.912C133.465 249.233 134.492 248.548 135.507 247.852L138.636 245.88C140.727 244.576 142.819 243.275 144.956 242.047C149.195 239.538 153.457 237.063 157.78 234.692C162.051 232.228 166.388 229.881 170.699 227.484L177.175 223.9L183.633 220.271Z" fill="#52399C"/>
<path d="M133.028 243.521C131.483 242.368 129.945 241.217 128.463 239.996C126.952 238.812 125.465 237.598 124.028 236.333C121.147 233.809 118.299 231.252 115.677 228.475C113.049 225.709 110.556 222.816 108.357 219.701C107.788 218.936 107.321 218.105 106.796 217.308C106.545 216.904 106.275 216.508 106.037 216.095L105.384 214.824C104.961 213.972 104.407 213.168 104.097 212.261C103.745 211.373 103.376 210.487 102.995 209.596C103.847 213.368 105.517 216.928 107.545 220.24C109.596 223.547 112.116 226.525 114.764 229.352C117.448 232.151 120.359 234.717 123.413 237.084C126.473 239.443 129.644 241.664 133.028 243.521Z" fill="#52399C"/>
<path d="M169.816 0.762705C169.816 0.762705 196.388 51.2027 169.743 119.307C143.096 187.412 126.501 188.939 121.921 208.175C117.341 227.411 105.477 244.286 93.156 237.22C80.8333 230.155 74.472 72.3054 169.816 0.762705Z" fill="#EE1F6B"/>
<path d="M93.156 237.22C96.196 216.595 100.425 196.179 106.468 176.281C107.22 173.795 107.991 171.311 108.851 168.859L110.112 165.167L111.497 161.519C111.967 160.305 112.409 159.083 112.9 157.876L114.44 154.284C115.444 151.876 116.539 149.52 117.612 147.152C121.909 137.681 126.12 128.177 130.219 118.628C138.495 99.5614 146.227 80.2774 153.221 60.7347C156.644 50.94 159.956 41.1014 162.779 31.1134C165.619 21.1347 168.141 11.0494 169.816 0.762707C168.355 11.092 166.04 21.244 163.405 31.296C160.709 41.3347 157.5 51.22 154.192 61.0667C147.391 80.7014 139.639 100.003 131.453 119.12C127.315 128.661 123.065 138.157 118.729 147.617C117.647 149.981 116.54 152.34 115.533 154.725L113.989 158.293C113.496 159.491 113.049 160.708 112.577 161.915L111.184 165.543L109.904 169.213C109.019 171.649 108.22 174.116 107.441 176.588C104.297 186.472 101.659 196.517 99.308 206.636C96.948 216.752 94.8586 226.944 93.156 237.22Z" fill="#B9235D"/>
<path d="M121.921 208.175C119.831 204.641 118.152 200.963 116.673 197.245C115.189 193.525 114.024 189.737 113.073 185.929C112.127 182.121 111.5 178.276 111.208 174.444C110.859 170.609 111.028 166.796 111.491 163.063C111.604 164.976 111.46 166.855 111.687 168.763L111.871 171.608L112.216 174.456C112.74 178.248 113.391 182.037 114.359 185.804C115.265 189.575 116.385 193.324 117.631 197.059C118.264 198.923 118.932 200.784 119.661 202.633C120.347 204.493 121.127 206.332 121.921 208.175Z" fill="#B9235D"/>
<path d="M121.281 140.533C119.267 141.404 117.363 142.417 115.541 143.523C114.632 144.077 113.711 144.615 112.847 145.217C111.956 145.792 111.099 146.4 110.269 147.036C106.916 149.54 103.805 152.273 100.971 155.22C99.6187 156.74 98.1706 158.196 96.9613 159.813C96.332 160.607 95.676 161.384 95.0666 162.191L93.316 164.656L92.4293 165.885L91.6347 167.165L90.0453 169.731C88.9933 171.447 88.1173 173.249 87.084 174.988C87.8373 173.135 88.5987 171.271 89.4573 169.451L90.8893 166.783L91.6107 165.449L92.4253 164.163L94.0747 161.597C94.6653 160.765 95.3013 159.961 95.9133 159.14C97.1093 157.48 98.5693 155.993 99.9253 154.439C102.829 151.467 106.024 148.705 109.591 146.333C113.152 143.972 116.997 141.861 121.281 140.533Z" fill="#B9235D"/>
<path d="M156.251 150.285C152.975 146.503 150.257 142.387 147.896 138.161C145.531 133.931 143.677 129.528 142.16 125.075C141.387 122.845 140.889 120.581 140.324 118.327C140.093 117.195 139.92 116.059 139.717 114.925C139.623 114.36 139.511 113.793 139.432 113.225L139.303 111.524C138.771 106.977 139.148 102.477 139.825 98.0961C139.807 99.2201 139.777 100.339 139.732 101.453L139.673 103.124C139.668 103.681 139.728 104.247 139.753 104.805L139.896 108.164C140 109.284 140.173 110.408 140.308 111.527L140.525 113.204L140.841 114.881C141.061 115.997 141.252 117.116 141.497 118.229C142.093 120.449 142.624 122.676 143.42 124.867C144.813 129.277 146.657 133.616 148.804 137.864L150.469 141.035C151.075 142.076 151.653 143.127 152.281 144.159C153.493 146.244 154.831 148.28 156.251 150.285Z" fill="#B9235D"/>
<path d="M152.016 66.6187C150.095 66.964 148.176 67.2974 146.284 67.704C144.38 68.0707 142.485 68.4654 140.613 68.9094C136.869 69.792 133.137 70.6947 129.513 71.8173C125.888 72.928 122.324 74.1627 118.909 75.636C118.043 75.984 117.237 76.4187 116.396 76.8067L115.148 77.4094L113.964 78.0907C113.183 78.5533 112.313 78.9294 111.597 79.4694C110.856 79.9814 110.103 80.4853 109.335 80.984C111.892 78.5173 115.037 76.5427 118.363 74.852C121.705 73.168 125.312 71.8827 128.972 70.7347C132.655 69.6267 136.441 68.7413 140.291 68.056C144.141 67.376 148.043 66.828 152.016 66.6187Z" fill="#B9235D"/>
<path d="M181.253 67.704C178.729 65.4334 177.805 64.46 175.727 61.8854C173.643 59.3107 171.769 56.624 170 53.896C168.296 51.1414 166.636 48.3654 165.252 45.5014C164.521 44.084 163.895 42.632 163.224 41.1974C162.62 39.7454 162.035 38.288 161.496 36.8227C163.068 39.624 164.545 42.4347 166.161 45.1974C167.748 47.972 169.421 50.7054 171.135 53.4227C172.859 56.1387 174.681 58.8067 176.551 61.4587C177.48 62.788 178.455 64.0947 179.457 65.3894C180.431 66.7014 180.196 66.4294 181.253 67.704Z" fill="#B9235D"/>
<path d="M87.7147 43.86C87.7147 43.86 88.1147 66.544 90.7413 74.9067C93.368 83.268 106.064 94.9573 111.979 95.36C117.893 95.7613 125.376 90.1373 132.18 83.596C138.985 77.0573 139.177 75.0054 140.427 65.716C141.675 56.4254 141.808 41.724 141.808 41.724C141.808 41.724 130.115 48.348 123.349 31.184C123.349 31.184 119.024 39.048 104.847 38.276C90.6693 37.504 87.7147 43.86 87.7147 43.86Z" fill="#CC7484"/>
<path d="M87.7147 43.86C87.7147 43.86 90.6693 37.504 104.847 38.276C119.024 39.048 123.349 31.184 123.349 31.184C130.115 48.348 141.808 41.724 141.808 41.724C141.808 41.724 141.713 52.2067 140.932 61.0627C149.129 48.9694 149.185 39.0453 146.707 29.6907C144.228 20.3347 135.251 18.664 131.953 18.9853C128.655 19.3067 127.628 18.82 116.783 12.0427C105.937 5.26537 92.3467 10.508 85.8493 18.192C79.3507 25.8773 68.6373 28.488 71.244 41.16C73.8506 53.8333 83.328 56.6187 83.328 56.6187C83.328 56.6187 85.244 57.2587 88.376 58.1947C87.836 50.6653 87.7147 43.86 87.7147 43.86Z" fill="#453890"/>
<path d="M111.979 95.36C110.117 95.2333 107.584 93.9867 104.905 92.0814L104.996 104.096C104.996 104.096 107.543 111.461 113.852 111.891C120.161 112.32 123.727 103.355 123.727 103.355L122.575 91.5374C118.821 94.028 115.171 95.5773 111.979 95.36Z" fill="#A65C6B"/>
<path d="M163.869 126.841C161.177 120.12 123.669 102.769 123.669 102.769C123.669 102.769 120.359 111.845 113.331 111.344C107.397 110.919 104.989 103.148 104.989 103.148C104.989 103.148 75.8213 110.111 69.0093 114.849C62.1973 119.585 49.976 155.403 47.3187 169.919C44.66 184.435 43.388 198.235 61.9733 197.877L54.6253 232.928C54.6253 232.928 82.0907 243.052 112.903 239.757C143.715 236.463 157.212 231.655 157.212 231.655L153.503 193.609C153.503 193.609 164.821 196.288 170.108 190.827C175.395 185.364 166.561 133.561 163.869 126.841Z" fill="#54389C"/>
<path d="M67.916 172.275C67.916 172.275 76.148 164.197 81.8573 163.06C87.5653 161.921 100.439 163.991 100.439 163.991C100.439 163.991 95.9653 170.485 94.6147 177.528C94.6147 177.528 86.028 175.027 79.376 173.996C73.0653 173.02 67.916 172.275 67.916 172.275Z" fill="#CC7484"/>
<path d="M54.6253 232.928C54.6253 232.928 47.084 270.471 46.6813 293.204L162.116 281.951C162.116 281.951 160.485 265.233 157.212 231.655C157.212 231.655 143.715 236.463 112.903 239.757C82.0907 243.052 54.6253 232.928 54.6253 232.928Z" fill="#361E40"/>
<path d="M88.1533 54.7707V54.7694C88.1533 54.7694 84.8347 49.9813 81.448 55.424C78.0613 60.8653 83.456 72.932 90.1133 72.4507C89.0947 67.6907 88.4973 60.668 88.1533 54.7707Z" fill="#CC7484"/>
<path d="M145.716 52.8C144.012 50.9734 142.623 50.6787 141.556 50.988C141.36 55.684 141.019 61.308 140.427 65.716C140.136 67.872 139.901 69.6293 139.629 71.152C139.897 71.1987 140.183 71.2187 140.503 71.1787C147.128 70.3654 150.091 57.484 145.716 52.8Z" fill="#CC7484"/>
<path d="M104.957 98.9787L104.996 104.096C104.996 104.096 107.543 111.461 113.852 111.891C120.161 112.32 123.727 103.355 123.727 103.355L123.204 98C123.204 98 113.537 104.588 104.957 98.9787Z" fill="#CC7484"/>
<path d="M67.916 172.275C67.916 172.275 71.3413 156.028 72.46 148.061C73.58 140.096 73.58 140.096 73.58 140.096L64.4293 172.324L67.916 172.275Z" fill="#483397"/>
<path d="M67.916 172.275C67.916 172.275 73.0333 173.036 79.376 173.996C85.72 174.956 94.6147 177.528 94.6147 177.528C94.6147 177.528 113.496 183.923 122.292 186.848C131.088 189.773 153.503 193.609 153.503 193.609L154.175 200.033C154.175 200.033 122.223 192.383 111.191 187.639C100.157 182.896 81.944 176.639 67.916 172.275Z" fill="#483397"/>
<path d="M99.1853 166.08C99.1853 166.08 100.271 162.973 101.771 163.444C103.271 163.913 140.652 169.984 148.547 170.388L147.573 147.739C147.573 147.739 150.564 170.2 150.575 171.8C150.575 171.8 137.497 170.479 128.193 169.047C118.888 167.615 99.1853 166.08 99.1853 166.08Z" fill="#483397"/>
<path d="M61.9733 197.877C61.9733 197.877 105.944 192.516 119.025 189.276C119.025 189.276 72.9173 203.449 57.584 219.637L61.9733 197.877Z" fill="#483397"/>
<path d="M106.848 287.339C106.848 287.339 107.196 269.74 116.915 263.616C116.915 263.616 111.527 271.591 112.412 286.797L106.848 287.339Z" fill="#1F1622"/>
<path d="M1.74265 105.433L10.188 112.663C13.02 115.045 15.8306 117.444 18.6946 119.773C21.5466 122.119 24.4706 124.365 27.4426 126.543L29.7053 128.128L32.0467 129.587C32.824 130.083 33.6507 130.477 34.4573 130.931C35.276 131.352 36.1507 131.639 37.004 132.024C33.34 131.26 30.0053 129.368 26.8693 127.393C23.7227 125.391 20.744 123.144 17.8533 120.805C14.9893 118.435 12.184 115.995 9.50399 113.42C6.81999 110.855 4.19465 108.227 1.74265 105.433Z" fill="#36A1C1"/>
<path d="M29.8213 112.577L30.156 108.127L30.5493 103.692L31.3333 94.8347L32.108 85.9814L32.8146 77.1C33.1026 80.0694 33.1733 83.052 33.1333 86.0307C33.0986 89.012 32.92 91.9867 32.6613 94.9534C32.376 97.9174 32.0453 100.877 31.5613 103.815C31.092 106.755 30.5627 109.687 29.8213 112.577Z" fill="#36A1C1"/>
</svg>
