<svg width="1440" height="757" viewBox="0 0 1440 757" fill="none" xmlns="http://www.w3.org/2000/svg">
<g clip-path="url(#clip0_30_616)">
<path d="M414.05 733.25C414.05 733.25 390.069 651.673 414.05 566.527C438.031 481.378 446.027 526.356 472.004 427.405C497.985 328.456 531.958 350.759 541.951 383.461C551.94 416.16 547.944 499.649 567.928 544.486C587.913 589.324 592.575 687.902 562.601 735.124L414.05 733.25Z" fill="#5C49A8"/>
<path d="M493.698 734.255C488.539 702.944 485.398 671.18 484.279 639.307C483.598 623.371 483.739 607.391 484.5 591.443C485.095 575.48 486.926 559.573 489.52 543.831C491.084 535.993 492.692 528.189 494.483 520.541C496.274 512.861 497.74 505.089 499.295 497.34C502.3 481.816 504.736 466.157 507.162 450.494C509.542 434.822 511.538 419.069 513.329 403.293C515.21 387.524 516.746 371.702 518.065 355.85C516.682 387.665 513.645 419.38 509.493 450.912C507.429 466.678 504.901 482.375 502.024 497.993C500.509 505.782 499.083 513.6 497.329 521.331C495.556 529.09 494.032 536.807 492.523 544.514C489.876 560.032 487.965 575.773 487.281 591.622C486.999 595.574 486.843 599.537 486.772 603.506L486.484 615.406C486.533 623.344 486.392 631.285 486.628 639.224C486.886 655.111 487.726 670.987 488.965 686.826C490.118 702.678 491.676 718.499 493.698 734.255Z" fill="#AD8DCD"/>
<path d="M446.042 496.574C446.717 500.143 447.422 503.677 448.333 507.153C449.152 510.642 450.081 514.093 451.164 517.479C453.339 524.227 455.792 530.853 459.031 536.955C462.184 543.116 466.122 548.707 470.821 553.412C475.562 558.078 481.224 561.509 487.398 563.742C484.184 563.293 480.997 562.368 477.927 561.015C474.909 559.538 472.011 557.695 469.339 555.483C464.006 551.003 459.733 545.09 456.387 538.702C453.069 532.279 450.606 525.362 448.922 518.259C447.241 511.16 446.119 503.888 446.042 496.574Z" fill="#AD8DCD"/>
<path d="M490.735 545.425C496.375 539.927 502.034 534.505 507.557 528.934C513.047 523.329 518.534 517.735 523.619 511.746L527.37 507.208C528.52 505.617 529.763 504.088 530.842 502.448C533.176 499.263 534.774 495.78 536.786 492.07C538.773 488.46 540.963 484.967 543.524 481.826C546.165 478.837 549.039 475.762 552.676 474.533C549.364 476.466 546.873 479.645 544.674 482.913C542.429 486.168 540.525 489.716 538.835 493.381C537.271 496.999 535.44 500.995 533.167 504.412C530.919 507.874 528.407 511.049 525.831 514.131C520.577 520.195 514.964 525.794 509.066 530.96C506.125 533.556 503.122 536.058 500.101 538.519C497.007 540.873 493.952 543.282 490.735 545.425Z" fill="#AD8DCD"/>
<path d="M406.993 599.291C408.99 603.999 411.084 608.63 413.52 613.042C415.82 617.529 418.35 621.856 421.028 626.05C426.422 634.402 432.422 642.226 439.157 649.151C445.769 656.253 453.425 661.979 461.469 666.793L467.625 670.211L474.09 672.837C475.167 673.279 476.228 673.806 477.329 674.183L480.675 675.125C482.914 675.736 485.153 676.395 487.398 677.085C478.237 675.906 468.879 673.897 460.439 669.182C451.922 664.806 443.932 658.934 437.09 651.697C430.21 644.515 424.11 636.405 419.086 627.538C414.075 618.677 409.784 609.265 406.993 599.291Z" fill="#AD8DCD"/>
<path d="M487.398 638.188C494.026 631.058 501.383 624.821 508.993 619.055C516.596 613.245 524.604 608.119 532.863 603.568C541.156 598.96 549.799 595.605 557.77 590.88C561.797 588.578 565.686 585.958 569.164 582.759C570.894 581.164 572.596 579.48 573.937 577.458C575.24 575.47 576.507 573.188 576.467 570.586C576.85 573.188 575.801 575.777 574.608 577.975C573.4 580.236 571.802 582.172 570.158 584.029C566.754 587.608 562.899 590.563 558.921 593.2C550.959 598.621 542.264 602.094 534.204 606.67C526.018 611.085 518.077 616.065 510.253 621.283C506.327 623.872 502.487 626.63 498.694 629.467C494.848 632.228 491.112 635.172 487.398 638.188Z" fill="#AD8DCD"/>
<path d="M316.942 734.095C316.942 734.095 292.961 664.733 304.953 588.709C316.942 512.682 336.927 484.946 350.916 452.714C364.904 420.478 408.87 402.641 432.851 439.671C456.832 476.701 450.836 519.93 470.821 553.412C490.805 586.897 514.786 696.882 482.809 734.095H316.942Z" fill="#7055B0"/>
<path d="M399.991 734.095C394.998 708.187 391.397 681.948 388.526 655.622C385.708 629.283 383.874 602.809 383.043 576.274C382.696 563.003 382.662 549.726 382.984 536.448C383.291 523.177 383.846 509.9 385.137 496.688C387.477 470.288 391.82 443.919 399.991 419.024C396.498 431.684 393.817 444.582 391.851 457.611C389.75 470.616 388.41 483.759 387.487 496.933C385.57 523.267 385.263 549.746 386.103 576.167C386.677 602.608 388.548 628.997 390.86 655.328C392.011 668.503 393.385 681.649 394.933 694.771C396.396 707.913 398.111 721.015 399.991 734.095Z" fill="#361E40"/>
<path d="M334.519 487.4C335.89 492.557 337.24 497.696 338.838 502.752C340.31 507.846 341.908 512.889 343.604 517.886C347.011 527.871 350.664 537.732 354.771 547.351C358.792 557.018 363.509 566.275 368.465 575.363C371.057 579.825 373.639 584.316 376.596 588.495C379.252 592.961 382.589 596.778 385.551 601.028C378.442 593.838 372.038 585.693 366.505 576.843C361.009 567.973 356.142 558.599 352.004 548.846C347.916 539.064 344.294 529.041 341.386 518.76C338.473 508.485 335.988 498.044 334.519 487.4Z" fill="#361E40"/>
<path d="M302.675 607.698C305.469 612.779 308.315 617.801 311.351 622.681C314.308 627.617 317.375 632.462 320.583 637.184C326.981 646.627 333.713 655.773 341.113 664.173C348.48 672.585 356.476 680.34 365.355 686.588C369.781 689.729 374.452 692.472 379.384 694.47C384.276 696.614 389.422 697.994 394.694 698.733C389.376 698.774 384.061 697.718 378.902 696.072C373.753 694.353 368.842 691.816 364.156 688.873C354.74 682.994 346.475 675.105 338.93 666.598C331.452 657.983 324.683 648.639 318.678 638.73C312.661 628.842 307.146 618.553 302.675 607.698Z" fill="#361E40"/>
<path d="M389.468 653.215C393.541 649.85 397.436 646.268 401.166 642.469C404.972 638.775 408.625 634.885 412.225 630.947C419.378 623.006 426.269 614.785 432.918 606.311L437.899 599.95L442.736 593.448C446.057 589.196 449.06 584.654 452.308 580.326C458.608 571.487 464.631 562.409 470.821 553.412C468.244 558.302 465.521 563.093 462.84 567.918C459.96 572.588 457.151 577.323 454.185 581.934C448.229 591.139 441.945 600.081 435.213 608.599C428.453 617.084 421.429 625.329 413.826 632.876C406.217 640.383 398.307 647.638 389.468 653.215Z" fill="#361E40"/>
<path d="M128.563 703.427C128.563 703.427 9.99234 628.09 0 517.897C0 454.757 31.9736 456.945 13.9887 361.483C-3.99633 266.02 -5.99602 165.636 29.9739 151.738C65.947 137.835 87.9283 262.245 109.913 252.888C131.894 243.534 175.826 253.709 194.344 342.483C212.866 431.256 241.141 738.283 128.563 703.427Z" fill="#3CC0E7"/>
<path d="M29.9739 151.738C35.7583 174.745 41.8463 197.655 48.195 220.465C54.461 243.303 60.9569 266.062 67.9436 288.62C75.0069 311.141 82.1991 333.644 90.9493 355.332L97.5801 371.654C99.8099 377.104 101.776 382.674 103.886 388.183L109.729 404.915L115.179 421.81C122.116 444.465 128.14 467.455 133.495 490.631C138.865 513.8 143.533 537.187 147.235 560.763C151.103 584.305 154.053 608.03 156.326 631.825C158.644 655.615 159.66 679.536 160.374 703.427C159.16 679.557 157.645 655.704 154.835 632.011C152.259 608.303 149.057 584.675 144.913 561.253C143 549.508 140.598 537.874 138.414 526.194C135.958 514.58 133.581 502.945 130.793 491.425C125.37 468.352 119.267 445.473 112.283 422.942L106.925 406.096L101.175 389.418C99.0983 383.938 97.1661 378.381 94.9732 372.962L88.4159 356.63C79.7178 334.707 72.4521 312.176 65.72 289.476C52.2619 244.069 40.5858 198.049 29.9739 151.738Z" fill="#36A1C1"/>
<path d="M105.843 392.311C108.195 386.837 110.443 381.328 112.498 375.72C114.614 370.146 116.611 364.523 118.47 358.846C122.196 347.494 125.551 335.998 128.345 324.332C129.888 318.54 130.992 312.625 132.299 306.764C133.339 300.842 134.565 294.947 135.39 288.976C135.829 285.994 136.335 283.015 136.718 280.023L137.691 271.011C138.537 265.009 138.626 258.945 139.273 252.888C139.555 265.033 139.252 277.279 137.724 289.369C137.237 295.461 136.013 301.418 135.139 307.448C133.909 313.394 132.811 319.379 131.299 325.25C128.404 337.012 124.932 348.609 120.653 359.819C116.421 371.043 111.661 382.043 105.843 392.311Z" fill="#36A1C1"/>
<path d="M19.0125 424.015C23.3553 427.387 27.6982 430.721 32.1577 433.862C36.5619 437.096 41.0275 440.206 45.5391 443.233C54.5684 449.259 63.7295 455.016 73.087 460.334C82.3923 465.777 91.9583 470.616 101.638 475.158L108.928 478.503L116.338 481.491C121.218 483.738 126.318 485.167 131.29 487.203C120.966 484.836 110.692 481.823 100.788 477.636C90.8236 473.636 81.1134 468.832 71.6976 463.41C62.2911 457.967 53.0808 452.079 44.2877 445.473C35.4823 438.905 26.9131 431.895 19.0125 424.015Z" fill="#36A1C1"/>
<path d="M145.211 555.579C147.723 548.355 150.265 541.159 152.67 533.898C155.151 526.674 157.617 519.443 159.979 512.171C164.754 497.647 169.594 483.158 174.075 468.514C178.758 453.96 183.227 439.312 187.631 424.643L200.844 380.593C199.209 388.124 197.448 395.624 195.663 403.117C193.759 410.569 191.894 418.037 189.876 425.458C185.929 440.323 181.426 454.992 176.964 469.67C172.228 484.246 167.419 498.79 162.165 513.134C156.896 527.468 151.419 541.718 145.211 555.579Z" fill="#36A1C1"/>
<path d="M16.4975 577.941C22.0611 581.482 27.594 585.054 33.2127 588.45C38.7855 591.943 44.3859 595.37 50.0323 598.691C61.3128 605.359 72.63 611.944 84.2295 617.825C95.7216 623.951 107.487 629.429 119.494 634.068C125.496 636.38 131.587 638.416 137.786 639.956C143.963 641.606 150.281 642.593 156.672 642.651C143.846 643.952 131.035 640.601 118.773 636.597C106.475 632.431 94.6113 626.874 82.9413 620.953C71.3725 614.767 59.9786 608.196 48.9005 601.003C37.8286 593.804 26.9346 586.252 16.4975 577.941Z" fill="#36A1C1"/>
<path d="M301.561 687.119C301.561 687.119 321.205 683.402 373.676 642.796C426.146 602.194 428.079 579.428 420.739 568.208C413.403 556.987 382.589 576.098 368.493 580.954C354.4 585.81 359.657 556.936 379.997 545.173C400.337 533.418 432.563 510.797 433.888 490.979C435.213 471.161 400.552 482.375 400.69 471.465C400.828 460.555 424.877 434.342 442.797 424.281C460.724 414.217 476.556 374.142 471.244 346.386C465.935 318.633 468.704 254.983 480.494 237.895C480.494 237.895 438.626 237.056 413.835 277.123C389.042 317.194 391.642 338.037 367.576 351.149C343.512 364.261 315.228 367.744 305.656 380.759C296.083 393.774 304.202 434.67 299.862 449.048C295.522 463.427 282.233 467.717 273.795 448.455C265.358 429.192 250.275 412.073 242.616 422.483C234.958 432.896 258.853 504.278 257.528 524.095C256.203 543.913 225.781 535.043 225.686 550.223C225.591 565.402 255.777 653.768 301.561 687.119Z" fill="#CCB0DD"/>
<path d="M301.561 687.119C301.653 666.149 303.113 645.215 305.462 624.448C307.738 603.674 311.219 583.056 316.329 562.979C317.525 557.93 319.028 552.994 320.543 548.065C321.914 543.078 323.831 538.326 325.487 533.466C327.235 528.638 329.299 523.947 331.195 519.184C333.302 514.528 335.292 509.81 337.488 505.206C346.18 486.734 355.955 468.914 366.248 451.481C376.473 433.986 387.287 416.933 397.66 399.455C402.757 390.688 407.907 381.732 411.615 371.982C415.449 362.356 418.786 352.568 422.261 342.845C429.143 323.379 436.418 304.082 445.26 285.679C449.796 276.568 454.562 267.56 460.298 259.318C466.082 251.172 472.593 243.541 480.494 237.895C472.471 243.31 465.742 250.786 459.743 258.817C453.786 266.938 448.787 275.857 444.015 284.896C434.863 303.24 427.33 322.52 420.187 341.889C416.568 351.553 413.121 361.303 409.318 370.812C405.644 380.355 400.577 389.07 395.449 397.802C385.058 415.142 374.142 432.174 363.822 449.673C353.563 467.216 343.816 485.181 335.142 503.822C326.429 522.39 318.936 541.905 314.179 562.299C304.463 602.991 301.086 645.226 301.561 687.119Z" fill="#52399C"/>
<path d="M471.103 371.958C462.218 374.988 453.569 378.843 445.049 383.006C436.516 387.151 428.208 391.865 420.049 396.891C411.919 401.968 404.024 407.545 396.446 413.62C388.879 419.722 381.693 426.421 375.105 433.783C378.884 430.725 382.399 427.349 386.275 424.491C389.977 421.389 393.851 418.555 397.706 415.708C405.515 410.175 413.363 404.729 421.466 399.755C429.523 394.699 437.731 389.946 445.99 385.28C450.124 382.954 454.289 380.697 458.488 378.515C462.647 376.217 466.883 374.129 471.103 371.958Z" fill="#52399C"/>
<path d="M390.124 409.309C388.959 396.753 387.615 384.345 386.631 371.889C386.122 365.669 385.769 359.439 385.45 353.199C385.245 346.959 385.088 340.716 385.153 334.393C382.724 346.773 382.797 359.619 383.727 372.179C384.815 384.756 386.711 397.26 390.124 409.309Z" fill="#52399C"/>
<path d="M433.888 490.979C428.306 493.019 422.874 495.525 417.43 497.986C412.041 500.591 406.686 503.297 401.386 506.138C390.79 511.826 380.463 518.135 370.308 524.772C360.264 531.616 350.308 538.643 340.798 546.398C336.004 550.205 331.354 554.24 326.714 558.278C322.11 562.372 317.663 566.686 313.225 570.986C322.803 563.372 332.256 555.631 342.067 548.473C351.793 541.19 361.681 534.181 371.787 527.595C381.764 520.758 392.054 514.525 402.386 508.381C412.731 502.265 423.211 496.422 433.888 490.979Z" fill="#52399C"/>
<path d="M317.936 552.387C313.725 547.858 309.64 543.213 305.738 538.374L299.896 531.123L294.265 523.664C286.852 513.648 279.868 503.225 273.575 492.298C270.253 486.962 267.346 481.329 264.315 475.786C261.573 470.06 258.632 464.435 256.154 458.553C254.878 455.627 253.55 452.724 252.32 449.776L248.919 440.772C248.345 439.277 247.72 437.797 247.183 436.282L245.683 431.681C244.693 428.612 243.668 425.548 242.616 422.483C245.548 435.146 249.112 447.744 254.127 459.637L255.896 464.158L257.915 468.535L262.012 477.263C264.999 482.917 267.855 488.67 271.149 494.11C277.712 504.999 284.732 515.553 292.578 525.304C300.386 535.071 308.732 544.335 317.936 552.387Z" fill="#52399C"/>
<path d="M420.739 568.208C410.311 573.316 400.095 578.918 389.943 584.661C379.785 590.4 369.808 596.526 359.844 602.681C349.989 609.055 340.141 615.464 330.594 622.429C321.061 629.405 311.609 636.604 302.96 644.936C305.34 643.179 307.701 641.405 310.035 639.604L317.234 634.5C322.043 631.124 326.855 627.755 331.771 624.577C341.521 618.081 351.327 611.675 361.27 605.539C371.093 599.16 381.07 593.086 390.986 586.88L405.883 577.603L420.739 568.208Z" fill="#52399C"/>
<path d="M304.334 628.393C300.779 625.409 297.243 622.429 293.832 619.268C290.357 616.203 286.938 613.062 283.631 609.787C277.004 603.253 270.453 596.634 264.423 589.444C258.378 582.286 252.642 574.797 247.585 566.734C246.275 564.753 245.202 562.603 243.993 560.539C243.417 559.493 242.794 558.468 242.248 557.398L240.745 554.109C239.773 551.904 238.497 549.822 237.786 547.475C236.976 545.177 236.126 542.882 235.249 540.576C237.209 550.34 241.052 559.555 245.717 568.129C250.434 576.688 256.231 584.398 262.322 591.715C268.496 598.96 275.191 605.604 282.218 611.73C289.256 617.836 296.55 623.586 304.334 628.393Z" fill="#52399C"/>
<path d="M388.956 1.16672e-05C388.956 1.16672e-05 450.078 130.567 388.787 306.857C327.493 483.152 289.321 487.103 278.786 536.897C268.25 586.69 240.96 630.371 212.618 612.081C184.272 593.793 169.64 185.192 388.956 1.16672e-05Z" fill="#EE1F6B"/>
<path d="M212.618 612.081C219.61 558.692 229.339 505.844 243.239 454.339C244.969 447.902 246.741 441.472 248.719 435.125L251.621 425.568L254.808 416.125C255.887 412.984 256.905 409.82 258.034 406.696L261.576 397.398C263.886 391.165 266.404 385.066 268.873 378.936C278.758 354.421 288.443 329.819 297.871 305.101C316.908 255.745 334.694 205.828 350.784 155.241C358.657 129.887 366.275 104.419 372.768 78.5643C379.301 52.734 385.104 26.6276 388.956 -5.2213e-06C385.594 26.738 380.27 53.017 374.21 79.0371C368.008 105.023 360.626 130.611 353.016 156.1C337.372 206.925 319.54 256.888 300.712 306.374C291.192 331.072 281.417 355.653 271.443 380.141C268.953 386.26 266.407 392.366 264.091 398.54L260.54 407.776C259.405 410.876 258.378 414.027 257.292 417.15L254.087 426.542L251.142 436.043C249.106 442.349 247.269 448.734 245.478 455.133C238.246 480.718 232.176 506.721 226.769 532.914C221.34 559.1 216.534 585.482 212.618 612.081Z" fill="#B9235D"/>
<path d="M278.785 536.897C273.976 527.751 270.115 518.228 266.714 508.606C263.3 498.976 260.62 489.171 258.433 479.314C256.255 469.456 254.814 459.503 254.142 449.583C253.338 439.657 253.728 429.786 254.792 420.122C255.053 425.075 254.722 429.938 255.243 434.877L255.666 442.242L256.461 449.614C257.666 459.43 259.163 469.239 261.389 478.989C263.475 488.75 266.051 498.455 268.916 508.122C270.373 512.948 271.909 517.766 273.587 522.553C275.163 527.368 276.958 532.127 278.785 536.897Z" fill="#B9235D"/>
<path d="M277.313 361.804C272.679 364.057 268.299 366.681 264.11 369.542C262.018 370.978 259.899 372.368 257.911 373.928C255.863 375.416 253.891 376.99 251.983 378.636C244.269 385.118 237.114 392.193 230.593 399.821C227.484 403.755 224.153 407.524 221.371 411.711C219.923 413.765 218.414 415.777 217.013 417.865L212.986 424.246L210.946 427.429L209.118 430.742L205.462 437.382C203.042 441.824 201.027 446.491 198.651 450.991C200.383 446.194 202.135 441.369 204.11 436.658L207.404 429.751L209.063 426.3L210.937 422.969L214.731 416.329C216.09 414.175 217.553 412.094 218.96 409.968C221.711 405.671 225.07 401.823 228.189 397.798C234.869 390.105 242.217 382.957 250.422 376.817C258.614 370.705 267.459 365.241 277.313 361.804Z" fill="#B9235D"/>
<path d="M357.752 387.047C350.216 377.256 343.966 366.601 338.534 355.664C333.093 344.712 328.83 333.316 325.34 321.788C323.561 316.018 322.417 310.157 321.116 304.321C320.586 301.39 320.187 298.45 319.721 295.516C319.503 294.053 319.246 292.586 319.065 291.116L318.767 286.712C317.543 274.942 318.411 263.294 319.969 251.953C319.926 254.862 319.859 257.758 319.755 260.643L319.62 264.968C319.607 266.41 319.745 267.874 319.804 269.32L320.132 278.014C320.371 280.913 320.77 283.823 321.08 286.719L321.58 291.06L322.306 295.402C322.813 298.291 323.251 301.187 323.815 304.069C325.186 309.815 326.407 315.579 328.238 321.25C331.443 332.667 335.685 343.898 340.623 354.894L344.453 363.102C345.846 365.797 347.177 368.517 348.621 371.188C351.409 376.586 354.486 381.856 357.752 387.047Z" fill="#B9235D"/>
<path d="M348.011 170.472C343.592 171.366 339.178 172.228 334.826 173.281C330.446 174.23 326.088 175.252 321.782 176.401C313.17 178.686 304.585 181.023 296.249 183.929C287.91 186.804 279.712 190 271.857 193.814C269.864 194.714 268.011 195.839 266.076 196.844L263.205 198.404L260.482 200.168C258.684 201.365 256.685 202.338 255.038 203.736C253.332 205.062 251.599 206.366 249.833 207.657C255.715 201.272 262.95 196.16 270.6 191.784C278.289 187.425 286.585 184.098 295.004 181.126C303.475 178.258 312.185 175.966 321.04 174.192C329.897 172.432 338.871 171.014 348.011 170.472Z" fill="#B9235D"/>
<path d="M415.265 173.281C409.459 167.403 407.333 164.884 402.552 158.219C397.758 151.555 393.449 144.6 389.379 137.538C385.459 130.408 381.641 123.222 378.457 115.808C376.777 112.14 375.335 108.381 373.792 104.667C372.403 100.909 371.057 97.1363 369.818 93.3432C373.434 100.595 376.832 107.87 380.549 115.021C384.199 122.204 388.048 129.279 391.989 136.313C395.955 143.344 400.147 150.25 404.447 157.115C406.585 160.556 408.827 163.938 411.133 167.29C413.372 170.686 412.832 169.982 415.265 173.281Z" fill="#B9235D"/>
<path d="M200.101 111.56C200.101 111.56 201.021 170.278 207.063 191.926C213.105 213.569 242.31 243.828 255.915 244.87C269.52 245.909 286.732 231.351 302.383 214.418C318.037 197.493 318.479 192.181 321.353 168.135C324.223 144.086 324.53 106.03 324.53 106.03C324.53 106.03 297.632 123.177 282.07 78.7471C282.07 78.7471 272.121 99.1036 239.509 97.1052C206.898 95.1069 200.101 111.56 200.101 111.56Z" fill="#CC7484"/>
<path d="M200.101 111.56C200.101 111.56 206.898 95.1069 239.509 97.1052C272.121 99.1036 282.07 78.7471 282.07 78.7471C297.632 123.177 324.53 106.031 324.53 106.031C324.53 106.031 324.312 133.165 322.515 156.09C341.371 124.785 341.5 99.0966 335.798 74.8816C330.097 50.6631 309.446 46.3385 301.862 47.1703C294.274 48.0021 291.912 46.7424 266.965 29.1989C242.018 11.6554 210.756 25.2263 195.81 45.1167C180.862 65.0106 156.218 71.7684 162.214 104.571C168.21 137.376 190.011 144.586 190.011 144.586C190.011 144.586 194.418 146.243 201.622 148.666C200.38 129.176 200.101 111.56 200.101 111.56Z" fill="#453890"/>
<path d="M255.915 244.87C251.633 244.542 245.806 241.315 239.644 236.383L239.853 267.484C239.853 267.484 245.711 286.549 260.224 287.661C274.737 288.772 282.938 265.565 282.938 265.565L280.288 234.975C271.655 241.422 263.257 245.433 255.915 244.87Z" fill="#A65C6B"/>
<path d="M375.277 326.361C369.085 308.963 282.806 264.05 282.806 264.05C282.806 264.05 275.191 287.543 259.025 286.246C245.377 285.145 239.838 265.03 239.838 265.03C239.838 265.03 172.744 283.053 157.074 295.319C141.405 307.579 113.293 400.294 107.18 437.869C101.064 475.445 98.1384 511.167 140.89 510.242L123.987 600.972C123.987 600.972 187.165 627.179 258.04 618.65C328.916 610.121 359.963 597.676 359.963 597.676L351.431 499.194C351.431 499.194 377.467 506.128 389.628 491.991C401.788 477.85 381.469 343.756 375.277 326.361Z" fill="#54389C"/>
<path d="M154.559 443.968C154.559 443.968 173.495 423.059 186.628 420.115C199.758 417.168 229.37 422.524 229.37 422.524C229.37 422.524 219.08 439.336 215.973 457.566C215.973 457.566 196.221 451.091 180.92 448.424C166.404 445.897 154.559 443.968 154.559 443.968Z" fill="#CC7484"/>
<path d="M123.987 600.972C123.987 600.972 106.64 698.154 105.714 757L371.244 727.869C371.244 727.869 367.493 684.596 359.963 597.676C359.963 597.676 328.916 610.121 258.04 618.65C187.165 627.179 123.987 600.972 123.987 600.972Z" fill="#361E40"/>
<path d="M201.11 139.803V139.799C201.11 139.799 193.476 127.405 185.686 141.494C177.896 155.579 190.305 186.814 205.619 185.568C203.276 173.247 201.902 155.068 201.11 139.803Z" fill="#CC7484"/>
<path d="M333.52 134.701C329.6 129.973 326.404 129.21 323.95 130.011C323.5 142.167 322.714 156.725 321.353 168.135C320.684 173.716 320.144 178.265 319.519 182.206C320.135 182.327 320.791 182.379 321.527 182.275C336.767 180.17 343.582 146.826 333.52 134.701Z" fill="#CC7484"/>
<path d="M239.764 254.237L239.853 267.484C239.853 267.484 245.711 286.549 260.224 287.661C274.737 288.772 282.938 265.565 282.938 265.565L281.736 251.704C281.736 251.704 259.5 268.757 239.764 254.237Z" fill="#CC7484"/>
<path d="M154.559 443.968C154.559 443.968 162.438 401.912 165.012 381.29C167.588 360.672 167.588 360.672 167.588 360.672L146.539 444.095L154.559 443.968Z" fill="#483397"/>
<path d="M154.559 443.968C154.559 443.968 166.33 445.938 180.92 448.424C195.513 450.909 215.973 457.566 215.973 457.566C215.973 457.566 259.405 474.119 279.638 481.692C299.871 489.264 351.431 499.194 351.431 499.194L352.977 515.823C352.977 515.823 279.479 496.018 254.102 483.738C228.723 471.462 186.827 455.264 154.559 443.968Z" fill="#483397"/>
<path d="M226.487 427.933C226.487 427.933 228.983 419.891 232.434 421.109C235.884 422.324 321.871 438.038 340.031 439.084L337.792 380.455C337.792 380.455 344.671 438.597 344.696 442.739C344.696 442.739 314.614 439.319 293.213 435.612C271.808 431.905 226.487 427.933 226.487 427.933Z" fill="#483397"/>
<path d="M140.889 510.242C140.889 510.242 242.033 496.363 272.124 487.977C272.124 487.977 166.064 524.665 130.793 566.568L140.889 510.242Z" fill="#483397"/>
<path d="M244.113 741.817C244.113 741.817 244.914 696.262 267.269 680.41C267.269 680.41 254.875 701.052 256.912 740.416L244.113 741.817Z" fill="#1F1622"/>
<path d="M2.34314 270.945L21.7696 289.659C28.284 295.827 34.7492 302.036 41.3372 308.065C47.8975 314.136 54.6235 319.952 61.4599 325.588L66.6646 329.692L72.0503 333.468C73.8383 334.752 75.7399 335.773 77.5955 336.947C79.4786 338.037 81.4906 338.779 83.4535 339.777C75.0253 337.799 67.3547 332.902 60.1411 327.79C52.9029 322.606 46.0512 316.79 39.4019 310.737C32.814 304.6 26.361 298.284 20.1963 291.619C14.0224 284.979 7.98338 278.176 2.34314 270.945Z" fill="#36A1C1"/>
<path d="M66.9314 289.438L67.7012 277.917L68.606 266.438L70.4094 243.51L72.1913 220.593L73.8168 197.603C74.4793 205.289 74.6419 213.01 74.5499 220.721C74.4701 228.438 74.0591 236.138 73.4641 243.817C72.8078 251.49 72.0472 259.152 70.9338 266.756C69.8542 274.366 68.6367 281.955 66.9314 289.438Z" fill="#36A1C1"/>
<path d="M1109.47 660C1109.47 660 996.04 573.595 964.802 377.722C933.567 181.852 964.06 157.193 949.493 105.602C934.923 54.0117 937.444 -1.18459 970.106 0.0193599C1002.76 1.22635 1207.99 368.915 1109.47 660Z" fill="#EE1F6B"/>
<path d="M970 1.62275e-05C989.353 52.9511 1006.12 106.908 1018.7 161.927C1020.28 168.804 1021.82 175.688 1023.14 182.62L1025.2 193.003L1026.97 203.443C1027.54 206.927 1028.17 210.4 1028.69 213.893L1030.09 224.394C1031.07 231.396 1031.81 238.392 1032.62 245.388C1035.82 273.378 1039.24 301.337 1042.93 329.263C1050.11 385.132 1058.63 440.832 1068.91 496.215C1074.23 523.871 1079.81 551.483 1086.54 578.837C1093.23 606.189 1100.66 633.391 1110 660C1100.19 633.561 1092.27 606.465 1085.09 579.196C1078.05 551.881 1072.21 524.287 1066.61 496.656C1055.83 441.297 1047.33 385.534 1039.9 329.655C1036.3 301.699 1032.98 273.706 1029.86 245.698C1029.08 238.696 1028.35 231.679 1027.4 224.729L1026.04 214.279C1025.54 210.801 1024.92 207.338 1024.36 203.869L1022.64 193.465L1020.65 183.106C1019.39 176.183 1017.93 169.303 1016.42 162.429C1010.45 134.922 1003.29 107.666 995.475 80.6002C987.688 53.5288 979.275 26.6184 970 1.62275e-05Z" fill="#B9235D"/>
<path d="M950 106C958.344 111.748 966.065 118.37 973.444 125.335C980.839 132.294 987.698 139.82 994.164 147.668C1000.62 155.519 1006.51 163.865 1011.73 172.599C1017.06 181.266 1021.37 190.544 1025 200C1022.45 195.596 1020.46 190.953 1017.7 186.702L1013.89 180.177L1009.76 173.846C1004.14 165.5 998.273 157.316 991.828 149.589C985.491 141.78 978.765 134.281 971.818 126.986C968.323 123.356 964.768 119.781 961.11 116.309C957.524 112.755 953.776 109.372 950 106Z" fill="#B9235D"/>
<path d="M1034 266C1036.82 261.351 1039.26 256.504 1041.43 251.541C1042.51 249.056 1043.63 246.593 1044.56 244.047C1045.58 241.544 1046.5 238.995 1047.32 236.415C1050.75 226.153 1053.44 215.651 1055.33 204.991C1056.1 199.634 1057.13 194.303 1057.51 188.891C1057.76 186.195 1058.08 183.5 1058.28 180.795L1058.68 172.662L1058.9 168.594L1058.89 164.517L1058.86 156.354C1058.81 150.911 1058.32 145.48 1058.22 140C1059 145.4 1059.78 150.825 1060.32 156.278L1060.78 164.484L1061 168.594L1060.98 172.711L1060.9 180.948C1060.77 183.689 1060.51 186.427 1060.33 189.169C1060.03 194.664 1059.01 200.083 1058.28 205.529C1056.28 216.339 1053.46 227.014 1049.47 237.231C1045.47 247.418 1040.63 257.369 1034 266Z" fill="#B9235D"/>
<path d="M953 287C964.034 291.836 974.382 298.164 984.172 305.204C993.974 312.247 1002.99 320.349 1011.41 328.994C1015.65 333.3 1019.39 338.041 1023.26 342.671C1025.09 345.063 1026.82 347.54 1028.61 349.965C1029.48 351.194 1030.4 352.394 1031.24 353.638L1033.58 357.514C1040.19 367.618 1044.96 378.76 1049 390C1047.66 387.314 1046.35 384.625 1045.07 381.928L1043.14 377.891C1042.47 376.565 1041.66 375.303 1040.92 374.004L1036.54 366.225C1034.96 363.7 1033.24 361.256 1031.61 358.773L1029.13 355.067L1026.46 351.491C1024.66 349.123 1022.92 346.71 1021.08 344.382C1017.2 339.87 1013.44 335.262 1009.2 331.071C1001.08 322.375 992.158 314.415 982.761 307.051L975.622 301.634C973.169 299.935 970.749 298.173 968.258 296.517C963.336 293.104 958.23 289.964 953 287Z" fill="#B9235D"/>
<path d="M1064 481C1067.34 477.717 1070.69 474.468 1073.9 471.071C1077.18 467.761 1080.41 464.398 1083.53 460.94C1089.79 454.04 1095.99 447.1 1101.71 439.78C1107.45 432.484 1112.92 424.965 1117.81 417.072C1119.08 415.125 1120.12 413.056 1121.3 411.048L1123 408.007L1124.48 404.862C1125.45 402.75 1126.69 400.736 1127.43 398.529C1128.25 396.353 1129.11 394.179 1130 392C1128.02 401.193 1124.28 409.948 1119.84 418.255C1115.35 426.565 1109.87 434.259 1104.1 441.687C1098.25 449.053 1091.91 456.011 1085.21 462.574C1078.5 469.128 1071.53 475.421 1064 481Z" fill="#B9235D"/>
<path d="M1001 513C1008.73 515.229 1016.13 518.483 1023.36 522.01C1030.6 525.527 1037.57 529.584 1044.38 533.874C1051.1 538.308 1057.76 542.853 1063.99 547.962C1067.16 550.434 1070.17 553.117 1073.24 555.705C1076.21 558.425 1079.15 561.17 1082 564C1075.49 559.287 1069.14 554.42 1062.58 549.851C1056.07 545.223 1049.43 540.795 1042.74 536.459C1036.03 532.145 1029.18 528.066 1022.26 524.086C1018.81 522.083 1015.3 520.191 1011.74 518.363C1008.23 516.456 1004.64 514.708 1001 513Z" fill="#B9235D"/>
<path d="M1403.4 621.279C1403.4 621.279 1430.6 582.815 1434.71 544.901C1441.8 479.58 1409.2 459.656 1409.2 459.656C1409.2 459.656 1433.32 443.386 1439.39 391.098C1445.46 338.95 1403.98 302.688 1403.98 302.688C1403.98 302.688 1423.43 265.736 1410.34 219.682C1398.57 178.236 1363.63 170.629 1356.75 169.521C1349.97 167.915 1314.77 161.595 1288.07 195.397C1258.4 232.964 1262.27 274.545 1262.27 274.545C1262.27 274.545 1210.28 292.239 1195.79 342.717C1181.27 393.313 1197.53 417.616 1197.53 417.616C1197.53 417.616 1153.14 432.657 1141.41 486.652C1133.31 523.921 1141.19 569.207 1141.19 569.207C1141.19 569.207 1110.59 580.901 1100.62 631.162C1093.48 667.138 1148.17 716.408 1255.37 735.675C1361.8 758.834 1410.11 730.021 1417.25 694.045C1426.14 649.24 1403.4 621.279 1403.4 621.279Z" fill="#CCB0DD"/>
<path d="M1344 232L1332.35 294.772L1320.39 357.479L1295.98 482.795L1270.89 607.979L1258.1 670.519L1245 733L1256.65 670.231L1268.61 607.52L1293.02 482.205L1318.11 357.023L1330.91 294.483L1344 232Z" fill="#7055B0"/>
<path d="M1248 333C1253.65 338.679 1259.05 344.571 1264.4 350.496C1269.78 356.404 1274.98 362.461 1280.18 368.517C1285.32 374.623 1290.45 380.732 1295.4 386.993L1302.82 396.394C1305.21 399.598 1307.68 402.735 1310 406C1307.15 403.184 1304.45 400.236 1301.67 397.356L1293.59 388.504C1288.21 382.602 1283.01 376.542 1277.82 370.483C1272.68 364.374 1267.55 358.265 1262.6 352.001C1257.62 345.761 1252.68 339.487 1248 333Z" fill="#7055B0"/>
<path d="M1294 485C1302.09 477.108 1310.39 469.471 1318.73 461.869C1327.05 454.242 1335.52 446.797 1344 439.353C1352.52 431.961 1361.04 424.575 1369.73 417.366L1382.76 406.564C1387.17 403.042 1391.52 399.449 1396 396C1391.98 399.971 1387.83 403.789 1383.74 407.686L1371.27 419.134C1362.95 426.758 1354.48 434.206 1346 441.65C1337.48 449.033 1328.95 456.422 1320.27 463.631C1311.61 470.862 1302.92 478.056 1294 485Z" fill="#7055B0"/>
<path d="M1198 490C1204.95 496.49 1211.66 503.205 1218.34 509.953C1225.04 516.683 1231.57 523.571 1238.1 530.461C1244.58 537.4 1251.05 544.346 1257.35 551.452L1266.79 562.115C1269.86 565.748 1273 569.306 1276 573C1272.5 569.776 1269.15 566.419 1265.71 563.134L1255.66 553.05C1248.95 546.32 1242.42 539.432 1235.9 532.539C1229.43 525.594 1222.95 518.651 1216.65 511.548C1210.33 504.464 1204.04 497.346 1198 490Z" fill="#7055B0"/>
<path d="M1257 670C1264.6 664.871 1272.37 660.038 1280.17 655.239C1287.94 650.414 1295.84 645.8 1303.74 641.182C1311.67 636.629 1319.61 632.082 1327.66 627.735L1339.75 621.229C1343.84 619.158 1347.87 616.995 1352 615C1348.22 617.592 1344.33 620.011 1340.5 622.52L1328.84 629.764C1321.06 634.585 1313.17 639.206 1305.26 643.818C1297.33 648.368 1289.39 652.919 1281.33 657.259C1273.3 661.633 1265.23 665.962 1257 670Z" fill="#7055B0"/>
<path d="M1004.44 737.35C1004.44 737.35 1028.2 665.535 1004.44 590.578C980.667 515.618 972.746 555.215 946.996 468.104C921.25 380.997 887.579 400.631 877.675 429.419C867.775 458.205 871.732 531.704 851.929 571.175C832.122 610.647 827.501 697.429 857.209 739L1004.44 737.35Z" fill="#5C49A8"/>
<path d="M925.209 738C930.331 710.446 933.454 682.494 934.563 654.445C935.239 640.422 935.102 626.359 934.347 612.324C933.753 598.277 931.934 584.278 929.359 570.425C927.802 563.527 926.206 556.66 924.43 549.929C922.647 543.172 921.191 536.332 919.649 529.513C916.66 515.851 914.241 502.071 911.831 488.288C909.47 474.496 907.484 460.634 905.704 446.75C903.837 432.873 902.313 418.95 901 405C902.377 432.998 905.393 460.907 909.516 488.656C911.566 502.53 914.077 516.343 916.935 530.087C918.44 536.942 919.859 543.821 921.602 550.625C923.36 557.453 924.877 564.244 926.376 571.026C929.006 584.682 930.904 598.535 931.583 612.482C931.861 615.96 932.016 619.447 932.086 622.94L932.375 633.412C932.327 640.398 932.467 647.386 932.232 654.372C931.973 668.353 931.138 682.324 929.911 696.262C928.765 710.213 927.217 724.135 925.209 738Z" fill="#AD8DCD"/>
<path d="M973 529C972.334 532.135 971.635 535.239 970.732 538.292C969.917 541.357 968.999 544.389 967.925 547.363C965.766 553.29 963.337 559.111 960.126 564.471C956.997 569.883 953.093 574.794 948.438 578.926C943.737 583.025 938.121 586.038 932 588C935.187 587.606 938.346 586.793 941.393 585.605C944.382 584.307 947.255 582.688 949.903 580.745C955.191 576.81 959.427 571.617 962.744 566.005C966.034 560.363 968.476 554.287 970.148 548.048C971.811 541.812 972.924 535.424 973 529Z" fill="#AD8DCD"/>
<path d="M929 572C923.352 567.114 917.691 562.295 912.159 557.345C906.664 552.364 901.173 547.392 896.086 542.07L892.329 538.037C891.177 536.623 889.934 535.264 888.854 533.807C886.518 530.976 884.918 527.882 882.904 524.584C880.915 521.376 878.726 518.272 876.16 515.481C873.52 512.825 870.641 510.092 867 509C870.318 510.718 872.811 513.543 875.012 516.447C877.256 519.339 879.162 522.493 880.854 525.75C882.422 528.964 884.252 532.516 886.53 535.553C888.777 538.629 891.291 541.451 893.873 544.19C899.128 549.579 904.746 554.554 910.649 559.145C913.596 561.452 916.598 563.676 919.622 565.863C922.722 567.954 925.78 570.095 929 572Z" fill="#AD8DCD"/>
<path d="M1012 619C1010.02 623.176 1007.93 627.283 1005.51 631.196C1003.22 635.176 1000.7 639.014 998.036 642.734C992.671 650.142 986.702 657.081 979.998 663.223C973.422 669.523 965.805 674.601 957.801 678.871L951.677 681.903L945.241 684.232C944.17 684.624 943.114 685.092 942.021 685.425L938.692 686.262C936.461 686.803 934.237 687.388 932 688C941.118 686.954 950.425 685.172 958.826 680.99C967.301 677.109 975.247 671.901 982.058 665.482C988.9 659.112 994.969 651.918 999.971 644.053C1004.96 636.194 1009.22 627.846 1012 619Z" fill="#AD8DCD"/>
<path d="M932 654C925.383 647.671 918.041 642.136 910.441 637.018C902.854 631.862 894.86 627.312 886.614 623.273C878.332 619.183 869.703 616.206 861.745 612.012C857.728 609.969 853.843 607.644 850.371 604.804C848.647 603.389 846.944 601.894 845.609 600.099C844.308 598.335 843.043 596.31 843.08 594C842.697 596.31 843.745 598.607 844.939 600.558C846.145 602.565 847.737 604.283 849.379 605.931C852.777 609.108 856.629 611.73 860.6 614.071C868.546 618.882 877.229 621.965 885.276 626.026C893.448 629.945 901.375 634.365 909.183 638.996C913.105 641.294 916.939 643.742 920.726 646.259C924.566 648.71 928.295 651.323 932 654Z" fill="#AD8DCD"/>
<path d="M1126.35 716C1126.35 716 998.493 698.03 983.628 645.683C968.76 593.342 997.499 601.245 987.589 575.564C977.679 549.885 906.317 476.8 925.149 437.297C943.982 397.791 983.628 444.21 995.52 470.875C1007.41 497.544 1031.2 514.332 1043.09 498.529C1054.99 482.729 1105.53 493.591 1121.39 563.713C1137.25 633.832 1126.35 716 1126.35 716Z" fill="#3CC0E7"/>
<path d="M926 437C945.181 458.323 963.886 480.068 982.358 502.011C1000.8 523.984 1018.84 546.302 1036.37 569.045C1044.95 580.554 1053.6 592.028 1061.37 604.177C1069.09 616.301 1076.61 628.519 1083.87 640.908C1098.45 665.634 1112.57 690.631 1126 716L1104.1 678.951C1096.78 666.617 1089.4 654.325 1081.88 642.113C1074.32 629.935 1066.87 617.682 1059.06 605.679C1051.29 593.704 1042.59 582.306 1033.97 570.882C1016.68 548.038 998.62 525.77 980.576 503.495L953.329 470.219L926 437Z" fill="#36A1C1"/>
<path d="M984 646.106C993.159 644.767 1002.42 644.246 1011.68 644.053C1020.95 643.859 1030.23 644.202 1039.48 645.011C1048.71 645.955 1057.93 647.26 1066.96 649.478C1075.95 651.763 1084.82 654.718 1093 659C1088.59 657.581 1084.33 655.887 1079.83 654.861C1075.46 653.491 1070.92 652.682 1066.45 651.71C1057.43 650.046 1048.34 648.832 1039.2 647.966C1030.05 647.091 1020.86 646.674 1011.67 646.327C1007.07 646.148 1002.46 646.083 997.85 646.085C993.235 645.982 988.627 646.068 984 646.106Z" fill="#36A1C1"/>
<path d="M952 520C961.782 520.227 971.441 521.928 980.924 524.371C990.343 526.951 999.789 530.305 1008 536C998.787 532.604 989.555 529.947 980.188 527.466C970.835 524.95 961.428 522.711 952 520Z" fill="#36A1C1"/>
<path d="M1026 504C1030.04 515.449 1032.87 527.202 1035.19 539.044C1037.38 550.894 1039.08 562.906 1039 575C1036.59 563.152 1034.34 551.393 1032.07 539.588C1029.86 527.78 1027.62 515.978 1026 504Z" fill="#36A1C1"/>
<path d="M1083 500C1086.86 515.093 1090.06 530.348 1093.02 545.642C1095.97 560.946 1098.42 576.347 1100.77 591.763C1102.85 607.216 1104.74 622.706 1106.07 638.25C1107.31 653.807 1108.11 669.407 1107.99 685C1107.31 677.228 1106.95 669.453 1106.1 661.711C1105.5 653.95 1104.61 646.218 1103.79 638.483C1101.99 623.033 1100.14 607.586 1097.83 592.2C1095.73 576.783 1093.24 561.425 1090.78 546.06C1089.56 538.373 1088.27 530.699 1086.94 523.03L1083 500Z" fill="#36A1C1"/>
<path d="M1121.03 120.069C1121.03 120.069 1069.83 123.324 1059.78 164.238C1049.72 205.152 1058.39 241.998 1051.35 257.984C1044.31 273.966 1022.18 332.909 1062.86 375.779C1103.54 418.645 1212.19 399.658 1218.71 339.403C1225.24 279.149 1205.04 278.133 1200.88 230.643C1196.71 183.153 1205.65 117.569 1121.03 120.069Z" fill="#361E40"/>
<path d="M1072.03 201.796C1072.03 201.796 1071.53 239.309 1074.93 247.738C1078.33 256.174 1099.79 296.317 1120.91 294.967C1142.04 293.616 1171.86 261.042 1175.44 250.543C1179.05 239.928 1182 209.183 1182 209.183C1182 209.183 1138.42 192.94 1123.31 157C1123.31 157 1094.98 202.058 1072.03 201.796Z" fill="#FBC7CC"/>
<path d="M1071.86 201.673C1072.16 201.676 1072.45 201.639 1072.75 201.627C1070.33 199.489 1065.54 196.219 1061.29 199.191C1055.34 203.36 1056.27 245.015 1074 245C1071.45 233.367 1071.86 201.673 1071.86 201.673Z" fill="#FBC7CC"/>
<path d="M1195.74 215.205C1190.67 209.779 1181.61 216.075 1181.61 216.075C1180.48 225.733 1178.22 242.899 1175.62 250.28C1175.04 251.926 1173.79 254.124 1172 256.658C1190.08 261.117 1200.82 220.631 1195.74 215.205Z" fill="#FBC7CC"/>
<path d="M1144.05 285C1136.31 290.403 1128.24 294.325 1121.15 294.772C1114.33 295.204 1107.48 291.377 1101.2 285.709L1100.34 317.094L1093 317.56C1093 317.56 1100.28 363.713 1111.36 367.756C1122.45 371.803 1148 324.092 1148 324.092L1141.25 320.115L1144.05 285Z" fill="#FBC7CC"/>
<path d="M1267.88 518.248C1256.13 489.225 1247.77 404.419 1237.25 379.287C1226.73 354.158 1178 326.867 1147.59 324.234C1147.59 324.234 1121.76 371.147 1111.15 367.861C1100.64 364.605 1093.05 318 1093.05 318C1093.05 318 1042.14 322.94 1032.31 330.819C1022.48 338.698 948.181 438.683 948.181 438.683C948.181 438.683 892.754 440.221 865.394 446.593C851.118 450.809 851.118 450.809 851.118 450.809C851.118 450.809 847.443 476.181 853.42 487.048C853.42 487.048 936.216 489.723 956.457 485.79C976.702 481.856 1029.51 418.238 1029.51 418.238C1029.51 418.238 1026.65 446.264 1040.3 463.256C1053.94 480.251 1043.45 523.257 1037.79 538.17C1032.12 553.083 1024.26 585.341 1024.26 585.341C1024.26 585.341 1108.54 632.241 1199.21 602.661C1199.21 602.661 1180.14 552.275 1180.64 518.503C1181.15 484.732 1181.96 476.744 1194.28 452.143C1194.28 452.143 1212.82 509.843 1223.4 535.96C1233.98 562.081 1250.3 647.375 1256.23 646.999C1262.15 646.621 1293 632.751 1293 632.751C1293 632.751 1279.64 547.268 1267.88 518.248Z" fill="#453890"/>
<path d="M1023.84 585C1023.84 585 1003.45 639.734 1001 726L1229 711.594C1229 711.594 1227 638.809 1199.45 602.276C1108.45 631.781 1023.84 585 1023.84 585Z" fill="#331E3C"/>
<path d="M1256.4 647.073C1256.4 647.073 1252.9 654.218 1254.35 661.544C1255.81 668.871 1259.57 686.438 1256.35 695.546C1253.14 704.652 1255.89 716.843 1260.87 717.515C1265.85 718.188 1265.85 718.188 1265.85 718.188C1265.85 718.188 1263.18 733.196 1262.25 740.671C1261.33 748.15 1263.4 757.417 1271.6 754.423C1279.81 751.426 1286.82 721.8 1292.37 708.089C1297.91 694.383 1297.84 685.487 1295.46 671.293C1293.08 657.1 1283.61 637 1283.61 637L1256.4 647.073Z" fill="#FBC7CC"/>
<path d="M851 450.293C851 450.293 836.526 449.389 829.003 448.372C821.479 447.355 810.98 438.553 803.734 434.03C796.485 429.507 781.127 422.51 776.768 424.281C772.404 426.056 769.315 432.234 777.585 437.191C785.851 442.148 794.121 447.105 794.121 447.105C794.121 447.105 775.465 442.957 758.913 440.697C742.365 438.437 735.637 441.632 738.043 448.681C739.873 454.05 778.505 459.566 779.589 460.992C780.673 462.415 779.662 469.959 775.699 470.213C771.737 470.463 739.709 474.999 735.841 476.739C731.975 478.48 731.921 485.462 736.505 487.166C741.086 488.87 777.569 484.051 780.728 486.842C783.893 489.634 781.325 496.2 768.081 499.074C754.841 501.951 747.57 504.868 751.972 511.587C756.373 518.303 790.1 509.178 797.368 506.221C804.641 503.265 820.142 504.694 828.987 495.196C837.833 485.697 850.613 481.391 850.613 481.391C850.613 481.391 847.723 461.304 851 450.293Z" fill="#FBC7CC"/>
<path d="M794.003 447C796.418 454.323 799.602 461.227 804.564 466.503C806.967 469.207 809.993 471.214 813.268 472.704C816.547 474.333 820.215 474.863 824 475.566C820.258 476.155 816.214 476.307 812.445 474.971C808.651 473.822 805.086 471.617 802.365 468.646C799.636 465.691 797.541 462.209 796.162 458.505C794.79 454.803 793.942 450.909 794.003 447Z" fill="#F395A2"/>
<path d="M1266 718C1267.08 714.782 1267.74 711.519 1268.51 708.273L1270.6 698.49C1272 691.945 1273.54 685.355 1276 679C1275.8 685.859 1274.78 692.495 1273.45 699.143C1272.71 702.457 1271.85 705.755 1270.68 708.954C1269.49 712.127 1268.16 715.354 1266 718Z" fill="#F395A2"/>
<path d="M1188 466C1188 466 1180.48 493.746 1137.91 487.409C1095.35 481.076 1080 482.996 1080 482.996C1080 482.996 1115.94 486.494 1134.53 493.529C1153.12 500.561 1170.98 503.363 1182.64 485.993C1182.64 485.993 1184.58 472.797 1188 466Z" fill="#361E40"/>
<path d="M1029.57 418.146C1029.57 418.146 1032.44 392.741 1037 376L1012 438L1029.57 418.146Z" fill="#361E40"/>
<path d="M1194 452.014C1194 452.014 1188.99 427.176 1191.49 411C1191.49 411 1188.75 449.006 1185 474L1194 452.014Z" fill="#361E40"/>
<path d="M1199.5 602C1150.33 618.063 1103.06 611.65 1070 602.384C1070 602.384 1127.54 622.691 1170.1 635.572C1212.67 648.447 1229 712 1229 712C1229 712 1227.01 638.76 1199.5 602Z" fill="#221726"/>
<path d="M1119 719.445C1119 719.445 1115.14 685.662 1099 676C1099 676 1108.76 695.649 1110.4 720L1119 719.445Z" fill="#221726"/>
<path d="M1142.79 299.766L1144 285C1136.29 290.245 1128.25 294.051 1121.18 294.486C1114.39 294.905 1107.56 291.19 1101.3 285.688L1101 296.37C1106.11 299.689 1118.85 305.073 1142.79 299.766Z" fill="#E0A8AE"/>
</g>
<defs>
<clipPath id="clip0_30_616">
<rect width="1440" height="757" fill="white"/>
</clipPath>
</defs>
</svg>
