<svg width="752" height="533" viewBox="0 0 752 533" fill="none" xmlns="http://www.w3.org/2000/svg">
<path d="M751.653 532.672H0.407867V0.538643H751.653V532.672Z" fill="white"/>
<path d="M604.756 444.319H153.243C143.209 444.319 135.075 436.185 135.075 426.151V133.071C135.075 123.037 143.209 114.903 153.243 114.903H604.756C614.792 114.903 622.924 123.037 622.924 133.071V426.151C622.924 436.185 614.792 444.319 604.756 444.319Z" fill="#CCB0DD"/>
<path d="M135.075 427.8C135.075 436.923 149.809 444.319 167.984 444.319H590.016C608.192 444.319 622.924 436.923 622.924 427.8V139.808H135.075V427.8Z" fill="#EBE4F4"/>
<path d="M158.488 127.805C158.488 129.841 156.837 131.492 154.803 131.492C152.767 131.492 151.115 129.841 151.115 127.805C151.115 125.769 152.767 124.119 154.803 124.119C156.837 124.119 158.488 125.769 158.488 127.805Z" fill="#5C49A8"/>
<path d="M169.327 127.805C169.327 129.841 167.675 131.492 165.639 131.492C163.604 131.492 161.952 129.841 161.952 127.805C161.952 125.769 163.604 124.119 165.639 124.119C167.675 124.119 169.327 125.769 169.327 127.805Z" fill="#5C49A8"/>
<path d="M179.995 127.805C179.995 129.841 178.344 131.492 176.307 131.492C174.272 131.492 172.621 129.841 172.621 127.805C172.621 125.769 174.272 124.119 176.307 124.119C178.344 124.119 179.995 125.769 179.995 127.805Z" fill="#5C49A8"/>
<path d="M575.737 487.157C575.737 487.157 526.005 449.264 512.309 363.363C498.615 277.463 511.984 266.648 505.597 244.023C499.209 221.397 500.315 197.191 514.635 197.719C528.952 198.248 618.933 359.5 575.737 487.157Z" fill="#EE1F6B"/>
<path d="M514.635 197.719C523.081 220.94 530.4 244.603 535.891 268.731C536.581 271.747 537.251 274.765 537.829 277.805L538.728 282.359L539.497 286.937C539.747 288.465 540.023 289.988 540.249 291.52L540.859 296.125C541.288 299.196 541.613 302.264 541.964 305.332C543.363 317.607 544.855 329.868 546.465 342.115C549.6 366.616 553.317 391.043 557.805 415.331C560.124 427.459 562.561 439.568 565.497 451.564C568.416 463.559 571.66 475.488 575.737 487.157C571.456 475.562 567.997 463.68 564.864 451.721C561.795 439.743 559.243 427.641 556.799 415.524C552.096 391.247 548.385 366.792 545.144 342.287C543.572 330.027 542.12 317.751 540.76 305.468C540.419 302.397 540.103 299.32 539.687 296.272L539.095 291.689C538.875 290.164 538.605 288.645 538.361 287.124L537.611 282.561L536.739 278.019C536.192 274.983 535.552 271.965 534.895 268.951C532.288 256.888 529.164 244.935 525.753 233.065C522.355 221.193 518.683 209.392 514.635 197.719Z" fill="#B9235D"/>
<path d="M505.597 244.023C509.277 246.548 512.683 249.457 515.937 252.517C519.199 255.575 522.224 258.881 525.076 262.329C527.925 265.779 530.521 269.445 532.821 273.283C535.175 277.091 537.073 281.167 538.676 285.321C537.553 283.387 536.672 281.347 535.456 279.479L533.775 276.612L531.955 273.831C529.475 270.164 526.888 266.568 524.045 263.173C521.251 259.743 518.284 256.448 515.22 253.243C513.679 251.648 512.111 250.077 510.497 248.552C508.916 246.991 507.263 245.504 505.597 244.023Z" fill="#B9235D"/>
<path d="M542.372 314.28C543.628 312.252 544.713 310.137 545.68 307.972C546.16 306.888 546.659 305.813 547.075 304.703C547.528 303.611 547.936 302.499 548.304 301.373C549.829 296.896 551.027 292.315 551.871 287.664C552.212 285.327 552.669 283.001 552.839 280.64C552.952 279.464 553.095 278.288 553.185 277.108L553.361 273.56L553.461 271.785L553.455 270.007L553.44 266.445C553.42 264.071 553.203 261.701 553.155 259.311C553.504 261.667 553.852 264.033 554.092 266.412L554.297 269.992L554.395 271.785L554.387 273.581L554.352 277.175C554.292 278.371 554.179 279.565 554.095 280.761C553.961 283.159 553.509 285.523 553.183 287.899C552.293 292.615 551.039 297.272 549.26 301.729C547.48 306.173 545.325 310.515 542.372 314.28Z" fill="#B9235D"/>
<path d="M507.253 323.528C512.08 325.657 516.607 328.444 520.889 331.544C525.177 334.645 529.12 338.213 532.803 342.02C534.657 343.916 536.296 346.004 537.987 348.043C538.789 349.096 539.545 350.187 540.327 351.255C540.711 351.796 541.109 352.324 541.48 352.872L542.503 354.579C545.392 359.028 547.48 363.935 549.248 368.884C548.66 367.701 548.087 366.517 547.528 365.329L546.685 363.552C546.391 362.968 546.036 362.412 545.715 361.84L543.796 358.415C543.105 357.303 542.356 356.227 541.64 355.133L540.557 353.501L539.389 351.927C538.603 350.884 537.841 349.821 537.035 348.796C535.336 346.809 533.691 344.78 531.836 342.935C528.284 339.105 524.383 335.6 520.272 332.357L517.149 329.972C516.076 329.224 515.017 328.448 513.928 327.719C511.775 326.216 509.541 324.833 507.253 323.528Z" fill="#B9235D"/>
<path d="M555.685 408.519C557.141 407.091 558.603 405.677 560.003 404.2C561.435 402.76 562.844 401.297 564.205 399.793C566.935 396.792 569.641 393.773 572.139 390.589C574.643 387.416 577.028 384.145 579.159 380.712C579.713 379.865 580.169 378.965 580.681 378.092L581.424 376.769L582.072 375.401C582.492 374.483 583.033 373.607 583.357 372.647C583.716 371.7 584.091 370.755 584.479 369.807C583.615 373.805 581.981 377.613 580.045 381.227C578.089 384.841 575.695 388.188 573.181 391.419C570.627 394.623 567.863 397.649 564.939 400.504C562.011 403.355 558.969 406.092 555.685 408.519Z" fill="#B9235D"/>
<path d="M528.193 422.716C531.567 423.685 534.793 425.1 537.948 426.633C541.109 428.163 544.149 429.927 547.124 431.792C550.055 433.72 552.961 435.696 555.679 437.917C557.064 438.992 558.375 440.159 559.716 441.284C561.012 442.467 562.293 443.66 563.537 444.891C560.695 442.841 557.925 440.725 555.064 438.739C552.223 436.727 549.325 434.801 546.407 432.916C543.479 431.04 540.491 429.267 537.472 427.536C535.967 426.665 534.432 425.843 532.881 425.048C531.348 424.219 529.78 423.459 528.193 422.716Z" fill="#B9235D"/>
<path d="M704.452 470.053C704.452 470.053 716.376 453.199 718.181 436.585C721.289 407.963 706.995 399.232 706.995 399.232C706.995 399.232 717.568 392.103 720.233 369.191C722.892 346.34 704.704 330.451 704.704 330.451C704.704 330.451 713.232 314.259 707.495 294.079C702.332 275.917 687.015 272.584 683.999 272.099C681.025 271.395 665.595 268.625 653.888 283.437C640.877 299.899 642.576 318.119 642.576 318.119C642.576 318.119 619.781 325.872 613.428 347.991C607.06 370.161 614.189 380.811 614.189 380.811C614.189 380.811 594.725 387.401 589.584 411.061C586.035 427.392 589.489 447.236 589.489 447.236C589.489 447.236 576.073 452.36 571.7 474.384C568.572 490.148 592.548 511.737 639.549 520.18C686.213 530.328 707.395 517.703 710.524 501.938C714.42 482.305 704.452 470.053 704.452 470.053Z" fill="#CCB0DD"/>
<path d="M678.551 299.54L673.417 327.073L668.147 354.579L657.395 409.545L646.34 464.455L640.704 491.886L634.932 519.292L640.065 491.76L645.335 464.253L656.088 409.287L667.145 354.379L672.781 326.947L678.551 299.54Z" fill="#7055B0"/>
<path d="M636.573 343.909C639.02 346.391 641.356 348.965 643.673 351.555C646.004 354.136 648.252 356.783 650.503 359.429C652.728 362.097 654.951 364.767 657.095 367.503L660.307 371.611C661.341 373.011 662.411 374.381 663.413 375.808C662.179 374.577 661.011 373.289 659.807 372.031L656.309 368.163C653.981 365.584 651.731 362.936 649.483 360.288C647.259 357.619 645.035 354.949 642.892 352.212C640.737 349.485 638.599 346.744 636.573 343.909Z" fill="#7055B0"/>
<path d="M656.541 410.423C660.072 406.972 663.696 403.633 667.337 400.309C670.968 396.975 674.667 393.72 678.365 390.465C682.085 387.233 685.808 384.004 689.597 380.852L695.285 376.129C697.213 374.589 699.112 373.019 701.067 371.511C699.311 373.247 697.499 374.916 695.716 376.62L690.272 381.625C686.641 384.959 682.943 388.215 679.243 391.469C675.521 394.697 671.8 397.928 668.009 401.08C664.229 404.241 660.433 407.387 656.541 410.423Z" fill="#7055B0"/>
<path d="M614.524 412.604C617.584 415.457 620.54 418.409 623.48 421.376C626.431 424.335 629.305 427.363 632.18 430.392C635.031 433.443 637.88 436.496 640.653 439.62L644.811 444.308C646.161 445.905 647.545 447.469 648.865 449.093C647.325 447.676 645.848 446.2 644.336 444.756L639.908 440.323C636.957 437.364 634.083 434.336 631.209 431.305C628.36 428.252 625.511 425.2 622.737 422.077C619.953 418.963 617.185 415.833 614.524 412.604Z" fill="#7055B0"/>
<path d="M640.493 491.275C643.821 489.029 647.221 486.914 650.633 484.813C654.036 482.701 657.493 480.681 660.949 478.66C664.421 476.667 667.896 474.676 671.421 472.773L676.712 469.925C678.5 469.019 680.265 468.072 682.073 467.199C680.417 468.333 678.716 469.392 677.039 470.491L671.935 473.661C668.531 475.772 665.076 477.795 661.617 479.814C658.144 481.805 654.671 483.797 651.144 485.697C647.627 487.612 644.096 489.507 640.493 491.275Z" fill="#7055B0"/>
<path d="M242.725 521.029C242.725 521.029 232.3 489.515 242.725 456.621C253.151 423.727 256.627 441.103 267.92 402.876C279.215 364.651 293.984 373.267 298.328 385.9C302.671 398.532 300.933 430.785 309.621 448.107C318.309 465.428 320.336 503.51 307.305 521.753L242.725 521.029Z" fill="#5C49A8"/>
<path d="M277.351 521.417C275.108 509.321 273.743 497.051 273.256 484.737C272.96 478.581 273.021 472.408 273.352 466.247C273.611 460.08 274.407 453.935 275.535 447.853C276.215 444.825 276.913 441.811 277.692 438.856C278.471 435.889 279.108 432.887 279.784 429.893C281.091 423.896 282.149 417.847 283.204 411.796C284.239 405.741 285.107 399.656 285.885 393.561C286.703 387.469 287.371 381.357 287.944 375.233C287.343 387.524 286.023 399.776 284.217 411.957C283.32 418.048 282.221 424.112 280.971 430.145C280.312 433.155 279.692 436.175 278.929 439.161C278.159 442.159 277.496 445.14 276.84 448.117C275.689 454.112 274.859 460.193 274.561 466.316C274.439 467.843 274.371 469.373 274.34 470.907L274.215 475.504C274.236 478.571 274.175 481.639 274.277 484.705C274.389 490.843 274.755 496.976 275.293 503.095C275.795 509.219 276.472 515.331 277.351 521.417Z" fill="#AD8DCD"/>
<path d="M256.633 429.597C256.927 430.976 257.233 432.341 257.629 433.684C257.985 435.032 258.389 436.365 258.86 437.673C259.805 440.28 260.872 442.84 262.28 445.197C263.651 447.577 265.363 449.737 267.405 451.555C269.467 453.357 271.928 454.683 274.612 455.545C273.215 455.372 271.829 455.015 270.495 454.492C269.183 453.921 267.923 453.209 266.761 452.355C264.443 450.624 262.585 448.34 261.131 445.872C259.688 443.391 258.617 440.719 257.885 437.975C257.155 435.232 256.667 432.423 256.633 429.597Z" fill="#AD8DCD"/>
<path d="M276.063 448.469C278.515 446.345 280.975 444.251 283.376 442.099C285.763 439.933 288.148 437.772 290.359 435.459L291.989 433.705C292.489 433.091 293.029 432.5 293.499 431.867C294.513 430.636 295.208 429.291 296.083 427.857C296.947 426.463 297.899 425.113 299.012 423.9C300.16 422.745 301.409 421.557 302.991 421.083C301.551 421.829 300.468 423.057 299.512 424.32C298.536 425.577 297.708 426.948 296.973 428.364C296.293 429.761 295.497 431.305 294.509 432.625C293.532 433.963 292.44 435.189 291.32 436.38C289.036 438.723 286.596 440.885 284.032 442.881C282.753 443.884 281.448 444.851 280.135 445.801C278.789 446.711 277.461 447.641 276.063 448.469Z" fill="#AD8DCD"/>
<path d="M239.657 469.279C240.525 471.097 241.436 472.886 242.495 474.591C243.495 476.324 244.595 477.996 245.759 479.616C248.104 482.843 250.712 485.865 253.64 488.54C256.515 491.284 259.843 493.496 263.34 495.356L266.016 496.676L268.827 497.691C269.295 497.861 269.756 498.065 270.235 498.21L271.689 498.575C272.663 498.81 273.636 499.065 274.612 499.332C270.629 498.876 266.561 498.1 262.892 496.279C259.189 494.588 255.716 492.32 252.741 489.524C249.751 486.749 247.099 483.616 244.915 480.191C242.736 476.768 240.871 473.132 239.657 469.279Z" fill="#AD8DCD"/>
<path d="M274.612 484.305C277.493 481.55 280.692 479.141 284 476.914C287.305 474.669 290.787 472.689 294.377 470.931C297.983 469.15 301.74 467.855 305.205 466.029C306.956 465.14 308.647 464.128 310.159 462.892C310.911 462.276 311.651 461.625 312.233 460.844C312.8 460.076 313.351 459.195 313.333 458.189C313.5 459.195 313.044 460.195 312.525 461.044C312 461.917 311.305 462.665 310.591 463.383C309.111 464.765 307.435 465.907 305.705 466.925C302.244 469.02 298.464 470.361 294.96 472.129C291.401 473.835 287.949 475.759 284.548 477.774C282.841 478.774 281.172 479.84 279.523 480.936C277.851 482.003 276.227 483.14 274.612 484.305Z" fill="#AD8DCD"/>
<path d="M529.693 521.029C529.693 521.029 540.117 489.515 529.693 456.621C519.267 423.727 515.792 441.103 504.497 402.876C493.204 364.651 478.435 373.267 474.091 385.9C469.748 398.532 471.484 430.785 462.797 448.107C454.109 465.428 452.083 503.51 465.113 521.753L529.693 521.029Z" fill="#5C49A8"/>
<path d="M495.068 521.417C497.309 509.321 498.676 497.051 499.161 484.737C499.457 478.581 499.397 472.408 499.067 466.247C498.807 460.08 498.011 453.935 496.884 447.853C496.203 444.825 495.504 441.811 494.727 438.856C493.947 435.889 493.309 432.887 492.635 429.893C491.327 423.896 490.268 417.847 489.213 411.796C488.18 405.741 487.311 399.656 486.532 393.561C485.715 387.469 485.048 381.357 484.473 375.233C485.076 387.524 486.396 399.776 488.2 411.957C489.097 418.048 490.196 424.112 491.447 430.145C492.105 433.155 492.727 436.175 493.489 439.161C494.259 442.159 494.923 445.14 495.579 448.117C496.729 454.112 497.56 460.193 497.857 466.316C497.979 467.843 498.047 469.373 498.077 470.907L498.204 475.504C498.183 478.571 498.244 481.639 498.141 484.705C498.028 490.843 497.663 496.976 497.125 503.095C496.624 509.219 495.947 515.331 495.068 521.417Z" fill="#AD8DCD"/>
<path d="M515.784 429.597C515.492 430.976 515.185 432.341 514.789 433.684C514.432 435.032 514.029 436.365 513.559 437.673C512.612 440.28 511.547 442.84 510.139 445.197C508.767 447.577 507.055 449.737 505.013 451.555C502.952 453.357 500.489 454.683 497.805 455.545C499.203 455.372 500.588 455.015 501.924 454.492C503.235 453.921 504.495 453.209 505.656 452.355C507.975 450.624 509.832 448.34 511.287 445.872C512.729 443.391 513.8 440.719 514.533 437.975C515.263 435.232 515.751 432.423 515.784 429.597Z" fill="#AD8DCD"/>
<path d="M496.356 448.469C493.903 446.345 491.444 444.251 489.041 442.099C486.655 439.933 484.269 437.772 482.06 435.459L480.428 433.705C479.928 433.091 479.388 432.5 478.919 431.867C477.904 430.636 477.209 429.291 476.335 427.857C475.471 426.463 474.52 425.113 473.405 423.9C472.259 422.745 471.008 421.557 469.427 421.083C470.868 421.829 471.951 423.057 472.907 424.32C473.881 425.577 474.709 426.948 475.444 428.364C476.125 429.761 476.92 431.305 477.909 432.625C478.885 433.963 479.977 435.189 481.099 436.38C483.381 438.723 485.821 440.885 488.385 442.881C489.665 443.884 490.969 444.851 492.283 445.801C493.629 446.711 494.957 447.641 496.356 448.469Z" fill="#AD8DCD"/>
<path d="M532.76 469.279C531.893 471.097 530.983 472.886 529.923 474.591C528.924 476.324 527.823 477.996 526.659 479.616C524.315 482.843 521.707 485.865 518.777 488.54C515.904 491.284 512.576 493.496 509.079 495.356L506.403 496.676L503.591 497.691C503.123 497.861 502.661 498.065 502.184 498.21L500.729 498.575C499.755 498.81 498.783 499.065 497.805 499.332C501.789 498.876 505.856 498.1 509.527 496.279C513.229 494.588 516.701 492.32 519.677 489.524C522.667 486.749 525.319 483.616 527.504 480.191C529.683 476.768 531.547 473.132 532.76 469.279Z" fill="#AD8DCD"/>
<path d="M497.805 484.305C494.924 481.55 491.727 479.141 488.417 476.914C485.113 474.669 481.632 472.689 478.041 470.931C474.435 469.15 470.677 467.855 467.212 466.029C465.463 465.14 463.771 464.128 462.259 462.892C461.508 462.276 460.767 461.625 460.185 460.844C459.619 460.076 459.068 459.195 459.084 458.189C458.917 459.195 459.373 460.195 459.893 461.044C460.419 461.917 461.112 462.665 461.827 463.383C463.307 464.765 464.984 465.907 466.713 466.925C470.173 469.02 473.955 470.361 477.459 472.129C481.017 473.835 484.469 475.759 487.869 477.774C489.577 478.774 491.247 479.84 492.896 480.936C494.568 482.003 496.192 483.14 497.805 484.305Z" fill="#AD8DCD"/>
<path d="M200.509 521.356C200.509 521.356 190.084 494.56 195.297 465.191C200.509 435.82 209.197 425.105 215.279 412.653C221.36 400.2 240.473 393.309 250.899 407.615C261.324 421.92 258.717 438.62 267.405 451.555C276.093 464.491 286.519 506.98 272.617 521.356H200.509Z" fill="#7055B0"/>
<path d="M236.613 521.356C234.443 511.347 232.877 501.21 231.629 491.04C230.404 480.865 229.607 470.637 229.245 460.387C229.095 455.26 229.08 450.131 229.22 445.001C229.353 439.875 229.595 434.745 230.156 429.641C231.173 419.443 233.061 409.256 236.613 399.639C235.095 404.529 233.929 409.512 233.075 414.545C232.161 419.569 231.579 424.647 231.177 429.736C230.344 439.909 230.211 450.139 230.576 460.345C230.825 470.56 231.639 480.755 232.644 490.927C233.144 496.016 233.741 501.095 234.415 506.164C235.051 511.241 235.796 516.303 236.613 521.356Z" fill="#361E40"/>
<path d="M208.151 426.053C208.747 428.045 209.333 430.031 210.028 431.984C210.668 433.952 211.363 435.9 212.1 437.831C213.581 441.688 215.169 445.497 216.955 449.213C218.703 452.948 220.753 456.524 222.908 460.035C224.035 461.759 225.157 463.493 226.443 465.108C227.597 466.833 229.048 468.308 230.336 469.949C227.245 467.172 224.461 464.025 222.056 460.607C219.667 457.18 217.551 453.559 215.752 449.791C213.975 446.012 212.4 442.14 211.136 438.168C209.869 434.199 208.789 430.165 208.151 426.053Z" fill="#361E40"/>
<path d="M194.307 472.526C195.521 474.489 196.759 476.429 198.079 478.314C199.364 480.221 200.697 482.093 202.092 483.917C204.873 487.565 207.8 491.098 211.017 494.344C214.22 497.593 217.696 500.589 221.556 503.003C223.48 504.216 225.511 505.276 227.655 506.048C229.781 506.876 232.019 507.409 234.311 507.695C231.999 507.71 229.688 507.303 227.445 506.667C225.207 506.003 223.072 505.022 221.035 503.885C216.941 501.614 213.348 498.567 210.068 495.28C206.817 491.952 203.875 488.343 201.264 484.514C198.648 480.695 196.251 476.72 194.307 472.526Z" fill="#361E40"/>
<path d="M232.039 490.11C233.809 488.81 235.503 487.426 237.124 485.959C238.779 484.532 240.367 483.029 241.932 481.508C245.041 478.44 248.037 475.264 250.928 471.991L253.093 469.533L255.196 467.021C256.64 465.379 257.945 463.624 259.357 461.952C262.096 458.537 264.715 455.031 267.405 451.555C266.285 453.444 265.101 455.295 263.936 457.159C262.684 458.963 261.463 460.792 260.173 462.573C257.584 466.129 254.852 469.584 251.925 472.874C248.987 476.152 245.933 479.337 242.628 482.253C239.32 485.153 235.881 487.956 232.039 490.11Z" fill="#361E40"/>
<path d="M118.615 509.508C118.615 509.508 67.068 480.404 62.724 437.835C62.724 413.443 76.624 414.288 68.8053 377.409C60.9867 340.531 60.1173 301.751 75.7547 296.381C91.3933 291.011 100.949 339.072 110.507 335.457C120.063 331.844 139.161 335.775 147.212 370.069C155.264 404.364 167.556 522.973 118.615 509.508Z" fill="#3CC0E7"/>
<path d="M75.7547 296.381C78.2693 305.269 80.916 314.12 83.676 322.932C86.4 331.755 89.224 340.547 92.2613 349.261C95.332 357.961 98.4587 366.655 102.263 375.033L105.145 381.339C106.115 383.444 106.969 385.596 107.887 387.724L110.427 394.188L112.796 400.715C115.812 409.467 118.431 418.348 120.759 427.301C123.093 436.252 125.123 445.287 126.732 454.395C128.413 463.489 129.696 472.655 130.684 481.847C131.692 491.037 132.133 500.279 132.444 509.508C131.916 500.286 131.257 491.072 130.036 481.919C128.916 472.76 127.524 463.632 125.723 454.584C124.891 450.047 123.847 445.552 122.897 441.04C121.829 436.553 120.796 432.059 119.584 427.608C117.227 418.695 114.573 409.856 111.537 401.152L109.208 394.644L106.708 388.201C105.805 386.084 104.965 383.937 104.012 381.844L101.161 375.535C97.38 367.065 94.2213 358.361 91.2947 349.592C85.444 332.051 80.368 314.272 75.7547 296.381Z" fill="#36A1C1"/>
<path d="M63.7426 342.433L72.188 349.663C75.02 352.045 77.8306 354.444 80.6946 356.773C83.5466 359.119 86.4706 361.365 89.4426 363.543L91.7053 365.128L94.0467 366.587C94.824 367.083 95.6507 367.477 96.4573 367.931C97.276 368.352 98.1507 368.639 99.004 369.024C95.34 368.26 92.0053 366.368 88.8693 364.393C85.7227 362.391 82.744 360.144 79.8533 357.805C76.9893 355.435 74.184 352.995 71.504 350.42C68.82 347.855 66.1946 345.227 63.7426 342.433Z" fill="#36A1C1"/>
<path d="M91.8213 349.577L92.156 345.127L92.5493 340.692L93.3333 331.835L94.108 322.981L94.8147 314.1C95.1027 317.069 95.1733 320.052 95.1333 323.031C95.0987 326.012 94.92 328.987 94.6613 331.953C94.376 334.917 94.0453 337.877 93.5613 340.815C93.092 343.755 92.5627 346.687 91.8213 349.577Z" fill="#36A1C1"/>
<path d="M108.737 389.319C109.76 387.204 110.737 385.076 111.631 382.909C112.551 380.756 113.419 378.584 114.227 376.391C115.847 372.005 117.305 367.564 118.52 363.057C119.191 360.82 119.671 358.535 120.239 356.271C120.691 353.983 121.224 351.705 121.583 349.399C121.773 348.247 121.993 347.096 122.16 345.94L122.583 342.459C122.951 340.14 122.989 337.797 123.271 335.457C123.393 340.149 123.261 344.88 122.597 349.551C122.385 351.904 121.853 354.205 121.473 356.535C120.939 358.832 120.461 361.144 119.804 363.412C118.545 367.956 117.036 372.436 115.176 376.767C113.336 381.103 111.267 385.352 108.737 389.319Z" fill="#36A1C1"/>
<path d="M70.9893 401.567C72.8773 402.869 74.7653 404.157 76.704 405.371C78.6187 406.62 80.56 407.821 82.5213 408.991C86.4467 411.319 90.4293 413.543 94.4973 415.597C98.5427 417.7 102.701 419.569 106.909 421.324L110.079 422.616L113.3 423.771C115.421 424.639 117.639 425.191 119.8 425.977C115.312 425.063 110.845 423.899 106.54 422.281C102.208 420.736 97.9867 418.88 93.8933 416.785C89.804 414.683 85.8 412.408 81.9773 409.856C78.1493 407.319 74.424 404.611 70.9893 401.567Z" fill="#36A1C1"/>
<path d="M125.852 452.392C126.944 449.601 128.049 446.821 129.095 444.016C130.173 441.225 131.245 438.432 132.272 435.623C134.348 430.012 136.452 424.415 138.4 418.757C140.436 413.135 142.379 407.476 144.293 401.809L150.037 384.792C149.327 387.701 148.561 390.599 147.785 393.493C146.957 396.372 146.147 399.257 145.269 402.124C143.553 407.867 141.596 413.533 139.656 419.204C137.597 424.835 135.507 430.453 133.223 435.995C130.932 441.532 128.551 447.037 125.852 452.392Z" fill="#36A1C1"/>
<path d="M69.896 461.031C72.3147 462.399 74.72 463.779 77.1627 465.091C79.5853 466.44 82.02 467.764 84.4747 469.047C89.3787 471.623 94.2987 474.167 99.3413 476.438C104.337 478.805 109.452 480.921 114.672 482.714C117.281 483.607 119.929 484.393 122.624 484.988C125.309 485.625 128.056 486.007 130.835 486.029C125.259 486.532 119.689 485.237 114.359 483.691C109.012 482.081 103.855 479.934 98.7813 477.647C93.752 475.257 88.7987 472.719 83.9827 469.94C79.1693 467.159 74.4333 464.241 69.896 461.031Z" fill="#36A1C1"/>
<path d="M193.823 503.208C193.823 503.208 202.363 501.772 225.173 486.085C247.984 470.4 248.824 461.605 245.633 457.271C242.444 452.936 229.048 460.319 222.92 462.195C216.793 464.071 219.079 452.916 227.921 448.372C236.764 443.831 250.773 435.092 251.349 427.436C251.925 419.78 236.857 424.112 236.917 419.897C236.977 415.683 247.432 405.556 255.223 401.669C263.016 397.781 269.899 382.3 267.589 371.577C265.281 360.856 266.485 336.267 271.611 329.665C271.611 329.665 253.409 329.341 242.632 344.82C231.853 360.3 232.984 368.352 222.521 373.417C212.06 378.483 199.764 379.828 195.603 384.856C191.441 389.884 194.971 405.683 193.084 411.237C191.197 416.792 185.42 418.449 181.752 411.008C178.084 403.567 171.527 396.953 168.197 400.975C164.868 404.997 175.256 432.573 174.68 440.229C174.104 447.885 160.879 444.459 160.837 450.323C160.796 456.187 173.919 490.324 193.823 503.208Z" fill="#CCB0DD"/>
<path d="M193.823 503.208C193.863 495.107 194.497 487.02 195.519 478.997C196.508 470.972 198.021 463.007 200.243 455.251C200.763 453.3 201.416 451.393 202.075 449.489C202.671 447.563 203.504 445.727 204.224 443.849C204.984 441.984 205.881 440.172 206.705 438.332C207.621 436.533 208.487 434.711 209.441 432.932C213.22 425.796 217.469 418.912 221.944 412.177C226.389 405.419 231.091 398.831 235.6 392.079C237.816 388.692 240.055 385.232 241.667 381.465C243.333 377.747 244.784 373.965 246.295 370.209C249.287 362.689 252.449 355.235 256.293 348.125C258.265 344.605 260.337 341.125 262.831 337.941C265.345 334.795 268.176 331.847 271.611 329.665C268.123 331.757 265.197 334.645 262.589 337.748C260 340.885 257.827 344.331 255.752 347.823C251.773 354.909 248.499 362.357 245.393 369.84C243.82 373.573 242.321 377.34 240.668 381.013C239.071 384.7 236.868 388.067 234.639 391.44C230.121 398.139 225.376 404.719 220.889 411.479C216.429 418.256 212.192 425.196 208.421 432.397C204.633 439.571 201.376 447.109 199.308 454.988C195.084 470.708 193.616 487.024 193.823 503.208Z" fill="#52399C"/>
<path d="M267.528 381.456C263.665 382.627 259.905 384.116 256.201 385.724C252.492 387.325 248.88 389.147 245.333 391.088C241.799 393.049 238.367 395.204 235.072 397.551C231.783 399.908 228.659 402.496 225.795 405.34C227.437 404.159 228.965 402.855 230.651 401.751C232.26 400.552 233.944 399.457 235.62 398.357C239.015 396.22 242.427 394.116 245.949 392.195C249.452 390.241 253.02 388.405 256.611 386.603C258.408 385.704 260.219 384.832 262.044 383.989C263.852 383.101 265.693 382.295 267.528 381.456Z" fill="#52399C"/>
<path d="M232.324 395.885C231.817 391.035 231.233 386.241 230.805 381.429C230.584 379.027 230.431 376.62 230.292 374.209C230.203 371.799 230.135 369.387 230.163 366.944C229.107 371.727 229.139 376.689 229.543 381.541C230.016 386.4 230.84 391.231 232.324 395.885Z" fill="#52399C"/>
<path d="M251.349 427.436C248.923 428.224 246.561 429.192 244.195 430.143C241.852 431.149 239.524 432.195 237.22 433.292C232.613 435.489 228.124 437.927 223.709 440.491C219.343 443.135 215.015 445.849 210.88 448.845C208.796 450.316 206.775 451.875 204.757 453.435C202.756 455.016 200.823 456.683 198.893 458.344C203.057 455.403 207.167 452.412 211.432 449.647C215.66 446.833 219.959 444.125 224.352 441.581C228.689 438.94 233.163 436.532 237.655 434.159C242.152 431.796 246.708 429.539 251.349 427.436Z" fill="#52399C"/>
<path d="M200.941 451.159C199.111 449.409 197.335 447.615 195.639 445.745L193.099 442.944L190.651 440.063C187.428 436.193 184.392 432.167 181.656 427.945C180.212 425.884 178.948 423.708 177.631 421.567C176.439 419.355 175.16 417.181 174.083 414.909C173.528 413.779 172.951 412.657 172.416 411.519L170.937 408.04C170.688 407.463 170.416 406.891 170.183 406.305L169.531 404.528C169.1 403.343 168.655 402.159 168.197 400.975C169.472 405.867 171.021 410.733 173.201 415.328L173.971 417.075L174.848 418.765L176.629 422.137C177.928 424.321 179.169 426.544 180.601 428.645C183.455 432.852 186.507 436.929 189.917 440.696C193.312 444.469 196.94 448.048 200.941 451.159Z" fill="#52399C"/>
<path d="M245.633 457.271C241.1 459.244 236.659 461.408 232.245 463.627C227.829 465.844 223.492 468.21 219.16 470.588C214.876 473.05 210.595 475.526 206.444 478.217C202.3 480.912 198.191 483.693 194.431 486.912C195.465 486.233 196.492 485.548 197.507 484.852L200.636 482.88C202.727 481.576 204.819 480.274 206.956 479.047C211.195 476.537 215.457 474.062 219.78 471.692C224.051 469.228 228.388 466.881 232.699 464.484L239.175 460.9L245.633 457.271Z" fill="#52399C"/>
<path d="M195.028 480.521C193.483 479.368 191.945 478.217 190.463 476.996C188.952 475.812 187.465 474.598 186.028 473.333C183.147 470.809 180.299 468.252 177.677 465.475C175.049 462.709 172.556 459.816 170.357 456.701C169.788 455.936 169.321 455.105 168.796 454.308C168.545 453.904 168.275 453.508 168.037 453.095L167.384 451.824C166.961 450.972 166.407 450.168 166.097 449.261C165.745 448.373 165.376 447.487 164.995 446.596C165.847 450.368 167.517 453.928 169.545 457.24C171.596 460.547 174.116 463.525 176.764 466.352C179.448 469.151 182.359 471.717 185.413 474.084C188.473 476.443 191.644 478.664 195.028 480.521Z" fill="#52399C"/>
<path d="M583.044 511.773C583.044 511.773 527.139 503.888 520.639 480.917C514.137 457.949 526.704 461.417 522.371 450.148C518.037 438.88 486.833 406.809 495.068 389.475C503.303 372.139 520.639 392.508 525.839 404.209C531.039 415.912 541.44 423.279 546.64 416.344C551.841 409.411 573.944 414.177 580.877 444.948C587.811 475.717 583.044 511.773 583.044 511.773Z" fill="#3CC0E7"/>
<path d="M495.068 389.475C503.505 398.821 511.733 408.353 519.859 417.972C527.971 427.604 535.905 437.387 543.616 447.356C547.393 452.401 551.195 457.431 554.616 462.756C558.011 468.071 561.32 473.426 564.513 478.857C570.927 489.696 577.136 500.653 583.044 511.773L573.409 495.533C570.192 490.126 566.943 484.738 563.637 479.385C560.311 474.047 557.035 468.676 553.599 463.415C550.183 458.165 546.352 453.169 542.56 448.161C534.955 438.148 527.012 428.387 519.075 418.623L507.089 404.036L495.068 389.475Z" fill="#36A1C1"/>
<path d="M520.639 480.917C524.669 480.317 528.745 480.084 532.82 479.997C536.899 479.91 540.983 480.064 545.052 480.426C549.116 480.849 553.172 481.434 557.144 482.428C561.104 483.452 565.005 484.776 568.605 486.695C566.663 486.059 564.792 485.3 562.811 484.84C560.887 484.227 558.889 483.864 556.923 483.428C552.953 482.683 548.951 482.139 544.928 481.751C540.905 481.359 536.861 481.172 532.813 481.016C530.789 480.936 528.761 480.907 526.733 480.908C524.703 480.861 522.675 480.9 520.639 480.917Z" fill="#36A1C1"/>
<path d="M506.476 425.893C510.784 425.988 515.037 426.697 519.213 427.716C523.361 428.792 527.521 430.191 531.137 432.565C527.08 431.149 523.015 430.041 518.889 429.007C514.771 427.957 510.628 427.024 506.476 425.893Z" fill="#36A1C1"/>
<path d="M539.167 418.643C540.864 423.661 542.048 428.813 543.024 434.004C543.943 439.199 544.656 444.464 544.621 449.765C543.609 444.572 542.668 439.417 541.716 434.243C540.787 429.067 539.845 423.893 539.167 418.643Z" fill="#36A1C1"/>
<path d="M563.975 417.044C565.7 423.639 567.132 430.304 568.453 436.987C569.773 443.673 570.865 450.403 571.917 457.139C572.848 463.891 573.689 470.659 574.287 477.45C574.841 484.248 575.195 491.064 575.143 497.877C574.841 494.481 574.68 491.084 574.299 487.701C574.032 484.31 573.631 480.932 573.268 477.552C572.461 470.802 571.635 464.052 570.601 457.329C569.664 450.593 568.553 443.883 567.452 437.169C566.905 433.811 566.331 430.457 565.736 427.107L563.975 417.044Z" fill="#36A1C1"/>
<path d="M231.816 237.763C231.816 237.763 258.388 288.203 231.743 356.307C205.096 424.412 188.501 425.939 183.921 445.175C179.341 464.411 167.477 481.285 155.156 474.22C142.833 467.155 136.472 309.305 231.816 237.763Z" fill="#EE1F6B"/>
<path d="M155.156 474.22C158.196 453.595 162.425 433.179 168.468 413.281C169.22 410.795 169.991 408.311 170.851 405.859L172.112 402.167L173.497 398.519C173.967 397.305 174.409 396.083 174.9 394.876L176.44 391.284C177.444 388.876 178.539 386.52 179.612 384.152C183.909 374.681 188.12 365.177 192.219 355.628C200.495 336.561 208.227 317.277 215.221 297.735C218.644 287.94 221.956 278.101 224.779 268.113C227.619 258.135 230.141 248.049 231.816 237.763C230.355 248.092 228.04 258.244 225.405 268.296C222.709 278.335 219.5 288.22 216.192 298.067C209.391 317.701 201.639 337.003 193.453 356.12C189.315 365.661 185.065 375.157 180.729 384.617C179.647 386.981 178.54 389.34 177.533 391.725L175.989 395.293C175.496 396.491 175.049 397.708 174.577 398.915L173.184 402.543L171.904 406.213C171.019 408.649 170.22 411.116 169.441 413.588C166.297 423.472 163.659 433.517 161.308 443.636C158.948 453.752 156.859 463.944 155.156 474.22Z" fill="#B9235D"/>
<path d="M183.921 445.175C181.831 441.641 180.152 437.963 178.673 434.245C177.189 430.525 176.024 426.737 175.073 422.929C174.127 419.121 173.5 415.276 173.208 411.444C172.859 407.609 173.028 403.796 173.491 400.063C173.604 401.976 173.46 403.855 173.687 405.763L173.871 408.608L174.216 411.456C174.74 415.248 175.391 419.037 176.359 422.804C177.265 426.575 178.385 430.324 179.631 434.059C180.264 435.923 180.932 437.784 181.661 439.633C182.347 441.493 183.127 443.332 183.921 445.175Z" fill="#B9235D"/>
<path d="M183.281 377.533C181.267 378.404 179.363 379.417 177.541 380.523C176.632 381.077 175.711 381.615 174.847 382.217C173.956 382.792 173.099 383.4 172.269 384.036C168.916 386.54 165.805 389.273 162.971 392.22C161.619 393.74 160.171 395.196 158.961 396.813C158.332 397.607 157.676 398.384 157.067 399.191L155.316 401.656L154.429 402.885L153.635 404.165L152.045 406.731C150.993 408.447 150.117 410.249 149.084 411.988C149.837 410.135 150.599 408.271 151.457 406.451L152.889 403.783L153.611 402.449L154.425 401.163L156.075 398.597C156.665 397.765 157.301 396.961 157.913 396.14C159.109 394.48 160.569 392.993 161.925 391.439C164.829 388.467 168.024 385.705 171.591 383.333C175.152 380.972 178.997 378.861 183.281 377.533Z" fill="#B9235D"/>
<path d="M218.251 387.285C214.975 383.503 212.257 379.387 209.896 375.161C207.531 370.931 205.677 366.528 204.16 362.075C203.387 359.845 202.889 357.581 202.324 355.327C202.093 354.195 201.92 353.059 201.717 351.925C201.623 351.36 201.511 350.793 201.432 350.225L201.303 348.524C200.771 343.977 201.148 339.477 201.825 335.096C201.807 336.22 201.777 337.339 201.732 338.453L201.673 340.124C201.668 340.681 201.728 341.247 201.753 341.805L201.896 345.164C202 346.284 202.173 347.408 202.308 348.527L202.525 350.204L202.841 351.881C203.061 352.997 203.252 354.116 203.497 355.229C204.093 357.449 204.624 359.676 205.42 361.867C206.813 366.277 208.657 370.616 210.804 374.864L212.469 378.035C213.075 379.076 213.653 380.127 214.281 381.159C215.493 383.244 216.831 385.28 218.251 387.285Z" fill="#B9235D"/>
<path d="M214.016 303.619C212.095 303.964 210.176 304.297 208.284 304.704C206.38 305.071 204.485 305.465 202.613 305.909C198.869 306.792 195.137 307.695 191.513 308.817C187.888 309.928 184.324 311.163 180.909 312.636C180.043 312.984 179.237 313.419 178.396 313.807L177.148 314.409L175.964 315.091C175.183 315.553 174.313 315.929 173.597 316.469C172.856 316.981 172.103 317.485 171.335 317.984C173.892 315.517 177.037 313.543 180.363 311.852C183.705 310.168 187.312 308.883 190.972 307.735C194.655 306.627 198.441 305.741 202.291 305.056C206.141 304.376 210.043 303.828 214.016 303.619Z" fill="#B9235D"/>
<path d="M243.253 304.704C240.729 302.433 239.805 301.46 237.727 298.885C235.643 296.311 233.769 293.624 232 290.896C230.296 288.141 228.636 285.365 227.252 282.501C226.521 281.084 225.895 279.632 225.224 278.197C224.62 276.745 224.035 275.288 223.496 273.823C225.068 276.624 226.545 279.435 228.161 282.197C229.748 284.972 231.421 287.705 233.135 290.423C234.859 293.139 236.681 295.807 238.551 298.459C239.48 299.788 240.455 301.095 241.457 302.389C242.431 303.701 242.196 303.429 243.253 304.704Z" fill="#B9235D"/>
<path d="M149.715 280.86C149.715 280.86 150.115 303.544 152.741 311.907C155.368 320.268 168.064 331.957 173.979 332.36C179.893 332.761 187.376 327.137 194.18 320.596C200.985 314.057 201.177 312.005 202.427 302.716C203.675 293.425 203.808 278.724 203.808 278.724C203.808 278.724 192.115 285.348 185.349 268.184C185.349 268.184 181.024 276.048 166.847 275.276C152.669 274.504 149.715 280.86 149.715 280.86Z" fill="#CC7484"/>
<path d="M149.715 280.86C149.715 280.86 152.669 274.504 166.847 275.276C181.024 276.048 185.349 268.184 185.349 268.184C192.115 285.348 203.808 278.724 203.808 278.724C203.808 278.724 203.713 289.207 202.932 298.063C211.129 285.969 211.185 276.045 208.707 266.691C206.228 257.335 197.251 255.664 193.953 255.985C190.655 256.307 189.628 255.82 178.783 249.043C167.937 242.265 154.347 247.508 147.849 255.192C141.351 262.877 130.637 265.488 133.244 278.16C135.851 290.833 145.328 293.619 145.328 293.619C145.328 293.619 147.244 294.259 150.376 295.195C149.836 287.665 149.715 280.86 149.715 280.86Z" fill="#453890"/>
<path d="M173.979 332.36C172.117 332.233 169.584 330.987 166.905 329.081L166.996 341.096C166.996 341.096 169.543 348.461 175.852 348.891C182.161 349.32 185.727 340.355 185.727 340.355L184.575 328.537C180.821 331.028 177.171 332.577 173.979 332.36Z" fill="#A65C6B"/>
<path d="M225.869 363.841C223.177 357.12 185.669 339.769 185.669 339.769C185.669 339.769 182.359 348.845 175.331 348.344C169.397 347.919 166.989 340.148 166.989 340.148C166.989 340.148 137.821 347.111 131.009 351.849C124.197 356.585 111.976 392.403 109.319 406.919C106.66 421.435 105.388 435.235 123.973 434.877L116.625 469.928C116.625 469.928 144.091 480.052 174.903 476.757C205.715 473.462 219.212 468.655 219.212 468.655L215.503 430.609C215.503 430.609 226.821 433.288 232.108 427.827C237.395 422.364 228.561 370.561 225.869 363.841Z" fill="#54389C"/>
<path d="M129.916 409.275C129.916 409.275 138.148 401.197 143.857 400.06C149.565 398.921 162.439 400.991 162.439 400.991C162.439 400.991 157.965 407.485 156.615 414.528C156.615 414.528 148.028 412.027 141.376 410.996C135.065 410.02 129.916 409.275 129.916 409.275Z" fill="#CC7484"/>
<path d="M116.625 469.928C116.625 469.928 109.084 507.471 108.681 530.204L224.116 518.951C224.116 518.951 222.485 502.233 219.212 468.655C219.212 468.655 205.715 473.463 174.903 476.757C144.091 480.052 116.625 469.928 116.625 469.928Z" fill="#361E40"/>
<path d="M150.153 291.771V291.769C150.153 291.769 146.835 286.981 143.448 292.424C140.061 297.865 145.456 309.932 152.113 309.451C151.095 304.691 150.497 297.668 150.153 291.771Z" fill="#CC7484"/>
<path d="M207.716 289.8C206.012 287.973 204.623 287.679 203.556 287.988C203.36 292.684 203.019 298.308 202.427 302.716C202.136 304.872 201.901 306.629 201.629 308.152C201.897 308.199 202.183 308.219 202.503 308.179C209.128 307.365 212.091 294.484 207.716 289.8Z" fill="#CC7484"/>
<path d="M166.957 335.979L166.996 341.096C166.996 341.096 169.543 348.461 175.852 348.891C182.161 349.32 185.727 340.355 185.727 340.355L185.204 335C185.204 335 175.537 341.588 166.957 335.979Z" fill="#CC7484"/>
<path d="M129.916 409.275C129.916 409.275 133.341 393.028 134.46 385.061C135.58 377.096 135.58 377.096 135.58 377.096L126.429 409.324L129.916 409.275Z" fill="#483397"/>
<path d="M129.916 409.275C129.916 409.275 135.033 410.036 141.376 410.996C147.72 411.956 156.615 414.528 156.615 414.528C156.615 414.528 175.496 420.923 184.292 423.848C193.088 426.773 215.503 430.609 215.503 430.609L216.175 437.033C216.175 437.033 184.223 429.383 173.191 424.639C162.157 419.896 143.944 413.639 129.916 409.275Z" fill="#483397"/>
<path d="M161.185 403.08C161.185 403.08 162.271 399.973 163.771 400.444C165.271 400.913 202.652 406.984 210.547 407.388L209.573 384.739C209.573 384.739 212.564 407.2 212.575 408.8C212.575 408.8 199.497 407.479 190.193 406.047C180.888 404.615 161.185 403.08 161.185 403.08Z" fill="#483397"/>
<path d="M123.973 434.877C123.973 434.877 167.944 429.516 181.025 426.276C181.025 426.276 134.917 440.449 119.584 456.637L123.973 434.877Z" fill="#483397"/>
<path d="M168.848 524.339C168.848 524.339 169.196 506.74 178.915 500.616C178.915 500.616 173.527 508.591 174.412 523.797L168.848 524.339Z" fill="#1F1622"/>
<path d="M580.727 250.199C580.727 250.199 558.275 251.625 553.865 269.559C549.457 287.492 553.256 303.643 550.172 310.649C547.085 317.655 537.379 343.491 555.217 362.281C573.056 381.071 620.696 372.748 623.557 346.337C626.419 319.927 617.564 319.481 615.737 298.665C613.911 277.849 617.828 249.103 580.727 250.199Z" fill="#361E40"/>
<path d="M559.204 286.117C559.204 286.117 558.985 302.524 560.481 306.211C561.976 309.9 571.416 327.457 580.708 326.867C590.003 326.276 603.121 312.029 604.695 307.437C606.284 302.795 607.58 289.348 607.58 289.348C607.58 289.348 588.411 282.244 581.764 266.525C581.764 266.525 569.3 286.232 559.204 286.117Z" fill="#FBC7CC"/>
<path d="M559.204 286.117C559.336 286.119 559.468 286.103 559.599 286.097C558.525 285.161 556.395 283.729 554.507 285.031C551.861 286.856 552.275 305.095 560.156 305.088C559.021 299.995 559.204 286.117 559.204 286.117Z" fill="#FBC7CC"/>
<path d="M613.297 292.009C611.128 289.623 607.255 292.392 607.255 292.392C606.773 296.64 605.805 304.191 604.695 307.437C604.445 308.161 603.909 309.128 603.145 310.243C610.875 312.204 615.467 294.396 613.297 292.009Z" fill="#FBC7CC"/>
<path d="M590.707 322.584C587.328 324.952 583.805 326.671 580.708 326.867C577.732 327.056 574.741 325.379 571.999 322.895L571.621 336.649L568.417 336.853C568.417 336.853 571.595 357.08 576.436 358.852C581.277 360.625 592.432 339.716 592.432 339.716L589.484 337.973L590.707 322.584Z" fill="#FBC7CC"/>
<path d="M645.239 424.817C640.077 412.087 636.408 374.888 631.791 363.864C627.172 352.841 605.781 340.871 592.432 339.716C592.432 339.716 581.093 360.293 576.436 358.852C571.824 357.424 568.492 336.981 568.492 336.981C568.492 336.981 546.141 339.148 541.827 342.604C537.513 346.06 504.897 389.917 504.897 389.917C504.897 389.917 480.567 390.592 468.556 393.387C462.289 395.236 462.289 395.236 462.289 395.236C462.289 395.236 460.676 406.365 463.3 411.132C463.3 411.132 499.645 412.305 508.531 410.58C517.417 408.855 540.6 380.949 540.6 380.949C540.6 380.949 539.345 393.243 545.335 400.696C551.324 408.151 546.719 427.015 544.233 433.556C541.747 440.097 538.293 454.247 538.293 454.247C538.293 454.247 575.292 474.819 615.091 461.844C615.091 461.844 606.723 439.743 606.943 424.929C607.163 410.116 607.52 406.612 612.928 395.821C612.928 395.821 621.065 421.131 625.709 432.587C630.356 444.044 637.521 481.457 640.121 481.292C642.723 481.126 656.264 475.043 656.264 475.043C656.264 475.043 650.4 437.547 645.239 424.817Z" fill="#453890"/>
<path d="M538.293 454.247C538.293 454.247 529.375 478.316 528.304 516.252L628.012 509.917C628.012 509.917 627.139 477.909 615.091 461.844C575.292 474.819 538.293 454.247 538.293 454.247Z" fill="#331E3C"/>
<path d="M640.121 481.292C640.121 481.292 638.581 484.436 639.22 487.66C639.861 490.884 641.519 498.614 640.101 502.621C638.685 506.628 639.896 511.992 642.091 512.288C644.287 512.584 644.287 512.584 644.287 512.584C644.287 512.584 643.109 519.188 642.701 522.477C642.295 525.768 643.207 529.845 646.823 528.528C650.439 527.209 653.528 514.173 655.973 508.14C658.419 502.109 658.388 498.195 657.339 491.949C656.289 485.704 652.116 476.86 652.116 476.86L640.121 481.292Z" fill="#FBC7CC"/>
<path d="M462.289 395.236C462.289 395.236 455.953 394.841 452.66 394.397C449.367 393.953 444.771 390.111 441.599 388.136C438.425 386.161 431.703 383.107 429.795 383.88C427.884 384.655 426.532 387.352 430.152 389.516C433.771 391.68 437.391 393.844 437.391 393.844C437.391 393.844 429.224 392.033 421.979 391.047C414.735 390.06 411.789 391.455 412.843 394.532C413.644 396.876 430.555 399.284 431.029 399.907C431.504 400.528 431.061 403.821 429.327 403.932C427.592 404.041 413.572 406.021 411.879 406.781C410.187 407.541 410.163 410.589 412.169 411.333C414.175 412.077 430.145 409.973 431.528 411.192C432.913 412.411 431.789 415.277 425.992 416.532C420.196 417.788 417.013 419.061 418.94 421.995C420.867 424.927 435.631 420.943 438.812 419.652C441.996 418.361 448.781 418.985 452.653 414.839C456.525 410.692 462.12 408.812 462.12 408.812C462.12 408.812 460.855 400.043 462.289 395.236Z" fill="#FBC7CC"/>
<path d="M437.391 393.844C438.447 396.996 439.839 399.968 442.008 402.239C443.059 403.403 444.381 404.267 445.813 404.908C447.247 405.609 448.851 405.837 450.505 406.14C448.869 406.393 447.101 406.459 445.453 405.884C443.795 405.389 442.236 404.44 441.047 403.161C439.853 401.889 438.937 400.391 438.335 398.796C437.735 397.203 437.364 395.527 437.391 393.844Z" fill="#F395A2"/>
<path d="M644.287 512.584C644.781 511.165 645.083 509.726 645.431 508.296L646.389 503.983C647.025 501.097 647.731 498.192 648.853 495.391C648.764 498.414 648.296 501.34 647.691 504.271C647.352 505.732 646.959 507.185 646.423 508.596C645.881 509.995 645.273 511.417 644.287 512.584Z" fill="#F395A2"/>
<path d="M610.037 402.089C610.037 402.089 606.737 414.052 588.065 411.32C569.393 408.589 562.661 409.417 562.661 409.417C562.661 409.417 578.425 410.925 586.583 413.959C594.737 416.991 602.571 418.199 607.684 410.709C607.684 410.709 608.537 405.02 610.037 402.089Z" fill="#361E40"/>
<path d="M540.6 380.949C540.6 380.949 541.835 369.861 543.8 362.555L533.027 389.615L540.6 380.949Z" fill="#361E40"/>
<path d="M612.928 395.821C612.928 395.821 610.669 385.043 611.797 378.023C611.797 378.023 610.563 394.516 608.871 405.363L612.928 395.821Z" fill="#361E40"/>
<path d="M615.091 461.844C593.557 468.864 572.856 466.061 558.379 462.012C558.379 462.012 583.58 470.886 602.219 476.516C620.859 482.143 628.012 509.917 628.012 509.917C628.012 509.917 627.139 477.909 615.091 461.844Z" fill="#221726"/>
<path d="M579.676 512.989C579.676 512.989 577.991 498.438 570.949 494.277C570.949 494.277 575.208 502.74 575.921 513.228L579.676 512.989Z" fill="#221726"/>
<path d="M590.177 329.251L590.707 322.584C587.328 324.952 583.805 326.671 580.708 326.867C577.732 327.056 574.741 325.379 571.999 322.895L571.865 327.717C574.104 329.216 579.687 331.647 590.177 329.251Z" fill="#E0A8AE"/>
<path d="M0.407867 532.293C0.407867 532.293 14.896 486.876 55.5 476.129C96.1053 465.38 107.957 496.656 142.555 495.168C177.152 493.679 201.961 518.867 223.944 512.352C245.929 505.836 264.689 483.103 308.736 482.741C352.783 482.379 363.543 501.449 388.673 512.352C413.805 523.253 454.744 516.304 479.215 506.725C503.685 497.148 507.22 490.197 527.068 494.107C546.917 498.017 608.092 500.46 637.865 488.812C667.639 477.165 706.024 488.208 724.736 512.352C740.193 532.293 751.653 532.293 751.653 532.293H0.407867Z" fill="#9E85CA"/>
</svg>
