<svg width="752" height="428" viewBox="0 0 752 428" fill="none" xmlns="http://www.w3.org/2000/svg">
<g clip-path="url(#clip0_4_102)">
<path d="M604.348 340.416H152.835C142.801 340.416 134.667 332.282 134.667 322.248V29.168C134.667 19.134 142.801 11 152.835 11H604.348C614.384 11 622.516 19.134 622.516 29.168V322.248C622.516 332.282 614.384 340.416 604.348 340.416Z" fill="#CCB0DD"/>
<path d="M134.667 323.897C134.667 333.02 149.401 340.416 167.576 340.416H589.608C607.784 340.416 622.516 333.02 622.516 323.897V35.905H134.667V323.897Z" fill="#EBE4F4"/>
<path d="M158.08 23.9021C158.08 25.9381 156.429 27.5891 154.395 27.5891C152.359 27.5891 150.707 25.9381 150.707 23.9021C150.707 21.8661 152.359 20.2161 154.395 20.2161C156.429 20.2161 158.08 21.8661 158.08 23.9021Z" fill="#5C49A8"/>
<path d="M168.919 23.9021C168.919 25.9381 167.267 27.5891 165.231 27.5891C163.196 27.5891 161.544 25.9381 161.544 23.9021C161.544 21.8661 163.196 20.2161 165.231 20.2161C167.267 20.2161 168.919 21.8661 168.919 23.9021Z" fill="#5C49A8"/>
<path d="M179.587 23.9021C179.587 25.9381 177.936 27.5891 175.899 27.5891C173.864 27.5891 172.213 25.9381 172.213 23.9021C172.213 21.8661 173.864 20.2161 175.899 20.2161C177.936 20.2161 179.587 21.8661 179.587 23.9021Z" fill="#5C49A8"/>
<path d="M575.329 383.254C575.329 383.254 525.597 345.361 511.901 259.46C498.207 173.56 511.576 162.745 505.189 140.12C498.801 117.494 499.907 93.288 514.227 93.816C528.544 94.345 618.525 255.597 575.329 383.254Z" fill="#EE1F6B"/>
<path d="M514.227 93.816C522.673 117.037 529.992 140.7 535.483 164.828C536.173 167.844 536.843 170.862 537.421 173.902L538.32 178.456L539.089 183.034C539.339 184.562 539.615 186.085 539.841 187.617L540.451 192.222C540.88 195.293 541.205 198.361 541.556 201.429C542.955 213.704 544.447 225.965 546.057 238.212C549.192 262.713 552.909 287.14 557.397 311.428C559.716 323.556 562.153 335.665 565.089 347.661C568.008 359.656 571.252 371.585 575.329 383.254C571.048 371.659 567.589 359.777 564.456 347.818C561.387 335.84 558.835 323.738 556.391 311.621C551.688 287.344 547.977 262.889 544.736 238.384C543.164 226.124 541.712 213.848 540.352 201.565C540.011 198.494 539.695 195.417 539.279 192.369L538.687 187.786C538.467 186.261 538.197 184.742 537.953 183.221L537.203 178.658L536.331 174.116C535.784 171.08 535.144 168.062 534.487 165.048C531.88 152.985 528.756 141.032 525.345 129.162C521.947 117.29 518.275 105.489 514.227 93.816Z" fill="#B9235D"/>
<path d="M505.189 140.12C508.869 142.645 512.275 145.554 515.529 148.614C518.791 151.672 521.816 154.978 524.668 158.426C527.517 161.876 530.113 165.542 532.413 169.38C534.767 173.188 536.665 177.264 538.268 181.418C537.145 179.484 536.264 177.444 535.048 175.576L533.367 172.709L531.547 169.928C529.067 166.261 526.48 162.665 523.637 159.27C520.843 155.84 517.876 152.545 514.812 149.34C513.271 147.745 511.703 146.174 510.089 144.649C508.508 143.088 506.855 141.601 505.189 140.12Z" fill="#B9235D"/>
<path d="M541.964 210.377C543.22 208.349 544.305 206.234 545.272 204.069C545.752 202.985 546.251 201.91 546.667 200.8C547.12 199.708 547.528 198.596 547.896 197.47C549.421 192.993 550.619 188.412 551.463 183.761C551.804 181.424 552.261 179.098 552.431 176.737C552.544 175.561 552.687 174.385 552.777 173.205L552.953 169.657L553.053 167.882L553.047 166.104L553.032 162.542C553.012 160.168 552.795 157.798 552.747 155.408C553.096 157.764 553.444 160.13 553.684 162.509L553.889 166.089L553.987 167.882L553.979 169.678L553.944 173.272C553.884 174.468 553.771 175.662 553.687 176.858C553.553 179.256 553.101 181.62 552.775 183.996C551.885 188.712 550.631 193.369 548.852 197.826C547.072 202.27 544.917 206.612 541.964 210.377Z" fill="#B9235D"/>
<path d="M506.845 219.625C511.672 221.754 516.199 224.541 520.481 227.641C524.769 230.742 528.712 234.31 532.395 238.117C534.249 240.013 535.888 242.101 537.579 244.14C538.381 245.193 539.137 246.284 539.919 247.352C540.303 247.893 540.701 248.421 541.072 248.969L542.095 250.676C544.984 255.125 547.072 260.032 548.84 264.981C548.252 263.798 547.679 262.614 547.12 261.426L546.277 259.649C545.983 259.065 545.628 258.509 545.307 257.937L543.388 254.512C542.697 253.4 541.948 252.324 541.232 251.23L540.149 249.598L538.981 248.024C538.195 246.981 537.433 245.918 536.627 244.893C534.928 242.906 533.283 240.877 531.428 239.032C527.876 235.202 523.975 231.697 519.864 228.454L516.741 226.069C515.668 225.321 514.609 224.545 513.52 223.816C511.367 222.313 509.133 220.93 506.845 219.625Z" fill="#B9235D"/>
<path d="M555.277 304.616C556.733 303.188 558.195 301.774 559.595 300.297C561.027 298.857 562.436 297.394 563.797 295.89C566.527 292.889 569.233 289.87 571.731 286.686C574.235 283.513 576.62 280.242 578.751 276.809C579.305 275.962 579.761 275.062 580.273 274.189L581.016 272.866L581.664 271.498C582.084 270.58 582.625 269.704 582.949 268.744C583.308 267.797 583.683 266.852 584.071 265.904C583.207 269.902 581.573 273.71 579.637 277.324C577.681 280.938 575.287 284.285 572.773 287.516C570.219 290.72 567.455 293.746 564.531 296.601C561.603 299.452 558.561 302.189 555.277 304.616Z" fill="#B9235D"/>
<path d="M527.785 318.813C531.159 319.782 534.385 321.197 537.54 322.73C540.701 324.26 543.741 326.024 546.716 327.889C549.647 329.817 552.553 331.793 555.271 334.014C556.656 335.089 557.967 336.256 559.308 337.381C560.604 338.564 561.885 339.757 563.129 340.988C560.287 338.938 557.517 336.822 554.656 334.836C551.815 332.824 548.917 330.898 545.999 329.013C543.071 327.137 540.083 325.364 537.064 323.633C535.559 322.762 534.024 321.94 532.473 321.145C530.94 320.316 529.372 319.556 527.785 318.813Z" fill="#B9235D"/>
<path d="M704.044 366.15C704.044 366.15 715.968 349.296 717.773 332.682C720.881 304.06 706.587 295.329 706.587 295.329C706.587 295.329 717.16 288.2 719.825 265.288C722.484 242.437 704.296 226.548 704.296 226.548C704.296 226.548 712.824 210.356 707.087 190.176C701.924 172.014 686.607 168.681 683.591 168.196C680.617 167.492 665.187 164.722 653.48 179.534C640.469 195.996 642.168 214.216 642.168 214.216C642.168 214.216 619.373 221.969 613.02 244.088C606.652 266.258 613.781 276.908 613.781 276.908C613.781 276.908 594.317 283.498 589.176 307.158C585.627 323.489 589.081 343.333 589.081 343.333C589.081 343.333 575.665 348.457 571.292 370.481C568.164 386.245 592.14 407.834 639.141 416.277C685.805 426.425 706.987 413.8 710.116 398.035C714.012 378.402 704.044 366.15 704.044 366.15Z" fill="#CCB0DD"/>
<path d="M678.143 195.637L673.009 223.17L667.739 250.676L656.987 305.642L645.932 360.552L640.296 387.983L634.524 415.389L639.657 387.857L644.927 360.35L655.68 305.384L666.737 250.476L672.373 223.044L678.143 195.637Z" fill="#7055B0"/>
<path d="M636.165 240.006C638.612 242.488 640.948 245.062 643.265 247.652C645.596 250.233 647.844 252.88 650.095 255.526C652.32 258.194 654.543 260.864 656.687 263.6L659.899 267.708C660.933 269.108 662.003 270.478 663.005 271.905C661.771 270.674 660.603 269.386 659.399 268.128L655.901 264.26C653.573 261.681 651.323 259.033 649.075 256.385C646.851 253.716 644.627 251.046 642.484 248.309C640.329 245.582 638.191 242.841 636.165 240.006Z" fill="#7055B0"/>
<path d="M656.133 306.52C659.664 303.069 663.288 299.73 666.929 296.406C670.56 293.072 674.259 289.817 677.957 286.562C681.677 283.33 685.4 280.101 689.189 276.949L694.877 272.226C696.805 270.686 698.704 269.116 700.659 267.608C698.903 269.344 697.091 271.013 695.308 272.717L689.864 277.722C686.233 281.056 682.535 284.312 678.835 287.566C675.113 290.794 671.392 294.025 667.601 297.177C663.821 300.338 660.025 303.484 656.133 306.52Z" fill="#7055B0"/>
<path d="M614.116 308.701C617.176 311.554 620.132 314.506 623.072 317.473C626.023 320.432 628.897 323.46 631.772 326.489C634.623 329.54 637.472 332.593 640.245 335.717L644.403 340.405C645.753 342.002 647.137 343.566 648.457 345.19C646.917 343.773 645.44 342.297 643.928 340.853L639.5 336.42C636.549 333.461 633.675 330.433 630.801 327.402C627.952 324.349 625.103 321.297 622.329 318.174C619.545 315.06 616.777 311.93 614.116 308.701Z" fill="#7055B0"/>
<path d="M640.085 387.372C643.413 385.126 646.813 383.011 650.225 380.91C653.628 378.798 657.085 376.778 660.541 374.757C664.013 372.764 667.488 370.773 671.013 368.87L676.304 366.022C678.092 365.116 679.857 364.169 681.665 363.296C680.009 364.43 678.308 365.489 676.631 366.588L671.527 369.758C668.123 371.869 664.668 373.892 661.209 375.911C657.736 377.902 654.263 379.894 650.736 381.794C647.219 383.709 643.688 385.604 640.085 387.372Z" fill="#7055B0"/>
<path d="M242.317 417.126C242.317 417.126 231.892 385.612 242.317 352.718C252.743 319.824 256.219 337.2 267.512 298.973C278.807 260.748 293.576 269.364 297.92 281.997C302.263 294.629 300.525 326.882 309.213 344.204C317.901 361.525 319.928 399.607 306.897 417.85L242.317 417.126Z" fill="#5C49A8"/>
<path d="M276.943 417.514C274.7 405.418 273.335 393.148 272.848 380.834C272.552 374.678 272.613 368.505 272.944 362.344C273.203 356.177 273.999 350.032 275.127 343.95C275.807 340.922 276.505 337.908 277.284 334.953C278.063 331.986 278.7 328.984 279.376 325.99C280.683 319.993 281.741 313.944 282.796 307.893C283.831 301.838 284.699 295.753 285.477 289.658C286.295 283.566 286.963 277.454 287.536 271.33C286.935 283.621 285.615 295.873 283.809 308.054C282.912 314.145 281.813 320.209 280.563 326.242C279.904 329.252 279.284 332.272 278.521 335.258C277.751 338.256 277.088 341.237 276.432 344.214C275.281 350.209 274.451 356.29 274.153 362.413C274.031 363.94 273.963 365.47 273.932 367.004L273.807 371.601C273.828 374.668 273.767 377.736 273.869 380.802C273.981 386.94 274.347 393.073 274.885 399.192C275.387 405.316 276.064 411.428 276.943 417.514Z" fill="#AD8DCD"/>
<path d="M256.225 325.694C256.519 327.073 256.825 328.438 257.221 329.781C257.577 331.129 257.981 332.462 258.452 333.77C259.397 336.377 260.464 338.937 261.872 341.294C263.243 343.674 264.955 345.834 266.997 347.652C269.059 349.454 271.52 350.78 274.204 351.642C272.807 351.469 271.421 351.112 270.087 350.589C268.775 350.018 267.515 349.306 266.353 348.452C264.035 346.721 262.177 344.437 260.723 341.969C259.28 339.488 258.209 336.816 257.477 334.072C256.747 331.329 256.259 328.52 256.225 325.694Z" fill="#AD8DCD"/>
<path d="M275.655 344.566C278.107 342.442 280.567 340.348 282.968 338.196C285.355 336.03 287.74 333.869 289.951 331.556L291.581 329.802C292.081 329.188 292.621 328.597 293.091 327.964C294.105 326.733 294.8 325.388 295.675 323.954C296.539 322.56 297.491 321.21 298.604 319.997C299.752 318.842 301.001 317.654 302.583 317.18C301.143 317.926 300.06 319.154 299.104 320.417C298.128 321.674 297.3 323.045 296.565 324.461C295.885 325.858 295.089 327.402 294.101 328.722C293.124 330.06 292.032 331.286 290.912 332.477C288.628 334.82 286.188 336.982 283.624 338.978C282.345 339.981 281.04 340.948 279.727 341.898C278.381 342.808 277.053 343.738 275.655 344.566Z" fill="#AD8DCD"/>
<path d="M239.249 365.376C240.117 367.194 241.028 368.983 242.087 370.688C243.087 372.421 244.187 374.093 245.351 375.713C247.696 378.94 250.304 381.962 253.232 384.637C256.107 387.381 259.435 389.593 262.932 391.453L265.608 392.773L268.419 393.788C268.887 393.958 269.348 394.162 269.827 394.307L271.281 394.672C272.255 394.907 273.228 395.162 274.204 395.429C270.221 394.973 266.153 394.197 262.484 392.376C258.781 390.685 255.308 388.417 252.333 385.621C249.343 382.846 246.691 379.713 244.507 376.288C242.328 372.865 240.463 369.229 239.249 365.376Z" fill="#AD8DCD"/>
<path d="M274.204 380.402C277.085 377.647 280.284 375.238 283.592 373.011C286.897 370.766 290.379 368.786 293.969 367.028C297.575 365.247 301.332 363.952 304.797 362.126C306.548 361.237 308.239 360.225 309.751 358.989C310.503 358.373 311.243 357.722 311.825 356.941C312.392 356.173 312.943 355.292 312.925 354.286C313.092 355.292 312.636 356.292 312.117 357.141C311.592 358.014 310.897 358.762 310.183 359.48C308.703 360.862 307.027 362.004 305.297 363.022C301.836 365.117 298.056 366.458 294.552 368.226C290.993 369.932 287.541 371.856 284.14 373.871C282.433 374.871 280.764 375.937 279.115 377.033C277.443 378.1 275.819 379.237 274.204 380.402Z" fill="#AD8DCD"/>
<path d="M529.285 417.126C529.285 417.126 539.709 385.612 529.285 352.718C518.859 319.824 515.384 337.2 504.089 298.973C492.796 260.748 478.027 269.364 473.683 281.997C469.34 294.629 471.076 326.882 462.389 344.204C453.701 361.525 451.675 399.607 464.705 417.85L529.285 417.126Z" fill="#5C49A8"/>
<path d="M494.66 417.514C496.901 405.418 498.268 393.148 498.753 380.834C499.049 374.678 498.989 368.505 498.659 362.344C498.399 356.177 497.603 350.032 496.476 343.95C495.795 340.922 495.096 337.908 494.319 334.953C493.539 331.986 492.901 328.984 492.227 325.99C490.919 319.993 489.86 313.944 488.805 307.893C487.772 301.838 486.903 295.753 486.124 289.658C485.307 283.566 484.64 277.454 484.065 271.33C484.668 283.621 485.988 295.873 487.792 308.054C488.689 314.145 489.788 320.209 491.039 326.242C491.697 329.252 492.319 332.272 493.081 335.258C493.851 338.256 494.515 341.237 495.171 344.214C496.321 350.209 497.152 356.29 497.449 362.413C497.571 363.94 497.639 365.47 497.669 367.004L497.796 371.601C497.775 374.668 497.836 377.736 497.733 380.802C497.62 386.94 497.255 393.073 496.717 399.192C496.216 405.316 495.539 411.428 494.66 417.514Z" fill="#AD8DCD"/>
<path d="M515.376 325.694C515.084 327.073 514.777 328.438 514.381 329.781C514.024 331.129 513.621 332.462 513.151 333.77C512.204 336.377 511.139 338.937 509.731 341.294C508.359 343.674 506.647 345.834 504.605 347.652C502.544 349.454 500.081 350.78 497.397 351.642C498.795 351.469 500.18 351.112 501.516 350.589C502.827 350.018 504.087 349.306 505.248 348.452C507.567 346.721 509.424 344.437 510.879 341.969C512.321 339.488 513.392 336.816 514.125 334.072C514.855 331.329 515.343 328.52 515.376 325.694Z" fill="#AD8DCD"/>
<path d="M495.948 344.566C493.495 342.442 491.036 340.348 488.633 338.196C486.247 336.03 483.861 333.869 481.652 331.556L480.02 329.802C479.52 329.188 478.98 328.597 478.511 327.964C477.496 326.733 476.801 325.388 475.927 323.954C475.063 322.56 474.112 321.21 472.997 319.997C471.851 318.842 470.6 317.654 469.019 317.18C470.46 317.926 471.543 319.154 472.499 320.417C473.473 321.674 474.301 323.045 475.036 324.461C475.717 325.858 476.512 327.402 477.501 328.722C478.477 330.06 479.569 331.286 480.691 332.477C482.973 334.82 485.413 336.982 487.977 338.978C489.257 339.981 490.561 340.948 491.875 341.898C493.221 342.808 494.549 343.738 495.948 344.566Z" fill="#AD8DCD"/>
<path d="M532.352 365.376C531.485 367.194 530.575 368.983 529.515 370.688C528.516 372.421 527.415 374.093 526.251 375.713C523.907 378.94 521.299 381.962 518.369 384.637C515.496 387.381 512.168 389.593 508.671 391.453L505.995 392.773L503.183 393.788C502.715 393.958 502.253 394.162 501.776 394.307L500.321 394.672C499.347 394.907 498.375 395.162 497.397 395.429C501.381 394.973 505.448 394.197 509.119 392.376C512.821 390.685 516.293 388.417 519.269 385.621C522.259 382.846 524.911 379.713 527.096 376.288C529.275 372.865 531.139 369.229 532.352 365.376Z" fill="#AD8DCD"/>
<path d="M497.397 380.402C494.516 377.647 491.319 375.238 488.009 373.011C484.705 370.766 481.224 368.786 477.633 367.028C474.027 365.247 470.269 363.952 466.804 362.126C465.055 361.237 463.363 360.225 461.851 358.989C461.1 358.373 460.359 357.722 459.777 356.941C459.211 356.173 458.66 355.292 458.676 354.286C458.509 355.292 458.965 356.292 459.485 357.141C460.011 358.014 460.704 358.762 461.419 359.48C462.899 360.862 464.576 362.004 466.305 363.022C469.765 365.117 473.547 366.458 477.051 368.226C480.609 369.932 484.061 371.856 487.461 373.871C489.169 374.871 490.839 375.937 492.488 377.033C494.16 378.1 495.784 379.237 497.397 380.402Z" fill="#AD8DCD"/>
<path d="M200.101 417.453C200.101 417.453 189.676 390.657 194.889 361.288C200.101 331.917 208.789 321.202 214.871 308.75C220.952 296.297 240.065 289.406 250.491 303.712C260.916 318.017 258.309 334.717 266.997 347.652C275.685 360.588 286.111 403.077 272.209 417.453H200.101Z" fill="#7055B0"/>
<path d="M236.205 417.453C234.035 407.444 232.469 397.307 231.221 387.137C229.996 376.962 229.199 366.734 228.837 356.484C228.687 351.357 228.672 346.228 228.812 341.098C228.945 335.972 229.187 330.842 229.748 325.738C230.765 315.54 232.653 305.353 236.205 295.736C234.687 300.626 233.521 305.609 232.667 310.642C231.753 315.666 231.171 320.744 230.769 325.833C229.936 336.006 229.803 346.236 230.168 356.442C230.417 366.657 231.231 376.852 232.236 387.024C232.736 392.113 233.333 397.192 234.007 402.261C234.643 407.338 235.388 412.4 236.205 417.453Z" fill="#361E40"/>
<path d="M207.743 322.15C208.339 324.142 208.925 326.128 209.62 328.081C210.26 330.049 210.955 331.997 211.692 333.928C213.173 337.785 214.761 341.594 216.547 345.31C218.295 349.045 220.345 352.621 222.5 356.132C223.627 357.856 224.749 359.59 226.035 361.205C227.189 362.93 228.64 364.405 229.928 366.046C226.837 363.269 224.053 360.122 221.648 356.704C219.259 353.277 217.143 349.656 215.344 345.888C213.567 342.109 211.992 338.237 210.728 334.265C209.461 330.296 208.381 326.262 207.743 322.15Z" fill="#361E40"/>
<path d="M193.899 368.623C195.113 370.586 196.351 372.526 197.671 374.411C198.956 376.318 200.289 378.19 201.684 380.014C204.465 383.662 207.392 387.195 210.609 390.441C213.812 393.69 217.288 396.686 221.148 399.1C223.072 400.313 225.103 401.373 227.247 402.145C229.373 402.973 231.611 403.506 233.903 403.792C231.591 403.807 229.28 403.4 227.037 402.764C224.799 402.1 222.664 401.119 220.627 399.982C216.533 397.711 212.94 394.664 209.66 391.377C206.409 388.049 203.467 384.44 200.856 380.611C198.24 376.792 195.843 372.817 193.899 368.623Z" fill="#361E40"/>
<path d="M231.631 386.207C233.401 384.907 235.095 383.523 236.716 382.056C238.371 380.629 239.959 379.126 241.524 377.605C244.633 374.537 247.629 371.361 250.52 368.088L252.685 365.63L254.788 363.118C256.232 361.476 257.537 359.721 258.949 358.049C261.688 354.634 264.307 351.128 266.997 347.652C265.877 349.541 264.693 351.392 263.528 353.256C262.276 355.06 261.055 356.889 259.765 358.67C257.176 362.226 254.444 365.681 251.517 368.971C248.579 372.249 245.525 375.434 242.22 378.35C238.912 381.25 235.473 384.053 231.631 386.207Z" fill="#361E40"/>
<path d="M118.207 405.605C118.207 405.605 66.6602 376.501 62.3162 333.932C62.3162 309.54 76.2162 310.385 68.3975 273.506C60.5789 236.628 59.7095 197.848 75.3469 192.478C90.9855 187.108 100.541 235.169 110.099 231.554C119.655 227.941 138.753 231.872 146.804 266.166C154.856 300.461 167.148 419.07 118.207 405.605Z" fill="#3CC0E7"/>
<path d="M75.3469 192.478C77.8615 201.366 80.5082 210.217 83.2682 219.029C85.9922 227.852 88.8162 236.644 91.8535 245.358C94.9242 254.058 98.0509 262.752 101.855 271.13L104.737 277.436C105.707 279.541 106.561 281.693 107.479 283.821L110.019 290.285L112.388 296.812C115.404 305.564 118.023 314.445 120.351 323.398C122.685 332.349 124.715 341.384 126.324 350.492C128.005 359.586 129.288 368.752 130.276 377.944C131.284 387.134 131.725 396.376 132.036 405.605C131.508 396.383 130.849 387.169 129.628 378.016C128.508 368.857 127.116 359.729 125.315 350.681C124.483 346.144 123.439 341.649 122.489 337.137C121.421 332.65 120.388 328.156 119.176 323.705C116.819 314.792 114.165 305.953 111.129 297.249L108.8 290.741L106.3 284.298C105.397 282.181 104.557 280.034 103.604 277.941L100.753 271.632C96.9722 263.162 93.8135 254.458 90.8869 245.689C85.0362 228.148 79.9602 210.369 75.3469 192.478Z" fill="#36A1C1"/>
<path d="M63.3348 238.53L71.7802 245.76C74.6122 248.142 77.4228 250.541 80.2868 252.87C83.1388 255.216 86.0628 257.462 89.0348 259.64L91.2975 261.225L93.6389 262.684C94.4162 263.18 95.2429 263.574 96.0495 264.028C96.8682 264.449 97.7429 264.736 98.5962 265.121C94.9322 264.357 91.5975 262.465 88.4615 260.49C85.3149 258.488 82.3362 256.241 79.4455 253.902C76.5815 251.532 73.7762 249.092 71.0962 246.517C68.4122 243.952 65.7868 241.324 63.3348 238.53Z" fill="#36A1C1"/>
<path d="M91.4135 245.674L91.7482 241.224L92.1415 236.789L92.9255 227.932L93.7002 219.078L94.4069 210.197C94.6949 213.166 94.7655 216.149 94.7255 219.128C94.6909 222.109 94.5122 225.084 94.2535 228.05C93.9682 231.014 93.6375 233.974 93.1535 236.912C92.6842 239.852 92.1549 242.784 91.4135 245.674Z" fill="#36A1C1"/>
<path d="M108.329 285.416C109.352 283.301 110.329 281.173 111.223 279.006C112.143 276.853 113.011 274.681 113.819 272.488C115.439 268.102 116.897 263.661 118.112 259.154C118.783 256.917 119.263 254.632 119.831 252.368C120.283 250.08 120.816 247.802 121.175 245.496C121.365 244.344 121.585 243.193 121.752 242.037L122.175 238.556C122.543 236.237 122.581 233.894 122.863 231.554C122.985 236.246 122.853 240.977 122.189 245.648C121.977 248.001 121.445 250.302 121.065 252.632C120.531 254.929 120.053 257.241 119.396 259.509C118.137 264.053 116.628 268.533 114.768 272.864C112.928 277.2 110.859 281.449 108.329 285.416Z" fill="#36A1C1"/>
<path d="M70.5815 297.664C72.4695 298.966 74.3575 300.254 76.2962 301.468C78.2109 302.717 80.1522 303.918 82.1135 305.088C86.0389 307.416 90.0215 309.64 94.0895 311.694C98.1349 313.797 102.293 315.666 106.501 317.421L109.671 318.713L112.892 319.868C115.013 320.736 117.231 321.288 119.392 322.074C114.904 321.16 110.437 319.996 106.132 318.378C101.8 316.833 97.5789 314.977 93.4855 312.882C89.3962 310.78 85.3922 308.505 81.5695 305.953C77.7415 303.416 74.0162 300.708 70.5815 297.664Z" fill="#36A1C1"/>
<path d="M125.444 348.489C126.536 345.698 127.641 342.918 128.687 340.113C129.765 337.322 130.837 334.529 131.864 331.72C133.94 326.109 136.044 320.512 137.992 314.854C140.028 309.232 141.971 303.573 143.885 297.906L149.629 280.889C148.919 283.798 148.153 286.696 147.377 289.59C146.549 292.469 145.739 295.354 144.861 298.221C143.145 303.964 141.188 309.63 139.248 315.301C137.189 320.932 135.099 326.55 132.815 332.092C130.524 337.629 128.143 343.134 125.444 348.489Z" fill="#36A1C1"/>
<path d="M69.4882 357.128C71.9069 358.496 74.3122 359.876 76.7549 361.188C79.1775 362.537 81.6122 363.861 84.0669 365.144C88.9709 367.72 93.8909 370.264 98.9335 372.535C103.929 374.902 109.044 377.018 114.264 378.811C116.873 379.704 119.521 380.49 122.216 381.085C124.901 381.722 127.648 382.104 130.427 382.126C124.851 382.629 119.281 381.334 113.951 379.788C108.604 378.178 103.447 376.031 98.3735 373.744C93.3442 371.354 88.3909 368.816 83.5749 366.037C78.7615 363.256 74.0255 360.338 69.4882 357.128Z" fill="#36A1C1"/>
<path d="M193.415 399.305C193.415 399.305 201.955 397.869 224.765 382.182C247.576 366.497 248.416 357.702 245.225 353.368C242.036 349.033 228.64 356.416 222.512 358.292C216.385 360.168 218.671 349.013 227.513 344.469C236.356 339.928 250.365 331.189 250.941 323.533C251.517 315.877 236.449 320.209 236.509 315.994C236.569 311.78 247.024 301.653 254.815 297.766C262.608 293.878 269.491 278.397 267.181 267.674C264.873 256.953 266.077 232.364 271.203 225.762C271.203 225.762 253.001 225.438 242.224 240.917C231.445 256.397 232.576 264.449 222.113 269.514C211.652 274.58 199.356 275.925 195.195 280.953C191.033 285.981 194.563 301.78 192.676 307.334C190.789 312.889 185.012 314.546 181.344 307.105C177.676 299.664 171.119 293.05 167.789 297.072C164.46 301.094 174.848 328.67 174.272 336.326C173.696 343.982 160.471 340.556 160.429 346.42C160.388 352.284 173.511 386.421 193.415 399.305Z" fill="#CCB0DD"/>
<path d="M193.415 399.305C193.455 391.204 194.089 383.117 195.111 375.094C196.1 367.069 197.613 359.104 199.835 351.348C200.355 349.397 201.008 347.49 201.667 345.586C202.263 343.66 203.096 341.824 203.816 339.946C204.576 338.081 205.473 336.269 206.297 334.429C207.213 332.63 208.079 330.808 209.033 329.029C212.812 321.893 217.061 315.009 221.536 308.274C225.981 301.516 230.683 294.928 235.192 288.176C237.408 284.789 239.647 281.329 241.259 277.562C242.925 273.844 244.376 270.062 245.887 266.306C248.879 258.786 252.041 251.332 255.885 244.222C257.857 240.702 259.929 237.222 262.423 234.038C264.937 230.892 267.768 227.944 271.203 225.762C267.715 227.854 264.789 230.742 262.181 233.845C259.592 236.982 257.419 240.428 255.344 243.92C251.365 251.006 248.091 258.454 244.985 265.937C243.412 269.67 241.913 273.437 240.26 277.11C238.663 280.797 236.46 284.164 234.231 287.537C229.713 294.236 224.968 300.816 220.481 307.576C216.021 314.353 211.784 321.293 208.013 328.494C204.225 335.668 200.968 343.206 198.9 351.085C194.676 366.805 193.208 383.121 193.415 399.305Z" fill="#52399C"/>
<path d="M267.12 277.553C263.257 278.724 259.497 280.213 255.793 281.821C252.084 283.422 248.472 285.244 244.925 287.185C241.391 289.146 237.959 291.301 234.664 293.648C231.375 296.005 228.251 298.593 225.387 301.437C227.029 300.256 228.557 298.952 230.243 297.848C231.852 296.649 233.536 295.554 235.212 294.454C238.607 292.317 242.019 290.213 245.541 288.292C249.044 286.338 252.612 284.502 256.203 282.7C258 281.801 259.811 280.929 261.636 280.086C263.444 279.198 265.285 278.392 267.12 277.553Z" fill="#52399C"/>
<path d="M231.916 291.982C231.409 287.132 230.825 282.338 230.397 277.526C230.176 275.124 230.023 272.717 229.884 270.306C229.795 267.896 229.727 265.484 229.755 263.041C228.699 267.824 228.731 272.786 229.135 277.638C229.608 282.497 230.432 287.328 231.916 291.982Z" fill="#52399C"/>
<path d="M250.941 323.533C248.515 324.321 246.153 325.289 243.787 326.24C241.444 327.246 239.116 328.292 236.812 329.389C232.205 331.586 227.716 334.024 223.301 336.588C218.935 339.232 214.607 341.946 210.472 344.942C208.388 346.413 206.367 347.972 204.349 349.532C202.348 351.113 200.415 352.78 198.485 354.441C202.649 351.5 206.759 348.509 211.024 345.744C215.252 342.93 219.551 340.222 223.944 337.678C228.281 335.037 232.755 332.629 237.247 330.256C241.744 327.893 246.3 325.636 250.941 323.533Z" fill="#52399C"/>
<path d="M200.533 347.256C198.703 345.506 196.927 343.712 195.231 341.842L192.691 339.041L190.243 336.16C187.02 332.29 183.984 328.264 181.248 324.042C179.804 321.981 178.54 319.805 177.223 317.664C176.031 315.452 174.752 313.278 173.675 311.006C173.12 309.876 172.543 308.754 172.008 307.616L170.529 304.137C170.28 303.56 170.008 302.988 169.775 302.402L169.123 300.625C168.692 299.44 168.247 298.256 167.789 297.072C169.064 301.964 170.613 306.83 172.793 311.425L173.563 313.172L174.44 314.862L176.221 318.234C177.52 320.418 178.761 322.641 180.193 324.742C183.047 328.949 186.099 333.026 189.509 336.793C192.904 340.566 196.532 344.145 200.533 347.256Z" fill="#52399C"/>
<path d="M245.225 353.368C240.692 355.341 236.251 357.505 231.837 359.724C227.421 361.941 223.084 364.307 218.752 366.685C214.468 369.147 210.187 371.623 206.036 374.314C201.892 377.009 197.783 379.79 194.023 383.009C195.057 382.33 196.084 381.645 197.099 380.949L200.228 378.977C202.319 377.673 204.411 376.371 206.548 375.144C210.787 372.634 215.049 370.159 219.372 367.789C223.643 365.325 227.98 362.978 232.291 360.581L238.767 356.997L245.225 353.368Z" fill="#52399C"/>
<path d="M194.62 376.618C193.075 375.465 191.537 374.314 190.055 373.093C188.544 371.909 187.057 370.695 185.62 369.43C182.739 366.906 179.891 364.349 177.269 361.572C174.641 358.806 172.148 355.913 169.949 352.798C169.38 352.033 168.913 351.202 168.388 350.405C168.137 350.001 167.867 349.605 167.629 349.192L166.976 347.921C166.553 347.069 165.999 346.265 165.689 345.358C165.337 344.47 164.968 343.584 164.587 342.693C165.439 346.465 167.109 350.025 169.137 353.337C171.188 356.644 173.708 359.622 176.356 362.449C179.04 365.248 181.951 367.814 185.005 370.181C188.065 372.54 191.236 374.761 194.62 376.618Z" fill="#52399C"/>
<path d="M582.636 407.87C582.636 407.87 526.731 399.985 520.231 377.014C513.729 354.046 526.296 357.514 521.963 346.245C517.629 334.977 486.425 302.906 494.66 285.572C502.895 268.236 520.231 288.605 525.431 300.306C530.631 312.009 541.032 319.376 546.232 312.441C551.433 305.508 573.536 310.274 580.469 341.045C587.403 371.814 582.636 407.87 582.636 407.87Z" fill="#3CC0E7"/>
<path d="M494.66 285.572C503.097 294.918 511.325 304.45 519.451 314.069C527.563 323.701 535.497 333.484 543.208 343.453C546.985 348.498 550.787 353.528 554.208 358.853C557.603 364.168 560.912 369.523 564.105 374.954C570.519 385.793 576.728 396.75 582.636 407.87L573.001 391.63C569.784 386.223 566.535 380.835 563.229 375.482C559.903 370.144 556.627 364.773 553.191 359.512C549.775 354.262 545.944 349.266 542.152 344.258C534.547 334.245 526.604 324.484 518.667 314.72L506.681 300.133L494.66 285.572Z" fill="#36A1C1"/>
<path d="M520.231 377.014C524.261 376.414 528.337 376.181 532.412 376.094C536.491 376.007 540.575 376.161 544.644 376.523C548.708 376.946 552.764 377.531 556.736 378.525C560.696 379.549 564.597 380.873 568.197 382.792C566.255 382.156 564.384 381.397 562.403 380.937C560.479 380.324 558.481 379.961 556.515 379.525C552.545 378.78 548.543 378.236 544.52 377.848C540.497 377.456 536.453 377.269 532.405 377.113C530.381 377.033 528.353 377.004 526.325 377.005C524.295 376.958 522.267 376.997 520.231 377.014Z" fill="#36A1C1"/>
<path d="M506.068 321.99C510.376 322.085 514.629 322.794 518.805 323.813C522.953 324.889 527.113 326.288 530.729 328.662C526.672 327.246 522.607 326.138 518.481 325.104C514.363 324.054 510.22 323.121 506.068 321.99Z" fill="#36A1C1"/>
<path d="M538.759 314.74C540.456 319.758 541.64 324.91 542.616 330.101C543.535 335.296 544.248 340.561 544.213 345.862C543.201 340.669 542.26 335.514 541.308 330.34C540.379 325.164 539.437 319.99 538.759 314.74Z" fill="#36A1C1"/>
<path d="M563.567 313.141C565.292 319.736 566.724 326.401 568.045 333.084C569.365 339.77 570.457 346.5 571.509 353.236C572.44 359.988 573.281 366.756 573.879 373.547C574.433 380.345 574.787 387.161 574.735 393.974C574.433 390.578 574.272 387.181 573.891 383.798C573.624 380.407 573.223 377.029 572.86 373.649C572.053 366.899 571.227 360.149 570.193 353.426C569.256 346.69 568.145 339.98 567.044 333.266C566.497 329.908 565.923 326.554 565.328 323.204L563.567 313.141Z" fill="#36A1C1"/>
<path d="M231.408 133.86C231.408 133.86 257.98 184.3 231.335 252.404C204.688 320.509 188.093 322.036 183.513 341.272C178.933 360.508 167.069 377.382 154.748 370.317C142.425 363.252 136.064 205.402 231.408 133.86Z" fill="#EE1F6B"/>
<path d="M154.748 370.317C157.788 349.692 162.017 329.276 168.06 309.378C168.812 306.892 169.583 304.408 170.443 301.956L171.704 298.264L173.089 294.616C173.559 293.402 174.001 292.18 174.492 290.973L176.032 287.381C177.036 284.973 178.131 282.617 179.204 280.249C183.501 270.778 187.712 261.274 191.811 251.725C200.087 232.658 207.819 213.374 214.813 193.832C218.236 184.037 221.548 174.198 224.371 164.21C227.211 154.232 229.733 144.146 231.408 133.86C229.947 144.189 227.632 154.341 224.997 164.393C222.301 174.432 219.092 184.317 215.784 194.164C208.983 213.798 201.231 233.1 193.045 252.217C188.907 261.758 184.657 271.254 180.321 280.714C179.239 283.078 178.132 285.437 177.125 287.822L175.581 291.39C175.088 292.588 174.641 293.805 174.169 295.012L172.776 298.64L171.496 302.31C170.611 304.746 169.812 307.213 169.033 309.685C165.889 319.569 163.251 329.614 160.9 339.733C158.54 349.849 156.451 360.041 154.748 370.317Z" fill="#B9235D"/>
<path d="M183.513 341.272C181.423 337.738 179.744 334.06 178.265 330.342C176.781 326.622 175.616 322.834 174.665 319.026C173.719 315.218 173.092 311.373 172.8 307.541C172.451 303.706 172.62 299.893 173.083 296.16C173.196 298.073 173.052 299.952 173.279 301.86L173.463 304.705L173.808 307.553C174.332 311.345 174.983 315.134 175.951 318.901C176.857 322.672 177.977 326.421 179.223 330.156C179.856 332.02 180.524 333.881 181.253 335.73C181.939 337.59 182.719 339.429 183.513 341.272Z" fill="#B9235D"/>
<path d="M182.873 273.63C180.859 274.501 178.955 275.514 177.133 276.62C176.224 277.174 175.303 277.712 174.439 278.314C173.548 278.889 172.691 279.497 171.861 280.133C168.508 282.637 165.397 285.37 162.563 288.317C161.211 289.837 159.763 291.293 158.553 292.91C157.924 293.704 157.268 294.481 156.659 295.288L154.908 297.753L154.021 298.982L153.227 300.262L151.637 302.828C150.585 304.544 149.709 306.346 148.676 308.085C149.429 306.232 150.191 304.368 151.049 302.548L152.481 299.88L153.203 298.546L154.017 297.26L155.667 294.694C156.257 293.862 156.893 293.058 157.505 292.237C158.701 290.577 160.161 289.09 161.517 287.536C164.421 284.564 167.616 281.802 171.183 279.43C174.744 277.069 178.589 274.958 182.873 273.63Z" fill="#B9235D"/>
<path d="M217.843 283.382C214.567 279.6 211.849 275.484 209.488 271.258C207.123 267.028 205.269 262.625 203.752 258.172C202.979 255.942 202.481 253.678 201.916 251.424C201.685 250.292 201.512 249.156 201.309 248.022C201.215 247.457 201.103 246.89 201.024 246.322L200.895 244.621C200.363 240.074 200.74 235.574 201.417 231.193C201.399 232.317 201.369 233.436 201.324 234.55L201.265 236.221C201.26 236.778 201.32 237.344 201.345 237.902L201.488 241.261C201.592 242.381 201.765 243.505 201.9 244.624L202.117 246.301L202.433 247.978C202.653 249.094 202.844 250.213 203.089 251.326C203.685 253.546 204.216 255.773 205.012 257.964C206.405 262.374 208.249 266.713 210.396 270.961L212.061 274.132C212.667 275.173 213.245 276.224 213.873 277.256C215.085 279.341 216.423 281.377 217.843 283.382Z" fill="#B9235D"/>
<path d="M213.608 199.716C211.687 200.061 209.768 200.394 207.876 200.801C205.972 201.168 204.077 201.562 202.205 202.006C198.461 202.889 194.729 203.792 191.105 204.914C187.48 206.025 183.916 207.26 180.501 208.733C179.635 209.081 178.829 209.516 177.988 209.904L176.74 210.506L175.556 211.188C174.775 211.65 173.905 212.026 173.189 212.566C172.448 213.078 171.695 213.582 170.927 214.081C173.484 211.614 176.629 209.64 179.955 207.949C183.297 206.265 186.904 204.98 190.564 203.832C194.247 202.724 198.033 201.838 201.883 201.153C205.733 200.473 209.635 199.925 213.608 199.716Z" fill="#B9235D"/>
<path d="M242.845 200.801C240.321 198.53 239.397 197.557 237.319 194.982C235.235 192.408 233.361 189.721 231.592 186.993C229.888 184.238 228.228 181.462 226.844 178.598C226.113 177.181 225.487 175.729 224.816 174.294C224.212 172.842 223.627 171.385 223.088 169.92C224.66 172.721 226.137 175.532 227.753 178.294C229.34 181.069 231.013 183.802 232.727 186.52C234.451 189.236 236.273 191.904 238.143 194.556C239.072 195.885 240.047 197.192 241.049 198.486C242.023 199.798 241.788 199.526 242.845 200.801Z" fill="#B9235D"/>
<path d="M149.307 176.957C149.307 176.957 149.707 199.641 152.333 208.004C154.96 216.365 167.656 228.054 173.571 228.457C179.485 228.858 186.968 223.234 193.772 216.693C200.577 210.154 200.769 208.102 202.019 198.813C203.267 189.522 203.4 174.821 203.4 174.821C203.4 174.821 191.707 181.445 184.941 164.281C184.941 164.281 180.616 172.145 166.439 171.373C152.261 170.601 149.307 176.957 149.307 176.957Z" fill="#CC7484"/>
<path d="M149.307 176.957C149.307 176.957 152.261 170.601 166.439 171.373C180.616 172.145 184.941 164.281 184.941 164.281C191.707 181.445 203.4 174.821 203.4 174.821C203.4 174.821 203.305 185.304 202.524 194.16C210.721 182.066 210.777 172.142 208.299 162.788C205.82 153.432 196.843 151.761 193.545 152.082C190.247 152.404 189.22 151.917 178.375 145.14C167.529 138.362 153.939 143.605 147.441 151.289C140.943 158.974 130.229 161.585 132.836 174.257C135.443 186.93 144.92 189.716 144.92 189.716C144.92 189.716 146.836 190.356 149.968 191.292C149.428 183.762 149.307 176.957 149.307 176.957Z" fill="#453890"/>
<path d="M173.571 228.457C171.709 228.33 169.176 227.084 166.497 225.178L166.588 237.193C166.588 237.193 169.135 244.558 175.444 244.988C181.753 245.417 185.319 236.452 185.319 236.452L184.167 224.634C180.413 227.125 176.763 228.674 173.571 228.457Z" fill="#A65C6B"/>
<path d="M225.461 259.938C222.769 253.217 185.261 235.866 185.261 235.866C185.261 235.866 181.951 244.942 174.923 244.441C168.989 244.016 166.581 236.245 166.581 236.245C166.581 236.245 137.413 243.208 130.601 247.946C123.789 252.682 111.568 288.5 108.911 303.016C106.252 317.532 104.98 331.332 123.565 330.974L116.217 366.025C116.217 366.025 143.683 376.149 174.495 372.854C205.307 369.559 218.804 364.752 218.804 364.752L215.095 326.706C215.095 326.706 226.413 329.385 231.7 323.924C236.987 318.461 228.153 266.658 225.461 259.938Z" fill="#54389C"/>
<path d="M129.508 305.372C129.508 305.372 137.74 297.294 143.449 296.157C149.157 295.018 162.031 297.088 162.031 297.088C162.031 297.088 157.557 303.582 156.207 310.625C156.207 310.625 147.62 308.124 140.968 307.093C134.657 306.117 129.508 305.372 129.508 305.372Z" fill="#CC7484"/>
<path d="M116.217 366.025C116.217 366.025 108.676 403.568 108.273 426.301L223.708 415.048C223.708 415.048 222.077 398.33 218.804 364.752C218.804 364.752 205.307 369.56 174.495 372.854C143.683 376.149 116.217 366.025 116.217 366.025Z" fill="#361E40"/>
<path d="M149.745 187.868V187.866C149.745 187.866 146.427 183.078 143.04 188.521C139.653 193.962 145.048 206.029 151.705 205.548C150.687 200.788 150.089 193.765 149.745 187.868Z" fill="#CC7484"/>
<path d="M207.308 185.897C205.604 184.07 204.215 183.776 203.148 184.085C202.952 188.781 202.611 194.405 202.019 198.813C201.728 200.969 201.493 202.726 201.221 204.249C201.489 204.296 201.775 204.316 202.095 204.276C208.72 203.462 211.683 190.581 207.308 185.897Z" fill="#CC7484"/>
<path d="M166.549 232.076L166.588 237.193C166.588 237.193 169.135 244.558 175.444 244.988C181.753 245.417 185.319 236.452 185.319 236.452L184.796 231.097C184.796 231.097 175.129 237.685 166.549 232.076Z" fill="#CC7484"/>
<path d="M129.508 305.372C129.508 305.372 132.933 289.125 134.052 281.158C135.172 273.193 135.172 273.193 135.172 273.193L126.021 305.421L129.508 305.372Z" fill="#483397"/>
<path d="M129.508 305.372C129.508 305.372 134.625 306.133 140.968 307.093C147.312 308.053 156.207 310.625 156.207 310.625C156.207 310.625 175.088 317.02 183.884 319.945C192.68 322.87 215.095 326.706 215.095 326.706L215.767 333.13C215.767 333.13 183.815 325.48 172.783 320.736C161.749 315.993 143.536 309.736 129.508 305.372Z" fill="#483397"/>
<path d="M160.777 299.177C160.777 299.177 161.863 296.07 163.363 296.541C164.863 297.01 202.244 303.081 210.139 303.485L209.165 280.836C209.165 280.836 212.156 303.297 212.167 304.897C212.167 304.897 199.089 303.576 189.785 302.144C180.48 300.712 160.777 299.177 160.777 299.177Z" fill="#483397"/>
<path d="M123.565 330.974C123.565 330.974 167.536 325.613 180.617 322.373C180.617 322.373 134.509 336.546 119.176 352.734L123.565 330.974Z" fill="#483397"/>
<path d="M168.44 420.436C168.44 420.436 168.788 402.837 178.507 396.713C178.507 396.713 173.119 404.688 174.004 419.894L168.44 420.436Z" fill="#1F1622"/>
<path d="M580.319 146.296C580.319 146.296 557.867 147.722 553.457 165.656C549.049 183.589 552.848 199.74 549.764 206.746C546.677 213.752 536.971 239.588 554.809 258.378C572.648 277.168 620.288 268.845 623.149 242.434C626.011 216.024 617.156 215.578 615.329 194.762C613.503 173.946 617.42 145.2 580.319 146.296Z" fill="#361E40"/>
<path d="M558.796 182.214C558.796 182.214 558.577 198.621 560.073 202.308C561.568 205.997 571.008 223.554 580.3 222.964C589.595 222.373 602.713 208.126 604.287 203.534C605.876 198.892 607.172 185.445 607.172 185.445C607.172 185.445 588.003 178.341 581.356 162.622C581.356 162.622 568.892 182.329 558.796 182.214Z" fill="#FBC7CC"/>
<path d="M558.796 182.214C558.928 182.216 559.06 182.2 559.191 182.194C558.117 181.258 555.987 179.826 554.099 181.128C551.453 182.953 551.867 201.192 559.748 201.185C558.613 196.092 558.796 182.214 558.796 182.214Z" fill="#FBC7CC"/>
<path d="M612.889 188.106C610.72 185.72 606.847 188.489 606.847 188.489C606.365 192.737 605.397 200.288 604.287 203.534C604.037 204.258 603.501 205.225 602.737 206.34C610.467 208.301 615.059 190.493 612.889 188.106Z" fill="#FBC7CC"/>
<path d="M590.299 218.681C586.92 221.049 583.397 222.768 580.3 222.964C577.324 223.153 574.333 221.476 571.591 218.992L571.213 232.746L568.009 232.95C568.009 232.95 571.187 253.177 576.028 254.949C580.869 256.722 592.024 235.813 592.024 235.813L589.076 234.07L590.299 218.681Z" fill="#FBC7CC"/>
<path d="M644.831 320.914C639.669 308.184 636 270.985 631.383 259.961C626.764 248.938 605.373 236.968 592.024 235.813C592.024 235.813 580.685 256.39 576.028 254.949C571.416 253.521 568.084 233.078 568.084 233.078C568.084 233.078 545.733 235.245 541.419 238.701C537.105 242.157 504.489 286.014 504.489 286.014C504.489 286.014 480.159 286.689 468.148 289.484C461.881 291.333 461.881 291.333 461.881 291.333C461.881 291.333 460.268 302.462 462.892 307.229C462.892 307.229 499.237 308.402 508.123 306.677C517.009 304.952 540.192 277.046 540.192 277.046C540.192 277.046 538.937 289.34 544.927 296.793C550.916 304.248 546.311 323.112 543.825 329.653C541.339 336.194 537.885 350.344 537.885 350.344C537.885 350.344 574.884 370.916 614.683 357.941C614.683 357.941 606.315 335.84 606.535 321.026C606.755 306.213 607.112 302.709 612.52 291.918C612.52 291.918 620.657 317.228 625.301 328.684C629.948 340.141 637.113 377.554 639.713 377.389C642.315 377.223 655.856 371.14 655.856 371.14C655.856 371.14 649.992 333.644 644.831 320.914Z" fill="#453890"/>
<path d="M537.885 350.344C537.885 350.344 528.967 374.413 527.896 412.349L627.604 406.014C627.604 406.014 626.731 374.006 614.683 357.941C574.884 370.916 537.885 350.344 537.885 350.344Z" fill="#331E3C"/>
<path d="M639.713 377.389C639.713 377.389 638.173 380.533 638.812 383.757C639.453 386.981 641.111 394.711 639.693 398.718C638.277 402.725 639.488 408.089 641.683 408.385C643.879 408.681 643.879 408.681 643.879 408.681C643.879 408.681 642.701 415.285 642.293 418.574C641.887 421.865 642.799 425.942 646.415 424.625C650.031 423.306 653.12 410.27 655.565 404.237C658.011 398.206 657.98 394.292 656.931 388.046C655.881 381.801 651.708 372.957 651.708 372.957L639.713 377.389Z" fill="#FBC7CC"/>
<path d="M461.881 291.333C461.881 291.333 455.545 290.938 452.252 290.494C448.959 290.05 444.363 286.208 441.191 284.233C438.017 282.258 431.295 279.204 429.387 279.977C427.476 280.752 426.124 283.449 429.744 285.613C433.363 287.777 436.983 289.941 436.983 289.941C436.983 289.941 428.816 288.13 421.571 287.144C414.327 286.157 411.381 287.552 412.435 290.629C413.236 292.973 430.147 295.381 430.621 296.004C431.096 296.625 430.653 299.918 428.919 300.029C427.184 300.138 413.164 302.118 411.471 302.878C409.779 303.638 409.755 306.686 411.761 307.43C413.767 308.174 429.737 306.07 431.12 307.289C432.505 308.508 431.381 311.374 425.584 312.629C419.788 313.885 416.605 315.158 418.532 318.092C420.459 321.024 435.223 317.04 438.404 315.749C441.588 314.458 448.373 315.082 452.245 310.936C456.117 306.789 461.712 304.909 461.712 304.909C461.712 304.909 460.447 296.14 461.881 291.333Z" fill="#FBC7CC"/>
<path d="M436.983 289.941C438.039 293.093 439.431 296.065 441.6 298.336C442.651 299.5 443.973 300.364 445.405 301.005C446.839 301.706 448.443 301.934 450.097 302.237C448.461 302.49 446.693 302.556 445.045 301.981C443.387 301.486 441.828 300.537 440.639 299.258C439.445 297.986 438.529 296.488 437.927 294.893C437.327 293.3 436.956 291.624 436.983 289.941Z" fill="#F395A2"/>
<path d="M643.879 408.681C644.373 407.262 644.675 405.823 645.023 404.393L645.981 400.08C646.617 397.194 647.323 394.289 648.445 391.488C648.356 394.511 647.888 397.437 647.283 400.368C646.944 401.829 646.551 403.282 646.015 404.693C645.473 406.092 644.865 407.514 643.879 408.681Z" fill="#F395A2"/>
<path d="M609.629 298.186C609.629 298.186 606.329 310.149 587.657 307.417C568.985 304.686 562.253 305.514 562.253 305.514C562.253 305.514 578.017 307.022 586.175 310.056C594.329 313.088 602.163 314.296 607.276 306.806C607.276 306.806 608.129 301.117 609.629 298.186Z" fill="#361E40"/>
<path d="M540.192 277.046C540.192 277.046 541.427 265.958 543.392 258.652L532.619 285.712L540.192 277.046Z" fill="#361E40"/>
<path d="M612.52 291.918C612.52 291.918 610.261 281.14 611.389 274.12C611.389 274.12 610.155 290.613 608.463 301.46L612.52 291.918Z" fill="#361E40"/>
<path d="M614.683 357.941C593.149 364.961 572.448 362.158 557.971 358.109C557.971 358.109 583.172 366.983 601.811 372.613C620.451 378.24 627.604 406.014 627.604 406.014C627.604 406.014 626.731 374.006 614.683 357.941Z" fill="#221726"/>
<path d="M579.268 409.086C579.268 409.086 577.583 394.535 570.541 390.374C570.541 390.374 574.8 398.837 575.513 409.325L579.268 409.086Z" fill="#221726"/>
<path d="M589.769 225.348L590.299 218.681C586.92 221.049 583.397 222.768 580.3 222.964C577.324 223.153 574.333 221.476 571.591 218.992L571.457 223.814C573.696 225.313 579.279 227.744 589.769 225.348Z" fill="#E0A8AE"/>
<path d="M0 428.39C0 428.39 14.4881 382.973 55.0921 372.226C95.6974 361.477 107.549 392.753 142.147 391.265C176.744 389.776 201.553 414.964 223.536 408.449C245.521 401.933 264.281 379.2 308.328 378.838C352.375 378.476 363.135 397.546 388.265 408.449C413.397 419.35 454.336 412.401 478.807 402.822C503.277 393.245 506.812 386.294 526.66 390.204C546.509 394.114 607.684 396.557 637.457 384.909C667.231 373.262 705.616 384.305 724.328 408.449C739.785 428.39 751.245 428.39 751.245 428.39H0Z" fill="#9E85CA"/>
</g>
<defs>
<clipPath id="clip0_4_102">
<rect width="752" height="428" fill="white"/>
</clipPath>
</defs>
</svg>
