<svg width="311" height="332" viewBox="0 0 311 332" fill="none" xmlns="http://www.w3.org/2000/svg">
<path d="M165.737 290.157C165.737 290.157 116.005 252.264 102.309 166.363C88.6146 80.4627 101.984 69.648 95.5973 47.0227C89.2093 24.3974 90.3146 0.190694 104.635 0.718694C118.952 1.24803 208.933 162.5 165.737 290.157Z" fill="#EE1F6B"/>
<path d="M104.635 0.718694C113.081 23.94 120.4 47.6027 125.891 71.7307C126.581 74.7467 127.251 77.7654 127.829 80.8054L128.728 85.3587L129.497 89.9374C129.747 91.4654 130.023 92.988 130.249 94.52L130.859 99.1254C131.288 102.196 131.613 105.264 131.964 108.332C133.363 120.607 134.855 132.868 136.465 145.115C139.6 169.616 143.317 194.043 147.805 218.331C150.124 230.459 152.561 242.568 155.497 254.564C158.416 266.559 161.66 278.488 165.737 290.157C161.456 278.563 157.997 266.68 154.864 254.721C151.795 242.743 149.243 230.641 146.799 218.524C142.096 194.247 138.385 169.792 135.144 145.287C133.572 133.027 132.12 120.751 130.76 108.468C130.419 105.397 130.103 102.32 129.687 99.272L129.095 94.6894C128.875 93.164 128.605 91.6454 128.361 90.124L127.611 85.5614L126.739 81.0187C126.192 77.9827 125.552 74.9654 124.895 71.9507C122.288 59.888 119.164 47.9347 115.753 36.0654C112.355 24.1934 108.683 12.392 104.635 0.718694Z" fill="#B9235D"/>
<path d="M95.5973 47.0227C99.2773 49.548 102.683 52.4573 105.937 55.5173C109.199 58.5747 112.224 61.8814 115.076 65.3294C117.925 68.7787 120.521 72.4454 122.821 76.2827C125.175 80.0907 127.073 84.1667 128.676 88.3214C127.553 86.3867 126.672 84.3467 125.456 82.4787L123.775 79.612L121.955 76.8307C119.475 73.164 116.888 69.568 114.045 66.1734C111.251 62.7427 108.284 59.448 105.22 56.2427C103.679 54.648 102.111 53.0773 100.497 51.552C98.916 49.9907 97.2626 48.504 95.5973 47.0227Z" fill="#B9235D"/>
<path d="M132.372 117.28C133.628 115.252 134.713 113.137 135.68 110.972C136.16 109.888 136.659 108.813 137.075 107.703C137.528 106.611 137.936 105.499 138.304 104.373C139.829 99.896 141.027 95.3147 141.871 90.664C142.212 88.3267 142.669 86.0014 142.839 83.64C142.952 82.464 143.095 81.288 143.185 80.108L143.361 76.56L143.461 74.7853L143.455 73.0067L143.44 69.4454C143.42 67.0707 143.203 64.7014 143.155 62.3107C143.504 64.6667 143.852 67.0334 144.092 69.412L144.297 72.992L144.395 74.7853L144.387 76.5814L144.352 80.1747C144.292 81.3707 144.179 82.5653 144.095 83.7613C143.961 86.1587 143.509 88.5227 143.183 90.8987C142.293 95.6147 141.039 100.272 139.26 104.729C137.48 109.173 135.325 113.515 132.372 117.28Z" fill="#B9235D"/>
<path d="M97.2533 126.528C102.08 128.657 106.607 131.444 110.889 134.544C115.177 137.645 119.12 141.213 122.803 145.02C124.657 146.916 126.296 149.004 127.987 151.043C128.789 152.096 129.545 153.187 130.327 154.255C130.711 154.796 131.109 155.324 131.48 155.872L132.503 157.579C135.392 162.028 137.48 166.935 139.248 171.884C138.66 170.701 138.087 169.517 137.528 168.329L136.685 166.552C136.391 165.968 136.036 165.412 135.715 164.84L133.796 161.415C133.105 160.303 132.356 159.227 131.64 158.133L130.557 156.501L129.389 154.927C128.603 153.884 127.841 152.821 127.035 151.796C125.336 149.809 123.691 147.78 121.836 145.935C118.284 142.105 114.383 138.6 110.272 135.357L107.149 132.972C106.076 132.224 105.017 131.448 103.928 130.719C101.775 129.216 99.5413 127.833 97.2533 126.528Z" fill="#B9235D"/>
<path d="M145.685 211.519C147.141 210.091 148.603 208.677 150.003 207.2C151.435 205.76 152.844 204.297 154.205 202.793C156.935 199.792 159.641 196.773 162.139 193.589C164.643 190.416 167.028 187.145 169.159 183.712C169.713 182.865 170.169 181.965 170.681 181.092L171.424 179.769L172.072 178.401C172.492 177.483 173.033 176.607 173.357 175.647C173.716 174.7 174.091 173.755 174.479 172.807C173.615 176.805 171.981 180.613 170.045 184.227C168.089 187.841 165.695 191.188 163.181 194.419C160.627 197.623 157.863 200.649 154.939 203.504C152.011 206.355 148.969 209.092 145.685 211.519Z" fill="#B9235D"/>
<path d="M118.193 225.716C121.567 226.685 124.793 228.1 127.948 229.633C131.109 231.163 134.149 232.927 137.124 234.792C140.055 236.72 142.961 238.696 145.679 240.917C147.064 241.992 148.375 243.159 149.716 244.284C151.012 245.467 152.293 246.66 153.537 247.891C150.695 245.841 147.925 243.725 145.064 241.739C142.223 239.727 139.325 237.801 136.407 235.916C133.479 234.04 130.491 232.267 127.472 230.536C125.967 229.665 124.432 228.843 122.881 228.048C121.348 227.219 119.78 226.459 118.193 225.716Z" fill="#B9235D"/>
<path d="M294.452 273.053C294.452 273.053 306.376 256.199 308.181 239.585C311.289 210.963 296.995 202.232 296.995 202.232C296.995 202.232 307.568 195.103 310.233 172.191C312.892 149.34 294.704 133.451 294.704 133.451C294.704 133.451 303.232 117.259 297.495 97.0787C292.332 78.9174 277.015 75.584 273.999 75.0987C271.025 74.3947 255.595 71.6254 243.888 86.4374C230.877 102.899 232.576 121.119 232.576 121.119C232.576 121.119 209.781 128.872 203.428 150.991C197.06 173.161 204.189 183.811 204.189 183.811C204.189 183.811 184.725 190.401 179.584 214.061C176.035 230.392 179.489 250.236 179.489 250.236C179.489 250.236 166.073 255.36 161.7 277.384C158.572 293.148 182.548 314.738 229.549 323.18C276.213 333.328 297.395 320.703 300.524 304.939C304.42 285.305 294.452 273.053 294.452 273.053Z" fill="#CCB0DD"/>
<path d="M268.551 102.54L263.417 130.073L258.147 157.579L247.395 212.545L236.34 267.455L230.704 294.886L224.932 322.292L230.065 294.76L235.335 267.253L246.088 212.287L257.145 157.379L262.781 129.947L268.551 102.54Z" fill="#7055B0"/>
<path d="M226.573 146.909C229.02 149.391 231.356 151.965 233.673 154.555C236.004 157.136 238.252 159.783 240.503 162.429C242.728 165.097 244.951 167.767 247.095 170.503L250.307 174.611C251.341 176.011 252.411 177.381 253.413 178.808C252.179 177.577 251.011 176.289 249.807 175.031L246.309 171.163C243.981 168.584 241.731 165.936 239.483 163.288C237.259 160.619 235.035 157.949 232.892 155.212C230.737 152.485 228.599 149.744 226.573 146.909Z" fill="#7055B0"/>
<path d="M246.541 213.423C250.072 209.972 253.696 206.633 257.337 203.309C260.968 199.975 264.667 196.72 268.365 193.465C272.085 190.233 275.808 187.004 279.597 183.852L285.285 179.129C287.213 177.589 289.112 176.019 291.067 174.511C289.311 176.247 287.499 177.916 285.716 179.62L280.272 184.625C276.641 187.959 272.943 191.215 269.243 194.469C265.521 197.697 261.8 200.928 258.009 204.08C254.229 207.241 250.433 210.387 246.541 213.423Z" fill="#7055B0"/>
<path d="M204.524 215.604C207.584 218.457 210.54 221.409 213.48 224.376C216.431 227.335 219.305 230.363 222.18 233.392C225.031 236.443 227.88 239.496 230.653 242.62L234.811 247.308C236.161 248.905 237.545 250.469 238.865 252.093C237.325 250.676 235.848 249.2 234.336 247.756L229.908 243.323C226.957 240.364 224.083 237.336 221.209 234.305C218.36 231.252 215.511 228.2 212.737 225.077C209.953 221.963 207.185 218.833 204.524 215.604Z" fill="#7055B0"/>
<path d="M230.493 294.275C233.821 292.029 237.221 289.914 240.633 287.813C244.036 285.701 247.493 283.681 250.949 281.66C254.421 279.667 257.896 277.676 261.421 275.773L266.712 272.925C268.5 272.019 270.265 271.072 272.073 270.199C270.417 271.333 268.716 272.392 267.039 273.491L261.935 276.661C258.531 278.772 255.076 280.795 251.617 282.814C248.144 284.805 244.671 286.797 241.144 288.697C237.627 290.612 234.096 292.507 230.493 294.275Z" fill="#7055B0"/>
<path d="M119.693 324.029C119.693 324.029 130.117 292.515 119.693 259.621C109.267 226.727 105.792 244.103 94.4973 205.876C83.2039 167.651 68.4346 176.267 64.0906 188.9C59.748 201.532 61.4839 233.785 52.7973 251.107C44.1093 268.428 42.0826 306.51 55.1133 324.753L119.693 324.029Z" fill="#5C49A8"/>
<path d="M85.0679 324.417C87.3093 312.321 88.676 300.051 89.1613 287.738C89.4573 281.581 89.3973 275.408 89.0666 269.247C88.8066 263.08 88.0106 256.935 86.8839 250.853C86.2026 247.825 85.504 244.811 84.7267 241.856C83.9467 238.889 83.3093 235.887 82.6346 232.893C81.3266 226.896 80.268 220.847 79.2133 214.796C78.18 208.741 77.3107 202.656 76.532 196.561C75.7147 190.469 75.0479 184.357 74.4733 178.233C75.0759 190.524 76.396 202.776 78.2 214.957C79.0973 221.048 80.196 227.112 81.4466 233.145C82.1053 236.155 82.7266 239.175 83.4893 242.161C84.2586 245.159 84.9226 248.14 85.5786 251.117C86.7293 257.112 87.56 263.193 87.8573 269.316C87.9787 270.843 88.0466 272.374 88.0773 273.907L88.2039 278.504C88.1826 281.571 88.244 284.639 88.1413 287.705C88.028 293.843 87.6626 299.976 87.1253 306.095C86.624 312.219 85.9466 318.331 85.0679 324.417Z" fill="#AD8DCD"/>
<path d="M105.784 232.597C105.492 233.976 105.185 235.341 104.789 236.684C104.432 238.032 104.029 239.365 103.559 240.673C102.612 243.28 101.547 245.84 100.139 248.197C98.7666 250.577 97.0546 252.737 95.0133 254.555C92.952 256.357 90.4893 257.683 87.8053 258.545C89.2026 258.372 90.588 258.015 91.924 257.492C93.2346 256.921 94.4946 256.209 95.6559 255.355C97.9746 253.624 99.8319 251.34 101.287 248.872C102.729 246.391 103.8 243.719 104.533 240.975C105.263 238.232 105.751 235.423 105.784 232.597Z" fill="#AD8DCD"/>
<path d="M86.3559 251.469C83.9026 249.345 81.4439 247.251 79.0413 245.099C76.6546 242.933 74.2693 240.772 72.06 238.459L70.4279 236.705C69.9279 236.091 69.388 235.5 68.9186 234.867C67.904 233.636 67.2092 232.291 66.3346 230.857C65.4706 229.463 64.5199 228.113 63.4053 226.9C62.2586 225.745 61.008 224.557 59.4266 224.083C60.868 224.829 61.9506 226.057 62.9066 227.32C63.8813 228.577 64.7093 229.948 65.444 231.364C66.1253 232.761 66.9199 234.305 67.9093 235.625C68.8853 236.963 69.9773 238.189 71.0986 239.38C73.3813 241.723 75.8213 243.885 78.3853 245.881C79.6653 246.884 80.9693 247.851 82.2826 248.801C83.6293 249.711 84.9573 250.641 86.3559 251.469Z" fill="#AD8DCD"/>
<path d="M122.76 272.279C121.893 274.097 120.983 275.886 119.923 277.591C118.924 279.324 117.823 280.996 116.659 282.616C114.315 285.843 111.707 288.865 108.777 291.54C105.904 294.284 102.576 296.496 99.0786 298.356L96.4026 299.676L93.5906 300.691C93.1226 300.861 92.6613 301.065 92.1839 301.21L90.7293 301.575C89.7547 301.81 88.7826 302.065 87.8053 302.332C91.7893 301.876 95.856 301.1 99.5267 299.279C103.229 297.588 106.701 295.32 109.677 292.524C112.667 289.749 115.319 286.616 117.504 283.191C119.683 279.768 121.547 276.132 122.76 272.279Z" fill="#AD8DCD"/>
<path d="M87.8053 287.305C84.924 284.551 81.7266 282.141 78.4173 279.914C75.1133 277.669 71.632 275.689 68.0413 273.931C64.4346 272.151 60.6773 270.855 57.2119 269.029C55.4626 268.14 53.7706 267.128 52.2586 265.892C51.508 265.276 50.7666 264.625 50.1853 263.844C49.6186 263.076 49.0679 262.195 49.0839 261.189C48.9173 262.195 49.3733 263.195 49.8933 264.044C50.4187 264.917 51.112 265.665 51.8267 266.383C53.3067 267.765 54.984 268.907 56.7133 269.925C60.1733 272.02 63.9546 273.361 67.4586 275.129C71.0173 276.835 74.4693 278.759 77.8693 280.775C79.5773 281.775 81.2467 282.84 82.896 283.936C84.568 285.003 86.192 286.14 87.8053 287.305Z" fill="#AD8DCD"/>
<path d="M173.044 314.773C173.044 314.773 117.139 306.888 110.639 283.917C104.137 260.949 116.704 264.417 112.371 253.148C108.037 241.88 76.8332 209.809 85.0679 192.475C93.3026 175.139 110.639 195.508 115.839 207.209C121.039 218.912 131.44 226.279 136.64 219.344C141.841 212.411 163.944 217.177 170.877 247.948C177.811 278.717 173.044 314.773 173.044 314.773Z" fill="#3CC0E7"/>
<path d="M85.0679 192.475C93.5053 201.821 101.733 211.353 109.859 220.972C117.971 230.604 125.905 240.387 133.616 250.356C137.393 255.401 141.195 260.431 144.616 265.756C148.011 271.071 151.32 276.427 154.513 281.857C160.927 292.696 167.136 303.653 173.044 314.773L163.409 298.533C160.192 293.127 156.943 287.739 153.637 282.385C150.311 277.047 147.035 271.676 143.599 266.415C140.183 261.165 136.352 256.169 132.56 251.161C124.955 241.148 117.012 231.387 109.075 221.623L97.0893 207.036L85.0679 192.475Z" fill="#36A1C1"/>
<path d="M110.639 283.917C114.669 283.317 118.745 283.084 122.82 282.997C126.899 282.91 130.983 283.064 135.052 283.427C139.116 283.849 143.172 284.434 147.144 285.428C151.104 286.452 155.005 287.776 158.605 289.695C156.663 289.059 154.792 288.3 152.811 287.84C150.887 287.227 148.889 286.864 146.923 286.428C142.953 285.683 138.951 285.139 134.928 284.751C130.905 284.359 126.861 284.172 122.813 284.016C120.789 283.936 118.761 283.907 116.733 283.908C114.703 283.861 112.675 283.9 110.639 283.917Z" fill="#36A1C1"/>
<path d="M96.476 228.893C100.784 228.988 105.037 229.697 109.213 230.716C113.361 231.792 117.521 233.191 121.137 235.565C117.08 234.149 113.015 233.041 108.889 232.007C104.771 230.957 100.628 230.024 96.476 228.893Z" fill="#36A1C1"/>
<path d="M129.167 221.643C130.864 226.661 132.048 231.813 133.024 237.004C133.943 242.199 134.656 247.464 134.621 252.765C133.609 247.572 132.668 242.417 131.716 237.243C130.787 232.067 129.845 226.893 129.167 221.643Z" fill="#36A1C1"/>
<path d="M153.975 220.044C155.7 226.639 157.132 233.304 158.453 239.987C159.773 246.673 160.865 253.403 161.917 260.139C162.848 266.891 163.689 273.659 164.287 280.451C164.841 287.248 165.195 294.064 165.143 300.877C164.841 297.481 164.68 294.084 164.299 290.701C164.032 287.31 163.631 283.932 163.268 280.552C162.461 273.802 161.635 267.052 160.601 260.329C159.664 253.593 158.553 246.883 157.452 240.169C156.905 236.811 156.331 233.457 155.736 230.107L153.975 220.044Z" fill="#36A1C1"/>
<path d="M170.727 53.1987C170.727 53.1987 148.275 54.6253 143.865 72.5587C139.457 90.492 143.256 106.643 140.172 113.649C137.085 120.655 127.379 146.491 145.217 165.281C163.056 184.071 210.696 175.748 213.557 149.337C216.419 122.927 207.564 122.481 205.737 101.665C203.911 80.8494 207.828 52.1027 170.727 53.1987Z" fill="#361E40"/>
<path d="M149.204 89.1173C149.204 89.1173 148.985 105.524 150.481 109.211C151.976 112.9 161.416 130.457 170.708 129.867C180.003 129.276 193.121 115.029 194.695 110.437C196.284 105.795 197.58 92.348 197.58 92.348C197.58 92.348 178.411 85.244 171.764 69.5253C171.764 69.5253 159.3 89.232 149.204 89.1173Z" fill="#FBC7CC"/>
<path d="M149.204 89.1173C149.336 89.1187 149.468 89.1027 149.599 89.0974C148.525 88.1614 146.395 86.7294 144.507 88.0307C141.861 89.856 142.275 108.095 150.156 108.088C149.021 102.995 149.204 89.1173 149.204 89.1173Z" fill="#FBC7CC"/>
<path d="M203.297 95.0094C201.128 92.6227 197.255 95.392 197.255 95.392C196.773 99.64 195.805 107.191 194.695 110.437C194.445 111.161 193.909 112.128 193.145 113.243C200.875 115.204 205.467 97.396 203.297 95.0094Z" fill="#FBC7CC"/>
<path d="M180.707 125.584C177.328 127.952 173.805 129.671 170.708 129.867C167.732 130.056 164.741 128.379 161.999 125.895L161.621 139.649L158.417 139.853C158.417 139.853 161.595 160.08 166.436 161.852C171.277 163.625 182.432 142.716 182.432 142.716L179.484 140.973L180.707 125.584Z" fill="#FBC7CC"/>
<path d="M235.239 227.817C230.077 215.087 226.408 177.888 221.791 166.864C217.172 155.841 195.781 143.871 182.432 142.716C182.432 142.716 171.093 163.293 166.436 161.852C161.824 160.424 158.492 139.981 158.492 139.981C158.492 139.981 136.141 142.148 131.827 145.604C127.513 149.06 94.8973 192.917 94.8973 192.917C94.8973 192.917 70.5666 193.592 58.556 196.387C52.2893 198.236 52.2893 198.236 52.2893 198.236C52.2893 198.236 50.676 209.365 53.3 214.132C53.3 214.132 89.6453 215.305 98.5306 213.58C107.417 211.855 130.6 183.949 130.6 183.949C130.6 183.949 129.345 196.243 135.335 203.696C141.324 211.151 136.719 230.015 134.233 236.556C131.747 243.097 128.293 257.247 128.293 257.247C128.293 257.247 165.292 277.819 205.091 264.844C205.091 264.844 196.723 242.743 196.943 227.929C197.163 213.116 197.52 209.612 202.928 198.821C202.928 198.821 211.065 224.131 215.709 235.587C220.356 247.044 227.521 284.457 230.121 284.292C232.723 284.127 246.264 278.043 246.264 278.043C246.264 278.043 240.4 240.547 235.239 227.817Z" fill="#453890"/>
<path d="M128.293 257.247C128.293 257.247 119.375 281.316 118.304 319.252L218.012 312.917C218.012 312.917 217.139 280.909 205.091 264.844C165.292 277.819 128.293 257.247 128.293 257.247Z" fill="#331E3C"/>
<path d="M230.121 284.292C230.121 284.292 228.581 287.436 229.22 290.66C229.861 293.884 231.519 301.614 230.101 305.621C228.685 309.628 229.896 314.992 232.091 315.288C234.287 315.584 234.287 315.584 234.287 315.584C234.287 315.584 233.109 322.188 232.701 325.477C232.295 328.768 233.207 332.845 236.823 331.528C240.439 330.209 243.528 317.173 245.973 311.14C248.419 305.109 248.388 301.195 247.339 294.949C246.289 288.704 242.116 279.86 242.116 279.86L230.121 284.292Z" fill="#FBC7CC"/>
<path d="M52.2893 198.236C52.2893 198.236 45.9533 197.841 42.66 197.397C39.3666 196.953 34.7706 193.111 31.5986 191.136C28.4253 189.161 21.7026 186.107 19.7946 186.88C17.8839 187.655 16.5319 190.352 20.1519 192.516C23.7706 194.68 27.3906 196.844 27.3906 196.844C27.3906 196.844 19.2239 195.033 11.9786 194.047C4.73461 193.06 1.78927 194.455 2.8426 197.532C3.64394 199.876 20.5546 202.284 21.0293 202.907C21.504 203.528 21.0613 206.821 19.3266 206.932C17.592 207.041 3.57194 209.021 1.87861 209.781C0.186608 210.541 0.162598 213.589 2.16926 214.333C4.1746 215.077 20.1453 212.973 21.5279 214.192C22.9133 215.411 21.7893 218.277 15.9919 219.532C10.1959 220.788 7.01327 222.061 8.93993 224.995C10.8666 227.927 25.6306 223.943 28.8119 222.652C31.9959 221.361 38.7812 221.985 42.6532 217.839C46.5252 213.692 52.1199 211.812 52.1199 211.812C52.1199 211.812 50.8546 203.043 52.2893 198.236Z" fill="#FBC7CC"/>
<path d="M27.3906 196.844C28.4466 199.996 29.8386 202.968 32.0079 205.239C33.0586 206.403 34.3813 207.267 35.8133 207.908C37.2466 208.609 38.8506 208.837 40.5053 209.14C38.8693 209.393 37.1013 209.459 35.4533 208.884C33.7946 208.389 32.236 207.44 31.0466 206.161C29.8533 204.889 28.9372 203.391 28.3346 201.796C27.7346 200.203 27.364 198.527 27.3906 196.844Z" fill="#F395A2"/>
<path d="M234.287 315.584C234.781 314.165 235.083 312.727 235.431 311.296L236.389 306.983C237.025 304.097 237.731 301.192 238.853 298.391C238.764 301.415 238.296 304.34 237.691 307.271C237.352 308.732 236.959 310.185 236.423 311.596C235.881 312.995 235.273 314.417 234.287 315.584Z" fill="#F395A2"/>
<path d="M200.037 205.089C200.037 205.089 196.737 217.052 178.065 214.32C159.393 211.589 152.661 212.417 152.661 212.417C152.661 212.417 168.425 213.925 176.583 216.959C184.737 219.991 192.571 221.199 197.684 213.709C197.684 213.709 198.537 208.02 200.037 205.089Z" fill="#361E40"/>
<path d="M130.6 183.949C130.6 183.949 131.835 172.861 133.8 165.555L123.027 192.615L130.6 183.949Z" fill="#361E40"/>
<path d="M202.928 198.821C202.928 198.821 200.669 188.043 201.797 181.023C201.797 181.023 200.563 197.516 198.871 208.363L202.928 198.821Z" fill="#361E40"/>
<path d="M205.091 264.844C183.557 271.864 162.856 269.061 148.379 265.012C148.379 265.012 173.58 273.886 192.219 279.516C210.859 285.143 218.012 312.917 218.012 312.917C218.012 312.917 217.139 280.909 205.091 264.844Z" fill="#221726"/>
<path d="M169.676 315.989C169.676 315.989 167.991 301.439 160.949 297.277C160.949 297.277 165.208 305.74 165.921 316.228L169.676 315.989Z" fill="#221726"/>
<path d="M180.177 132.251L180.707 125.584C177.328 127.952 173.805 129.671 170.708 129.867C167.732 130.056 164.741 128.379 161.999 125.895L161.865 130.717C164.104 132.216 169.687 134.647 180.177 132.251Z" fill="#E0A8AE"/>
</svg>
