<svg xmlns="http://www.w3.org/2000/svg" version="1.1" xmlns:xlink="http://www.w3.org/1999/xlink" xmlns:svgjs="http://svgjs.dev/svgjs" viewBox="0 0 800 800"><g transform="matrix(1,0,0,1,0,0)"><rect width="100" height="100" x="673" y="514" stroke-width="16.5" stroke="#ff3895" fill="none" opacity="0.1" rx="98" ry="98" transform="rotate(122, 400, 400)"></rect><rect width="104.54545454545455" height="104.54545454545455" x="663.3863636363636" y="508" stroke-width="16.488636363636363" stroke="#fd3c98" fill="none" opacity="0.12045454545454545" rx="95.77272727272727" ry="95.77272727272727" transform="rotate(119.22727272727273, 400, 400)"></rect><rect width="109.0909090909091" height="109.0909090909091" x="653.7727272727274" y="501.99999999999994" stroke-width="16.477272727272727" stroke="#fa3f9b" fill="none" opacity="0.14090909090909093" rx="93.54545454545455" ry="93.54545454545455" transform="rotate(116.45454545454545, 400, 400)"></rect><rect width="113.63636363636364" height="113.63636363636364" x="644.1590909090909" y="496.00000000000006" stroke-width="16.46590909090909" stroke="#f8439e" fill="none" opacity="0.16136363636363638" rx="91.31818181818181" ry="91.31818181818181" transform="rotate(113.68181818181819, 400, 400)"></rect><rect width="118.18181818181819" height="118.18181818181819" x="634.5454545454545" y="490" stroke-width="16.454545454545453" stroke="#f546a2" fill="none" opacity="0.18181818181818182" rx="89.0909090909091" ry="89.0909090909091" transform="rotate(110.9090909090909, 400, 400)"></rect><rect width="122.72727272727273" height="122.72727272727273" x="624.9318181818181" y="484" stroke-width="16.443181818181817" stroke="#f349a5" fill="none" opacity="0.20227272727272727" rx="86.86363636363636" ry="86.86363636363636" transform="rotate(108.13636363636364, 400, 400)"></rect><rect width="127.27272727272728" height="127.27272727272728" x="615.3181818181819" y="478" stroke-width="16.431818181818183" stroke="#f04ca7" fill="none" opacity="0.22272727272727272" rx="84.63636363636364" ry="84.63636363636364" transform="rotate(105.36363636363636, 400, 400)"></rect><rect width="131.8181818181818" height="131.8181818181818" x="605.7045454545455" y="472" stroke-width="16.420454545454547" stroke="#ee4faa" fill="none" opacity="0.2431818181818182" rx="82.4090909090909" ry="82.4090909090909" transform="rotate(102.5909090909091, 400, 400)"></rect><rect width="136.36363636363637" height="136.36363636363637" x="596.090909090909" y="465.99999999999994" stroke-width="16.40909090909091" stroke="#eb52ad" fill="none" opacity="0.26363636363636367" rx="80.18181818181819" ry="80.18181818181819" transform="rotate(99.81818181818181, 400, 400)"></rect><rect width="140.9090909090909" height="140.9090909090909" x="586.4772727272727" y="460.00000000000006" stroke-width="16.397727272727273" stroke="#e955b0" fill="none" opacity="0.28409090909090906" rx="77.95454545454545" ry="77.95454545454545" transform="rotate(97.04545454545455, 400, 400)"></rect><rect width="145.45454545454547" height="145.45454545454547" x="576.8636363636364" y="454" stroke-width="16.386363636363637" stroke="#e657b3" fill="none" opacity="0.30454545454545456" rx="75.72727272727273" ry="75.72727272727273" transform="rotate(94.27272727272727, 400, 400)"></rect><rect width="150" height="150" x="567.25" y="448" stroke-width="16.375" stroke="#e35ab5" fill="none" opacity="0.325" rx="73.5" ry="73.5" transform="rotate(91.5, 400, 400)"></rect><rect width="154.54545454545456" height="154.54545454545456" x="557.6363636363636" y="442" stroke-width="16.363636363636363" stroke="#e15cb8" fill="none" opacity="0.34545454545454546" rx="71.27272727272728" ry="71.27272727272728" transform="rotate(88.72727272727272, 400, 400)"></rect><rect width="159.0909090909091" height="159.0909090909091" x="548.0227272727273" y="435.99999999999994" stroke-width="16.352272727272727" stroke="#de5fbb" fill="none" opacity="0.36590909090909096" rx="69.04545454545455" ry="69.04545454545455" transform="rotate(85.95454545454545, 400, 400)"></rect><rect width="163.63636363636363" height="163.63636363636363" x="538.409090909091" y="430" stroke-width="16.34090909090909" stroke="#db61bd" fill="none" opacity="0.38636363636363635" rx="66.81818181818181" ry="66.81818181818181" transform="rotate(83.18181818181819, 400, 400)"></rect><rect width="168.1818181818182" height="168.1818181818182" x="528.7954545454545" y="424" stroke-width="16.329545454545453" stroke="#d863c0" fill="none" opacity="0.40681818181818186" rx="64.5909090909091" ry="64.5909090909091" transform="rotate(80.4090909090909, 400, 400)"></rect><rect width="172.72727272727275" height="172.72727272727275" x="519.1818181818181" y="418" stroke-width="16.318181818181817" stroke="#d565c2" fill="none" opacity="0.42727272727272725" rx="62.36363636363637" ry="62.36363636363637" transform="rotate(77.63636363636363, 400, 400)"></rect><rect width="177.27272727272728" height="177.27272727272728" x="509.56818181818187" y="412" stroke-width="16.306818181818183" stroke="#d368c5" fill="none" opacity="0.44772727272727275" rx="60.13636363636364" ry="60.13636363636364" transform="rotate(74.86363636363636, 400, 400)"></rect><rect width="181.8181818181818" height="181.8181818181818" x="499.9545454545455" y="406" stroke-width="16.295454545454547" stroke="#d06ac7" fill="none" opacity="0.46818181818181814" rx="57.909090909090914" ry="57.909090909090914" transform="rotate(72.0909090909091, 400, 400)"></rect><rect width="186.36363636363637" height="186.36363636363637" x="490.34090909090907" y="400" stroke-width="16.28409090909091" stroke="#cd6cca" fill="none" opacity="0.48863636363636365" rx="55.68181818181819" ry="55.68181818181819" transform="rotate(69.31818181818181, 400, 400)"></rect><rect width="190.90909090909093" height="190.90909090909093" x="480.72727272727275" y="394" stroke-width="16.272727272727273" stroke="#ca6ecc" fill="none" opacity="0.509090909090909" rx="53.45454545454546" ry="53.45454545454546" transform="rotate(66.54545454545453, 400, 400)"></rect><rect width="195.45454545454547" height="195.45454545454547" x="471.1136363636364" y="388" stroke-width="16.261363636363637" stroke="#c770ce" fill="none" opacity="0.5295454545454545" rx="51.227272727272734" ry="51.227272727272734" transform="rotate(63.772727272727266, 400, 400)"></rect><rect width="200" height="200" x="461.5" y="382" stroke-width="16.25" stroke="#c472d1" fill="none" opacity="0.55" rx="49.00000000000001" ry="49.00000000000001" transform="rotate(60.99999999999999, 400, 400)"></rect><rect width="204.54545454545456" height="204.54545454545456" x="451.8863636363636" y="376" stroke-width="16.238636363636363" stroke="#c074d3" fill="none" opacity="0.5704545454545454" rx="46.77272727272728" ry="46.77272727272728" transform="rotate(58.22727272727272, 400, 400)"></rect><rect width="209.0909090909091" height="209.0909090909091" x="442.2727272727272" y="370" stroke-width="16.227272727272727" stroke="#bd76d5" fill="none" opacity="0.5909090909090909" rx="44.54545454545455" ry="44.54545454545455" transform="rotate(55.45454545454545, 400, 400)"></rect><rect width="213.63636363636363" height="213.63636363636363" x="432.65909090909093" y="364" stroke-width="16.21590909090909" stroke="#ba78d8" fill="none" opacity="0.6113636363636363" rx="42.31818181818182" ry="42.31818181818182" transform="rotate(52.68181818181817, 400, 400)"></rect><rect width="218.1818181818182" height="218.1818181818182" x="423.0454545454545" y="358" stroke-width="16.204545454545453" stroke="#b779da" fill="none" opacity="0.6318181818181818" rx="40.09090909090909" ry="40.09090909090909" transform="rotate(49.90909090909091, 400, 400)"></rect><rect width="222.72727272727275" height="222.72727272727275" x="413.43181818181813" y="352" stroke-width="16.193181818181817" stroke="#b37bdc" fill="none" opacity="0.6522727272727272" rx="37.86363636363637" ry="37.86363636363637" transform="rotate(47.136363636363626, 400, 400)"></rect><rect width="227.27272727272728" height="227.27272727272728" x="403.81818181818187" y="346" stroke-width="16.181818181818183" stroke="#b07dde" fill="none" opacity="0.6727272727272727" rx="35.63636363636364" ry="35.63636363636364" transform="rotate(44.36363636363636, 400, 400)"></rect><rect width="231.81818181818184" height="231.81818181818184" x="394.20454545454544" y="340" stroke-width="16.170454545454547" stroke="#ac7fe1" fill="none" opacity="0.6931818181818181" rx="33.40909090909092" ry="33.40909090909092" transform="rotate(41.59090909090908, 400, 400)"></rect><rect width="236.36363636363637" height="236.36363636363637" x="384.59090909090907" y="334" stroke-width="16.15909090909091" stroke="#a981e3" fill="none" opacity="0.7136363636363636" rx="31.181818181818187" ry="31.181818181818187" transform="rotate(38.81818181818181, 400, 400)"></rect><rect width="240.90909090909093" height="240.90909090909093" x="374.97727272727275" y="328" stroke-width="16.147727272727273" stroke="#a582e5" fill="none" opacity="0.734090909090909" rx="28.954545454545467" ry="28.954545454545467" transform="rotate(36.04545454545453, 400, 400)"></rect><rect width="245.45454545454547" height="245.45454545454547" x="365.3636363636364" y="322" stroke-width="16.136363636363637" stroke="#a184e7" fill="none" opacity="0.7545454545454545" rx="26.727272727272734" ry="26.727272727272734" transform="rotate(33.272727272727266, 400, 400)"></rect><rect width="250" height="250" x="355.75" y="316" stroke-width="16.125" stroke="#9e86e9" fill="none" opacity="0.775" rx="24.5" ry="24.5" transform="rotate(30.5, 400, 400)"></rect><rect width="254.54545454545456" height="254.54545454545456" x="346.1363636363636" y="310" stroke-width="16.113636363636363" stroke="#9a87eb" fill="none" opacity="0.7954545454545454" rx="22.27272727272728" ry="22.27272727272728" transform="rotate(27.72727272727272, 400, 400)"></rect><rect width="259.0909090909091" height="259.0909090909091" x="336.52272727272725" y="304" stroke-width="16.102272727272727" stroke="#9689ed" fill="none" opacity="0.8159090909090909" rx="20.045454545454547" ry="20.045454545454547" transform="rotate(24.954545454545453, 400, 400)"></rect><rect width="263.6363636363636" height="263.6363636363636" x="326.90909090909093" y="298" stroke-width="16.09090909090909" stroke="#928bef" fill="none" opacity="0.8363636363636363" rx="17.818181818181827" ry="17.818181818181827" transform="rotate(22.181818181818173, 400, 400)"></rect><rect width="268.1818181818182" height="268.1818181818182" x="317.2954545454545" y="292" stroke-width="16.079545454545453" stroke="#8d8cf1" fill="none" opacity="0.8568181818181818" rx="15.590909090909093" ry="15.590909090909093" transform="rotate(19.409090909090907, 400, 400)"></rect><rect width="272.72727272727275" height="272.72727272727275" x="307.6818181818182" y="286" stroke-width="16.068181818181817" stroke="#898ef3" fill="none" opacity="0.8772727272727272" rx="13.363636363636374" ry="13.363636363636374" transform="rotate(16.636363636363626, 400, 400)"></rect><rect width="277.27272727272725" height="277.27272727272725" x="298.0681818181818" y="280" stroke-width="16.056818181818183" stroke="#848ff5" fill="none" opacity="0.8977272727272727" rx="11.13636363636364" ry="11.13636363636364" transform="rotate(13.86363636363636, 400, 400)"></rect><rect width="281.81818181818187" height="281.81818181818187" x="288.45454545454544" y="273.99999999999994" stroke-width="16.045454545454547" stroke="#8091f7" fill="none" opacity="0.9181818181818181" rx="8.90909090909092" ry="8.90909090909092" transform="rotate(11.09090909090908, 400, 400)"></rect><rect width="286.3636363636364" height="286.3636363636364" x="278.84090909090907" y="268" stroke-width="16.03409090909091" stroke="#7b92f9" fill="none" opacity="0.9386363636363636" rx="6.681818181818187" ry="6.681818181818187" transform="rotate(8.318181818181813, 400, 400)"></rect><rect width="290.90909090909093" height="290.90909090909093" x="269.22727272727275" y="262" stroke-width="16.022727272727273" stroke="#7694fb" fill="none" opacity="0.9590909090909091" rx="4.4545454545454675" ry="4.4545454545454675" transform="rotate(5.5454545454545325, 400, 400)"></rect><rect width="295.4545454545455" height="295.4545454545455" x="259.6136363636364" y="256" stroke-width="16.011363636363637" stroke="#7196fd" fill="none" opacity="0.9795454545454545" rx="2.2272727272727337" ry="2.2272727272727337" transform="rotate(2.7727272727272663, 400, 400)"></rect><rect width="300" height="300" x="250" y="250" stroke-width="16" stroke="#6b97ff" fill="none" opacity="1" rx="1.4210854715202004e-14" ry="1.4210854715202004e-14" transform="rotate(-1.4210854715202004e-14, 400, 400)"></rect></g></svg>