<svg width="1440" height="757" viewBox="0 0 1440 757" fill="none" xmlns="http://www.w3.org/2000/svg">
<g clip-path="url(#clip0_34_618)">
<path d="M-1 757C-1 757 26.7904 681.587 104.675 663.742C182.562 645.893 205.296 697.825 271.659 695.356C338.021 692.882 385.609 734.706 427.775 723.889C469.947 713.069 505.931 675.321 590.419 674.721C674.907 674.119 695.546 705.785 743.751 723.889C791.958 741.989 870.484 730.451 917.422 714.546C964.361 698.643 971.141 687.102 1009.21 693.593C1047.29 700.086 1164.63 704.142 1221.74 684.801C1278.85 665.462 1352.48 683.798 1388.37 723.889C1418.02 757 1440 757 1440 757H-1Z" fill="#9E85CA"/>
</g>
<defs>
<clipPath id="clip0_34_618">
<rect width="1440" height="757" fill="white"/>
</clipPath>
</defs>
</svg>
